<svg width="100%" height="100%" viewBox="0 0 570 425" fill="none" xmlns="http://www.w3.org/2000/svg">
<path d="M570 373.236H0V373.521H570V373.236Z" fill="#EBEBEB"/>
<path d="M512.886 391.579H488.171V391.864H512.886V391.579Z" fill="#EBEBEB"/>
<path d="M392.924 385.673H354.038V385.958H392.924V385.673Z" fill="#EBEBEB"/>
<path d="M502.877 380.999H452.113V381.284H502.877V380.999Z" fill="#EBEBEB"/>
<path d="M197.243 386.745H184.543V387.03H197.243V386.745Z" fill="#EBEBEB"/>
<path d="M174.386 386.745H130.621V387.03H174.386V386.745Z" fill="#EBEBEB"/>
<path d="M107.171 381.934H75.5934V382.219H107.171V381.934Z" fill="#EBEBEB"/>
<path d="M270.18 322.392H50.0574C48.333 322.389 46.6802 321.702 45.4619 320.481C44.2436 319.261 43.5594 317.607 43.5594 315.883V6.4524C43.5744 4.73787 44.2653 3.0985 45.4819 1.89037C46.6986 0.682242 48.3428 0.00293708 50.0574 0H270.18C271.906 0 273.562 0.68581 274.783 1.90656C276.004 3.12731 276.689 4.783 276.689 6.5094V315.883C276.689 317.609 276.004 319.265 274.783 320.485C273.562 321.706 271.906 322.392 270.18 322.392V322.392ZM50.0574 0.228001C48.4086 0.231021 46.8283 0.888134 45.6634 2.05511C44.4986 3.22208 43.8444 4.80356 43.8444 6.4524V315.883C43.8444 317.531 44.4986 319.113 45.6634 320.28C46.8283 321.447 48.4086 322.104 50.0574 322.107H270.18C271.83 322.104 273.411 321.447 274.578 320.281C275.745 319.114 276.401 317.532 276.404 315.883V6.4524C276.401 4.80251 275.745 3.22106 274.578 2.05441C273.411 0.887764 271.83 0.231014 270.18 0.228001H50.0574Z" fill="#EBEBEB"/>
<path d="M516.773 322.392H296.639C294.914 322.389 293.26 321.702 292.04 320.482C290.82 319.262 290.133 317.608 290.13 315.883V6.4524C290.148 4.73683 290.841 3.09747 292.06 1.88966C293.278 0.681844 294.924 0.00290505 296.639 0H516.773C518.486 0.00593313 520.127 0.686564 521.341 1.89437C522.556 3.10218 523.245 4.73984 523.26 6.4524V315.883C523.26 317.605 522.577 319.257 521.361 320.477C520.146 321.697 518.496 322.386 516.773 322.392V322.392ZM296.639 0.228001C294.989 0.231014 293.408 0.887764 292.241 2.05441C291.075 3.22106 290.418 4.80251 290.415 6.4524V315.883C290.418 317.532 291.075 319.114 292.241 320.281C293.408 321.447 294.989 322.104 296.639 322.107H516.773C518.423 322.104 520.005 321.447 521.171 320.281C522.338 319.114 522.995 317.532 522.998 315.883V6.4524C522.995 4.80251 522.338 3.22106 521.171 2.05441C520.005 0.887764 518.423 0.231014 516.773 0.228001H296.639Z" fill="#EBEBEB"/>
<path d="M131.1 136.378C137.422 136.378 143.485 133.867 147.956 129.396C152.426 124.926 154.937 118.863 154.937 112.541C154.937 106.219 152.426 100.156 147.956 95.6852C143.485 91.2148 137.422 88.7034 131.1 88.7034H128.17V136.378H131.1Z" fill="#E0E0E0"/>
<path d="M128.147 136.378C141.312 136.378 151.985 125.706 151.985 112.541C151.985 99.3758 141.312 88.7034 128.147 88.7034C114.982 88.7034 104.31 99.3758 104.31 112.541C104.31 125.706 114.982 136.378 128.147 136.378Z" fill="#F5F5F5"/>
<path d="M127.053 115.528C118.587 115.528 110.468 112.165 104.482 106.178C98.496 100.192 95.133 92.0733 95.133 83.6076V64.5582C95.133 63.763 95.4489 63.0004 96.0111 62.4381C96.5734 61.8759 97.336 61.56 98.1312 61.56C98.9264 61.56 99.689 61.8759 100.251 62.4381C100.814 63.0004 101.129 63.763 101.129 64.5582V83.619C101.135 90.4905 103.867 97.0791 108.725 101.939C113.583 106.799 120.17 109.534 127.042 109.543C127.45 109.517 127.859 109.576 128.244 109.715C128.629 109.854 128.982 110.07 129.28 110.351C129.578 110.631 129.816 110.969 129.978 111.345C130.141 111.721 130.225 112.126 130.225 112.535C130.225 112.944 130.141 113.349 129.978 113.725C129.816 114.101 129.578 114.439 129.28 114.719C128.982 115 128.629 115.216 128.244 115.355C127.859 115.494 127.45 115.553 127.042 115.528H127.053Z" fill="#E0E0E0"/>
<path d="M71.6262 81.339H124.659C125.507 81.3391 126.344 81.1446 127.105 80.7703C127.866 80.396 128.531 79.8519 129.049 79.1801C129.566 78.5083 129.923 77.7265 130.091 76.8952C130.259 76.0638 130.233 75.205 130.017 74.385L125.4 57C125.088 55.8189 124.395 54.774 123.428 54.0277C122.461 53.2813 121.275 52.8755 120.053 52.8732H76.2318C75.0089 52.8749 73.8207 53.2803 72.8519 54.0266C71.883 54.7728 71.1877 55.818 70.8738 57L66.3138 74.3622C66.0918 75.1802 66.0609 76.0382 66.2234 76.87C66.3859 77.7019 66.7375 78.4852 67.2509 79.1595C67.7644 79.8339 68.426 80.3811 69.1846 80.759C69.9433 81.1369 70.7786 81.3353 71.6262 81.339V81.339Z" fill="#F5F5F5"/>
<path d="M467.719 136.378C474.041 136.378 480.104 133.867 484.575 129.396C489.045 124.926 491.557 118.863 491.557 112.541C491.557 106.219 489.045 100.156 484.575 95.6852C480.104 91.2148 474.041 88.7034 467.719 88.7034H464.789V136.378H467.719Z" fill="#E0E0E0"/>
<path d="M464.789 136.378C477.954 136.378 488.627 125.706 488.627 112.541C488.627 99.3758 477.954 88.7034 464.789 88.7034C451.624 88.7034 440.952 99.3758 440.952 112.541C440.952 125.706 451.624 136.378 464.789 136.378Z" fill="#F5F5F5"/>
<path d="M463.695 115.528C455.229 115.528 447.11 112.165 441.124 106.178C435.138 100.192 431.775 92.0733 431.775 83.6076V64.5582C431.775 63.763 432.091 63.0004 432.653 62.4381C433.215 61.8759 433.978 61.56 434.773 61.56C435.568 61.56 436.331 61.8759 436.893 62.4381C437.456 63.0004 437.771 63.763 437.771 64.5582V83.619C437.777 90.4905 440.509 97.0791 445.367 101.939C450.225 106.799 456.812 109.534 463.684 109.543C464.092 109.517 464.501 109.576 464.886 109.715C465.271 109.854 465.624 110.07 465.922 110.351C466.22 110.631 466.458 110.969 466.62 111.345C466.783 111.721 466.867 112.126 466.867 112.535C466.867 112.944 466.783 113.349 466.62 113.725C466.458 114.101 466.22 114.439 465.922 114.719C465.624 115 465.271 115.216 464.886 115.355C464.501 115.494 464.092 115.553 463.684 115.528H463.695Z" fill="#E0E0E0"/>
<path d="M408.268 81.339H461.301C462.149 81.3391 462.986 81.1446 463.747 80.7703C464.508 80.396 465.173 79.852 465.691 79.1801C466.208 78.5083 466.565 77.7266 466.733 76.8952C466.901 76.0638 466.875 75.2051 466.659 74.385L462.099 57.0228C461.787 55.8418 461.094 54.7968 460.127 54.0505C459.16 53.3042 457.974 52.8983 456.752 52.896H412.874C411.651 52.8977 410.463 53.3032 409.494 54.0494C408.525 54.7956 407.83 55.8408 407.516 57.0228L402.956 74.385C402.738 75.2015 402.71 76.057 402.875 76.8859C403.039 77.7148 403.391 78.495 403.904 79.1665C404.417 79.8381 405.077 80.383 405.834 80.7596C406.59 81.1362 407.423 81.3344 408.268 81.339V81.339Z" fill="#F5F5F5"/>
<path d="M152.737 297.38H170.077V230.2H152.737V297.38Z" fill="#E6E6E6"/>
<path d="M105.735 297.369H163.271L171.958 218.743H114.422L105.735 297.369Z" fill="#F0F0F0"/>
<path d="M99.4992 297.369H158.939L167.626 218.743H108.197L99.4992 297.369Z" fill="#F5F5F5"/>
<path d="M154.641 291.179L161.96 224.945H112.484L105.165 291.179H154.641Z" fill="white"/>
<path d="M144.427 275.116L144.78 272.46C146.615 255.839 136.241 241.03 122.767 241.03L122.459 243.732C120.623 260.342 130.997 275.15 144.484 275.15L144.427 275.116Z" fill="#F5F5F5"/>
<path d="M67.3626 373.236H118.48L118.48 297.369H67.3626V373.236Z" fill="#E6E6E6"/>
<path d="M72.4926 373.236H67.3512V358.61H77.8848L72.4926 373.236Z" fill="#F0F0F0"/>
<path d="M210.626 373.236H261.744V297.369H210.626V373.236Z" fill="#E6E6E6"/>
<path d="M67.3512 364.264H215.107V297.38H67.3512V364.264Z" fill="#F0F0F0"/>
<path d="M209.965 373.236H215.107V358.61H204.573L209.965 373.236Z" fill="#F0F0F0"/>
<path d="M71.3412 328.548H211.117V301.553H71.3412V328.548Z" fill="#E6E6E6"/>
<path d="M131.909 319.2H150.548C154.556 319.202 158.521 318.386 162.203 316.802C165.884 315.218 169.203 312.9 171.958 309.989H110.5C113.256 312.898 116.575 315.215 120.256 316.799C123.937 318.383 127.902 319.2 131.909 319.2V319.2Z" fill="#F0F0F0"/>
<path d="M71.3412 359.898H211.117V332.903H71.3412V359.898Z" fill="#E6E6E6"/>
<path d="M131.909 350.504H150.548C154.556 350.506 158.521 349.69 162.203 348.106C165.884 346.522 169.203 344.204 171.958 341.293H110.5C113.256 344.203 116.575 346.52 120.256 348.103C123.937 349.687 127.902 350.504 131.909 350.504V350.504Z" fill="#F0F0F0"/>
<path d="M205.747 294.28H207.07C207.07 291.555 207.07 284.658 207.206 268.846C207.446 240.175 207.902 238.431 207.902 238.431L204.755 251.666C202.76 266.315 205.337 281.044 205.747 294.28Z" fill="#E6E6E6"/>
<path d="M203.137 249.66C198.577 244.268 188.944 242.695 179.048 241.349C175.161 240.825 189.251 249.706 196.148 256.01C201.506 260.912 204.926 262.268 206.408 267.148C207.161 261.06 207.035 254.345 203.137 249.66Z" fill="#E6E6E6"/>
<path d="M209.144 259.327C213.704 253.935 223.337 252.373 233.233 251.028C237.12 250.504 222.973 259.384 216.133 265.688C210.775 270.59 207.355 271.947 205.873 276.826C205.12 270.739 205.2 263.978 209.144 259.327Z" fill="#E6E6E6"/>
<path d="M207.206 237.12C210.626 230.668 219.131 224.58 228.718 222.3C232.48 221.399 219.997 234.202 215.255 242.467C211.573 248.873 206.693 256.42 205.93 261.847C204.79 251.153 203.809 243.607 207.206 237.12Z" fill="#E6E6E6"/>
<path d="M206.796 297.369C202.76 297.369 199.42 295.351 199.181 292.752L198.508 288.329H215.095L214.411 292.752C214.183 295.351 210.9 297.369 206.796 297.369Z" fill="#F0F0F0"/>
<path d="M216.167 290.027H197.437L196.901 285.091H216.703L216.167 290.027Z" fill="#F0F0F0"/>
<path d="M193.276 195.761L375.915 195.761V29.1726L193.276 29.1726L193.276 195.761Z" fill="#E6E6E6"/>
<path d="M189.172 195.761L374.125 195.761V29.1726L189.172 29.1726L189.172 195.761Z" fill="#F5F5F5"/>
<path d="M366.738 188.305V36.6396L196.536 36.6396V188.305H366.738Z" fill="#FAFAFA"/>
<path d="M345.865 188.305L278.878 36.6396H256.124L323.11 188.305H345.865Z" fill="white"/>
<path d="M316.658 188.305L249.671 36.6396H234.008L300.994 188.305H316.658Z" fill="white"/>
<path d="M259.738 188.294V36.6282H250.937V188.294H259.738Z" fill="#E6E6E6"/>
<path d="M318.242 188.294V36.6282H309.442V188.294H318.242Z" fill="#E6E6E6"/>
<path d="M258.153 193.036V31.0878H247.027V193.036H258.153Z" fill="#F5F5F5"/>
<path d="M316.658 193.036V31.0878H305.531V193.036H316.658Z" fill="#F5F5F5"/>
<path d="M197.334 188.305V36.6396H196.547V188.305H197.334Z" fill="#E6E6E6"/>
<path d="M186.071 19.5738H383.929C384.182 19.5768 384.424 19.6786 384.603 19.8576C384.782 20.0365 384.884 20.2784 384.887 20.5314C384.884 20.7834 384.782 21.0241 384.602 21.2012C384.423 21.3783 384.181 21.4776 383.929 21.4776H186.071C185.819 21.4776 185.577 21.3783 185.398 21.2012C185.218 21.0241 185.116 20.7834 185.113 20.5314V20.5314C185.116 20.2784 185.218 20.0365 185.397 19.8576C185.576 19.6786 185.818 19.5768 186.071 19.5738Z" fill="#E6E6E6"/>
<path d="M375.915 25.8552C376.255 25.8522 376.579 25.7152 376.819 25.4739C377.058 25.2326 377.192 24.9067 377.192 24.567V21.8082C377.193 21.6396 377.161 21.4723 377.098 21.3161C377.034 21.1599 376.941 21.0178 376.822 20.898C376.703 20.7782 376.562 20.6832 376.406 20.6183C376.251 20.5534 376.084 20.52 375.915 20.52V20.52C375.575 20.52 375.249 20.6542 375.008 20.8933C374.767 21.1324 374.63 21.4572 374.627 21.7968V24.5556C374.627 24.8983 374.762 25.2272 375.003 25.4706C375.245 25.714 375.572 25.8522 375.915 25.8552V25.8552Z" fill="#E6E6E6"/>
<path d="M200.412 25.8552C200.753 25.8522 201.079 25.7156 201.32 25.4746C201.561 25.2337 201.697 24.9078 201.7 24.567V21.8082C201.7 21.4666 201.564 21.1389 201.323 20.8973C201.081 20.6557 200.754 20.52 200.412 20.52V20.52C200.073 20.52 199.749 20.6545 199.509 20.894C199.27 21.1334 199.135 21.4582 199.135 21.7968V24.5556C199.134 24.7248 199.166 24.8926 199.229 25.0495C199.292 25.2063 199.386 25.3492 199.504 25.4699C199.623 25.5905 199.764 25.6867 199.92 25.7528C200.076 25.8189 200.243 25.8537 200.412 25.8552Z" fill="#E6E6E6"/>
<path opacity="0.6" d="M186.367 150.982L371.195 150.982V20.52L186.367 20.52L186.367 150.982Z" fill="#E0E0E0"/>
<path d="M387.931 233.666H356.056C352.669 233.666 349.923 236.412 349.923 239.799V254.551C349.923 257.938 352.669 260.684 356.056 260.684H387.931C391.318 260.684 394.064 257.938 394.064 254.551V239.799C394.064 236.412 391.318 233.666 387.931 233.666Z" fill="#FAFAFA"/>
<path d="M392 228.673H351.986C350.847 228.673 349.923 229.596 349.923 230.736V232.4C349.923 233.54 350.847 234.464 351.986 234.464H392C393.14 234.464 394.064 233.54 394.064 232.4V230.736C394.064 229.596 393.14 228.673 392 228.673Z" fill="#E6E6E6"/>
<path d="M350.573 290.7C350.573 290.7 351.154 309.704 373.293 309.704C395.432 309.704 396.013 290.7 396.013 290.7H350.573Z" fill="#F0F0F0"/>
<path d="M401.052 290.7C401.052 290.7 401.633 309.704 423.772 309.704C445.911 309.704 446.492 290.7 446.492 290.7H401.052Z" fill="#F0F0F0"/>
<path d="M435.526 221.434H391.75C387.091 221.434 383.314 225.211 383.314 229.87V252.259C383.314 256.918 387.091 260.695 391.75 260.695H435.526C440.185 260.695 443.962 256.918 443.962 252.259V229.87C443.962 225.211 440.185 221.434 435.526 221.434Z" fill="#F0F0F0"/>
<path d="M441.134 214.571H386.141C384.579 214.571 383.314 215.837 383.314 217.398V219.701C383.314 221.262 384.579 222.528 386.141 222.528H441.134C442.696 222.528 443.962 221.262 443.962 219.701V217.398C443.962 215.837 442.696 214.571 441.134 214.571Z" fill="#F5F5F5"/>
<path d="M333.895 373.236H339.64V279.026H333.895V373.236Z" fill="#E6E6E6"/>
<path d="M499.799 260.684H468.688V279.015H499.799V260.684Z" fill="#E6E6E6"/>
<path d="M314.002 279.026H468.677V260.695H314.002V279.026Z" fill="#F5F5F5"/>
<path d="M499.799 309.647H468.688V327.978H499.799V309.647Z" fill="#E6E6E6"/>
<path d="M314.002 327.978H468.677V309.647H314.002V327.978Z" fill="#F5F5F5"/>
<path d="M488.57 373.236H494.315V279.026H488.57V373.236Z" fill="#E6E6E6"/>
<path d="M462.943 373.236H468.688V279.026H462.943V373.236Z" fill="#F5F5F5"/>
<path d="M314.002 373.236H319.747V279.026H314.002V373.236Z" fill="#F5F5F5"/>
<path d="M285 424.718C407.074 424.718 506.035 418.941 506.035 411.814C506.035 404.686 407.074 398.909 285 398.909C162.926 398.909 63.9654 404.686 63.9654 411.814C63.9654 418.941 162.926 424.718 285 424.718Z" fill="#F5F5F5"/>
<path d="M296.867 353.97H151.438C149.099 353.937 146.859 353.021 145.168 351.405C143.476 349.79 142.458 347.595 142.318 345.26L129.276 92.6934C129.204 91.57 129.364 90.4437 129.748 89.3853C130.131 88.3268 130.729 87.3589 131.504 86.5422C132.278 85.7256 133.214 85.0778 134.251 84.6396C135.288 84.2013 136.404 83.9819 137.53 83.9952H282.959C285.297 84.0255 287.536 84.9392 289.228 86.5526C290.92 88.1661 291.938 90.3599 292.079 92.6934L305.098 345.26C305.17 346.382 305.01 347.507 304.629 348.565C304.247 349.622 303.651 350.59 302.879 351.407C302.107 352.224 301.174 352.874 300.14 353.315C299.106 353.755 297.992 353.979 296.867 353.97V353.97Z" fill="#407BFF"/>
<path opacity="0.8" d="M296.867 353.97H151.438C149.099 353.937 146.859 353.021 145.168 351.405C143.476 349.79 142.458 347.595 142.318 345.26L129.276 92.6934C129.204 91.57 129.364 90.4437 129.748 89.3853C130.131 88.3268 130.729 87.3589 131.504 86.5422C132.278 85.7256 133.214 85.0778 134.251 84.6396C135.288 84.2013 136.404 83.9819 137.53 83.9952H282.959C285.297 84.0255 287.536 84.9392 289.228 86.5526C290.92 88.1661 291.938 90.3599 292.079 92.6934L305.098 345.26C305.17 346.382 305.01 347.507 304.629 348.565C304.247 349.622 303.651 350.59 302.879 351.407C302.107 352.224 301.174 352.874 300.14 353.315C299.106 353.755 297.992 353.979 296.867 353.97V353.97Z" fill="white"/>
<path d="M268.607 75.7644H252.521V76.9044H268.607V75.7644Z" fill="#407BFF"/>
<path d="M246.947 75.7644H241.053V76.9044H246.947V75.7644Z" fill="#407BFF"/>
<path d="M303.126 337.942H164.046C161.806 337.92 159.658 337.051 158.034 335.509C156.409 333.967 155.429 331.867 155.291 329.631L142.842 88.065C142.773 86.9899 142.927 85.912 143.293 84.8991C143.66 83.8861 144.233 82.9599 144.975 82.1786C145.716 81.3972 146.611 80.7775 147.604 80.3584C148.596 79.9393 149.665 79.7298 150.742 79.743H289.822C292.062 79.7677 294.209 80.6399 295.831 82.184C297.453 83.7281 298.431 85.8294 298.566 88.065L311.015 329.631C311.084 330.705 310.931 331.781 310.564 332.793C310.198 333.804 309.626 334.729 308.886 335.509C308.145 336.29 307.251 336.909 306.26 337.327C305.269 337.746 304.202 337.955 303.126 337.942Z" fill="#407BFF"/>
<path d="M303.126 332.39H164.046C163.23 332.362 162.453 332.035 161.863 331.472C161.272 330.909 160.909 330.148 160.843 329.335L148.382 87.78C148.354 87.4587 148.394 87.135 148.501 86.8304C148.607 86.5258 148.776 86.2472 148.998 86.013C149.22 85.7793 149.49 85.5955 149.789 85.4736C150.087 85.3518 150.408 85.2947 150.731 85.3062H289.811C290.624 85.337 291.399 85.6649 291.987 86.2278C292.575 86.7908 292.936 87.5499 293.003 88.3614L305.52 329.916C305.547 330.236 305.507 330.559 305.401 330.862C305.295 331.165 305.126 331.443 304.906 331.676C304.685 331.91 304.417 332.094 304.121 332.217C303.824 332.34 303.504 332.399 303.183 332.39H303.126ZM150.731 85.5912C150.447 85.582 150.165 85.632 149.902 85.738C149.639 85.844 149.401 86.0037 149.203 86.2068C149.013 86.4173 148.867 86.6643 148.775 86.9328C148.683 87.2012 148.646 87.4856 148.667 87.7686L161.116 329.323C161.18 330.063 161.511 330.754 162.049 331.266C162.586 331.779 163.293 332.077 164.035 332.105H303.115C303.397 332.116 303.678 332.067 303.939 331.961C304.201 331.854 304.436 331.694 304.631 331.489C304.826 331.282 304.974 331.035 305.067 330.766C305.159 330.497 305.193 330.211 305.167 329.927L292.729 88.3728C292.668 87.634 292.339 86.943 291.803 86.4304C291.268 85.9179 290.563 85.6194 289.822 85.5912H150.731Z" fill="white"/>
<path opacity="0.3" d="M254.478 173.344C270.297 157.111 269.267 130.451 252.178 113.797C235.088 97.1438 208.411 96.8026 192.592 113.035C176.773 129.268 177.803 155.928 194.893 172.582C211.982 189.235 238.66 189.576 254.478 173.344Z" fill="white"/>
<path d="M257.64 143.195C257.959 148.798 256.832 154.388 254.368 159.429C251.701 164.836 247.56 169.38 242.423 172.536C237.286 175.693 231.361 177.334 225.332 177.27C219.084 177.214 212.957 175.541 207.547 172.415C202.138 169.288 197.629 164.815 194.461 159.429C191.509 154.504 189.81 148.93 189.514 143.195C189.232 138.798 189.862 134.389 191.363 130.246C192.864 126.103 195.204 122.314 198.237 119.116C201.269 115.919 204.929 113.382 208.987 111.664C213.046 109.946 217.415 109.084 221.821 109.132C230.993 109.228 239.787 112.795 246.433 119.116C253.08 125.436 257.084 134.04 257.64 143.195V143.195Z" fill="white"/>
<path d="M254.334 159.429C251.667 164.836 247.526 169.38 242.389 172.536C237.252 175.693 231.327 177.334 225.298 177.27C219.05 177.214 212.923 175.541 207.513 172.415C202.103 169.288 197.595 164.815 194.427 159.429C203.09 153.446 213.379 150.263 223.907 150.309C234.717 150.35 245.284 153.517 254.334 159.429V159.429Z" fill="#407BFF"/>
<path d="M234.096 142.403C239.795 136.555 239.422 126.948 233.263 120.946C227.103 114.943 217.49 114.819 211.791 120.667C206.091 126.515 206.465 136.122 212.624 142.124C218.783 148.127 228.397 148.252 234.096 142.403Z" fill="#407BFF"/>
<path d="M283.187 243.96H174.283C173.335 243.95 172.425 243.581 171.738 242.928C171.05 242.274 170.636 241.384 170.578 240.437L169.757 224.477C169.729 224.023 169.795 223.569 169.95 223.141C170.106 222.714 170.348 222.323 170.662 221.993C170.975 221.664 171.353 221.402 171.772 221.226C172.192 221.049 172.643 220.961 173.098 220.966H282.002C282.948 220.976 283.857 221.343 284.544 221.994C285.231 222.646 285.646 223.533 285.707 224.477L286.528 240.437C286.557 240.892 286.493 241.349 286.338 241.777C286.183 242.206 285.941 242.598 285.628 242.929C285.314 243.26 284.935 243.522 284.515 243.7C284.095 243.877 283.643 243.966 283.187 243.96V243.96Z" fill="white"/>
<path opacity="0.3" d="M249.842 212.154H204.356C203.404 212.147 202.49 211.778 201.8 211.121C201.11 210.465 200.695 209.571 200.64 208.62L200.469 205.2C200.439 204.745 200.504 204.289 200.658 203.86C200.813 203.431 201.055 203.039 201.369 202.708C201.683 202.378 202.061 202.115 202.481 201.938C202.901 201.76 203.353 201.672 203.809 201.677H249.284C250.232 201.687 251.142 202.056 251.829 202.71C252.517 203.363 252.931 204.253 252.989 205.2L253.171 208.62C253.199 209.074 253.134 209.529 252.979 209.957C252.825 210.385 252.584 210.776 252.272 211.108C251.96 211.439 251.583 211.703 251.165 211.883C250.748 212.062 250.297 212.155 249.842 212.154V212.154Z" fill="black"/>
<path opacity="0.3" d="M266.76 320.693H198.622C197.009 320.674 195.462 320.045 194.293 318.932C193.124 317.82 192.419 316.307 192.318 314.697L191.919 306.831C191.879 306.058 191.996 305.285 192.265 304.559C192.533 303.833 192.947 303.169 193.48 302.608C194.013 302.046 194.655 301.6 195.367 301.295C196.079 300.99 196.845 300.834 197.619 300.835H265.734C267.347 300.855 268.894 301.484 270.063 302.596C271.232 303.708 271.938 305.221 272.038 306.831L272.437 314.697C272.477 315.468 272.36 316.24 272.093 316.964C271.826 317.689 271.415 318.352 270.884 318.912C270.353 319.473 269.714 319.92 269.005 320.226C268.296 320.532 267.532 320.691 266.76 320.693V320.693Z" fill="black"/>
<path d="M285.182 282.56H176.267C175.319 282.548 174.411 282.178 173.724 281.525C173.037 280.872 172.622 279.984 172.562 279.038L171.741 263.078C171.713 262.623 171.778 262.168 171.934 261.74C172.089 261.312 172.331 260.92 172.645 260.59C172.958 260.259 173.336 259.997 173.755 259.819C174.174 259.641 174.626 259.551 175.081 259.555H283.985C284.934 259.565 285.844 259.934 286.531 260.588C287.218 261.241 287.633 262.131 287.69 263.078L288.523 279.038C288.549 279.492 288.482 279.947 288.326 280.374C288.17 280.801 287.928 281.192 287.615 281.522C287.302 281.852 286.925 282.115 286.506 282.293C286.088 282.472 285.637 282.563 285.182 282.56V282.56Z" fill="white"/>
<path d="M188.1 232.457C188.131 232.961 188.059 233.466 187.886 233.94C187.713 234.415 187.445 234.848 187.097 235.214C186.75 235.58 186.33 235.87 185.865 236.067C185.4 236.263 184.9 236.362 184.395 236.356C183.346 236.344 182.341 235.935 181.582 235.211C180.823 234.488 180.366 233.504 180.302 232.457C180.269 231.954 180.341 231.45 180.512 230.975C180.683 230.501 180.951 230.067 181.297 229.701C181.644 229.335 182.063 229.044 182.527 228.848C182.992 228.651 183.492 228.553 183.996 228.559C185.046 228.571 186.052 228.98 186.813 229.703C187.574 230.426 188.034 231.41 188.1 232.457V232.457Z" fill="#263238"/>
<path d="M200.104 232.457C200.137 232.961 200.066 233.465 199.895 233.94C199.723 234.414 199.456 234.848 199.109 235.214C198.762 235.58 198.344 235.87 197.879 236.067C197.415 236.264 196.915 236.362 196.411 236.356C195.361 236.346 194.355 235.938 193.595 235.214C192.835 234.491 192.379 233.505 192.318 232.457C192.285 231.954 192.356 231.45 192.527 230.975C192.699 230.501 192.966 230.067 193.313 229.701C193.66 229.335 194.079 229.044 194.543 228.848C195.007 228.651 195.507 228.553 196.012 228.559C197.061 228.568 198.067 228.977 198.827 229.7C199.587 230.424 200.043 231.41 200.104 232.457V232.457Z" fill="#263238"/>
<path d="M212.04 232.457C212.073 232.961 212.002 233.465 211.83 233.94C211.659 234.414 211.392 234.848 211.045 235.214C210.698 235.58 210.279 235.87 209.815 236.067C209.351 236.264 208.851 236.362 208.346 236.356C207.297 236.344 206.29 235.935 205.529 235.212C204.768 234.489 204.308 233.505 204.242 232.457C204.211 231.954 204.284 231.449 204.456 230.974C204.629 230.5 204.897 230.066 205.245 229.701C205.593 229.335 206.012 229.044 206.477 228.848C206.942 228.651 207.443 228.553 207.947 228.559C208.996 228.571 210.001 228.98 210.76 229.703C211.519 230.427 211.977 231.411 212.04 232.457Z" fill="#263238"/>
<path d="M224.067 232.457C224.098 232.96 224.026 233.464 223.854 233.938C223.682 234.411 223.415 234.844 223.068 235.21C222.722 235.576 222.304 235.866 221.84 236.064C221.376 236.261 220.877 236.36 220.373 236.356C219.324 236.344 218.317 235.935 217.556 235.212C216.795 234.489 216.335 233.505 216.269 232.457C216.238 231.955 216.311 231.451 216.482 230.977C216.654 230.504 216.922 230.071 217.268 229.705C217.615 229.339 218.033 229.049 218.496 228.851C218.96 228.654 219.459 228.555 219.963 228.559C221.013 228.571 222.019 228.98 222.78 229.703C223.541 230.426 224.001 231.41 224.067 232.457V232.457Z" fill="#263238"/>
<path d="M190.118 271.035C190.151 271.538 190.079 272.043 189.908 272.517C189.737 272.991 189.47 273.425 189.123 273.791C188.776 274.157 188.357 274.448 187.893 274.645C187.428 274.841 186.928 274.94 186.424 274.934C185.374 274.922 184.368 274.513 183.607 273.79C182.846 273.067 182.386 272.083 182.32 271.035C182.289 270.531 182.362 270.026 182.534 269.552C182.707 269.078 182.975 268.644 183.323 268.278C183.671 267.912 184.09 267.622 184.555 267.425C185.02 267.229 185.52 267.131 186.025 267.136C187.074 267.149 188.079 267.558 188.838 268.281C189.597 269.004 190.054 269.988 190.118 271.035Z" fill="#263238"/>
<path d="M202.099 271.035C202.13 271.538 202.058 272.042 201.886 272.515C201.714 272.989 201.447 273.422 201.1 273.788C200.754 274.153 200.336 274.444 199.872 274.641C199.409 274.838 198.909 274.938 198.406 274.934C197.356 274.922 196.35 274.513 195.588 273.79C194.827 273.067 194.368 272.083 194.302 271.035C194.269 270.532 194.34 270.027 194.511 269.553C194.682 269.079 194.95 268.645 195.297 268.279C195.643 267.913 196.062 267.622 196.527 267.426C196.991 267.229 197.491 267.13 197.995 267.136C199.045 267.149 200.051 267.557 200.812 268.28C201.573 269.003 202.033 269.987 202.099 271.035Z" fill="#263238"/>
<path d="M214.081 271.035C214.112 271.539 214.039 272.044 213.867 272.518C213.694 272.992 213.426 273.426 213.078 273.792C212.73 274.158 212.311 274.448 211.846 274.645C211.381 274.841 210.88 274.94 210.376 274.934C209.326 274.924 208.32 274.516 207.56 273.792C206.8 273.068 206.344 272.083 206.283 271.035C206.25 270.532 206.321 270.027 206.493 269.553C206.664 269.079 206.931 268.645 207.278 268.279C207.625 267.913 208.044 267.622 208.508 267.426C208.972 267.229 209.472 267.13 209.977 267.136C211.026 267.149 212.033 267.557 212.794 268.28C213.555 269.003 214.014 269.987 214.081 271.035Z" fill="#263238"/>
<path d="M226.051 271.035C226.084 271.538 226.012 272.043 225.841 272.517C225.67 272.991 225.402 273.425 225.056 273.791C224.709 274.157 224.29 274.448 223.826 274.645C223.361 274.841 222.861 274.94 222.357 274.934C221.307 274.922 220.301 274.513 219.54 273.79C218.779 273.067 218.319 272.083 218.253 271.035C218.222 270.531 218.294 270.026 218.467 269.552C218.639 269.078 218.908 268.644 219.256 268.278C219.603 267.912 220.023 267.622 220.488 267.425C220.953 267.229 221.453 267.131 221.958 267.136C223.007 267.146 224.014 267.554 224.774 268.278C225.533 269.002 225.99 269.987 226.051 271.035Z" fill="#263238"/>
<path d="M238.032 271.035C238.065 271.538 237.994 272.043 237.822 272.517C237.651 272.991 237.384 273.425 237.037 273.791C236.69 274.157 236.271 274.448 235.807 274.645C235.343 274.841 234.843 274.94 234.338 274.934C233.289 274.922 232.282 274.513 231.521 273.79C230.76 273.067 230.3 272.083 230.234 271.035C230.203 270.532 230.276 270.028 230.447 269.555C230.619 269.081 230.887 268.648 231.233 268.282C231.58 267.917 231.998 267.626 232.461 267.429C232.925 267.232 233.424 267.132 233.928 267.136C234.978 267.149 235.984 267.557 236.745 268.28C237.506 269.003 237.966 269.987 238.032 271.035Z" fill="#263238"/>
<path d="M250.013 271.035C250.045 271.539 249.972 272.044 249.799 272.518C249.627 272.992 249.358 273.426 249.011 273.792C248.663 274.158 248.243 274.448 247.778 274.645C247.314 274.841 246.813 274.94 246.308 274.934C245.26 274.921 244.255 274.512 243.496 273.789C242.736 273.066 242.279 272.082 242.216 271.035C242.183 270.532 242.254 270.027 242.425 269.553C242.597 269.079 242.864 268.645 243.211 268.279C243.558 267.913 243.976 267.622 244.441 267.426C244.905 267.229 245.405 267.13 245.909 267.136C246.959 267.149 247.965 267.557 248.726 268.28C249.488 269.003 249.947 269.987 250.013 271.035V271.035Z" fill="#263238"/>
<path d="M379.62 138.647C379.905 139.08 380.053 139.308 380.236 139.616L380.749 140.459C381.079 141.029 381.376 141.599 381.661 142.158C382.231 143.298 382.801 144.438 383.257 145.578C384.212 147.842 385.034 150.16 385.719 152.521C387.099 157.183 388.008 161.972 388.432 166.816L388.512 167.717C388.522 167.899 388.522 168.082 388.512 168.264V168.868C388.531 169.661 388.485 170.454 388.375 171.239C388.157 172.695 387.774 174.122 387.235 175.492C386.234 177.938 384.907 180.239 383.291 182.332C380.276 186.192 376.698 189.578 372.677 192.375L369.531 188.693C372.394 185.459 374.93 181.95 377.101 178.216C378.077 176.522 378.843 174.715 379.381 172.835C379.598 172.039 379.724 171.221 379.757 170.396C379.792 170.043 379.792 169.688 379.757 169.336V169.096C379.768 168.99 379.768 168.883 379.757 168.777L379.62 167.979C378.887 163.73 377.851 159.54 376.519 155.439C375.858 153.398 375.049 151.426 374.239 149.5C373.84 148.531 373.384 147.584 372.928 146.672L372.221 145.327L371.868 144.7L371.572 144.199L379.62 138.647Z" fill="#803E3C"/>
<path d="M369.018 192.398L373.145 201.119L376.417 193.743C376.417 193.743 373.51 187.359 369.577 187.952L369.018 192.398Z" fill="#7F3E3B"/>
<path d="M376.097 201.552L379.381 196.171L376.417 193.743L373.145 201.119L376.097 201.552Z" fill="#7F3E3B"/>
<path d="M357.538 402.671C358.392 402.649 359.24 402.535 360.069 402.329C360.111 402.316 360.149 402.292 360.179 402.26C360.209 402.228 360.23 402.189 360.24 402.146C360.247 402.103 360.241 402.058 360.223 402.017C360.205 401.977 360.175 401.942 360.137 401.918C359.807 401.702 356.911 399.832 355.794 400.334C355.67 400.392 355.564 400.481 355.486 400.593C355.408 400.705 355.361 400.836 355.349 400.972C355.315 401.179 355.331 401.39 355.397 401.589C355.462 401.787 355.575 401.967 355.726 402.112C356.242 402.511 356.886 402.71 357.538 402.671V402.671ZM359.419 401.998C357.766 402.34 356.512 402.283 355.999 401.839C355.894 401.735 355.818 401.606 355.776 401.465C355.734 401.323 355.728 401.173 355.76 401.029C355.76 400.835 355.874 400.778 355.954 400.744C356.569 400.471 358.245 401.28 359.419 401.998V401.998Z" fill="#407BFF"/>
<path d="M360.012 402.329H360.126C360.16 402.307 360.189 402.276 360.208 402.24C360.228 402.205 360.239 402.165 360.24 402.124C360.24 402.01 360.24 399.262 359.191 398.339C359.062 398.223 358.91 398.137 358.745 398.086C358.58 398.034 358.405 398.02 358.234 398.042C358.054 398.044 357.88 398.107 357.741 398.221C357.602 398.335 357.506 398.493 357.47 398.669C357.253 399.752 358.986 401.804 359.898 402.329H360.012ZM358.382 398.464C358.474 398.462 358.566 398.477 358.652 398.511C358.738 398.544 358.817 398.594 358.883 398.658C359.485 399.545 359.796 400.596 359.773 401.668C358.861 400.938 357.778 399.388 357.914 398.738C357.914 398.635 357.994 398.498 358.279 398.464H358.382Z" fill="#407BFF"/>
<path d="M346.777 398.02C346.803 397.986 346.821 397.946 346.827 397.904C346.833 397.862 346.827 397.818 346.811 397.779C346.795 397.739 346.768 397.705 346.734 397.679C346.7 397.653 346.66 397.637 346.617 397.632C346.15 397.632 342.057 397.438 341.122 398.441V398.51C341.045 398.608 340.995 398.726 340.977 398.85C340.959 398.974 340.974 399.1 341.02 399.217C341.081 399.412 341.188 399.59 341.333 399.735C341.478 399.88 341.656 399.988 341.852 400.049C343.174 400.459 345.511 398.966 346.788 398.042L346.777 398.02ZM341.464 398.738C341.977 398.191 344.234 398.042 345.922 398.065C344.155 399.274 342.684 399.844 341.943 399.616C341.814 399.576 341.696 399.506 341.601 399.411C341.505 399.315 341.435 399.198 341.396 399.068C341.373 399.024 341.361 398.976 341.361 398.926C341.361 398.876 341.373 398.827 341.396 398.783L341.464 398.738Z" fill="#407BFF"/>
<path d="M346.777 398.02C346.794 397.984 346.803 397.945 346.803 397.906C346.803 397.866 346.794 397.827 346.777 397.792C346.72 397.7 345.443 395.512 343.938 395.056C343.722 394.992 343.495 394.974 343.272 395.001C343.048 395.029 342.833 395.102 342.638 395.215C342.091 395.534 342.057 395.911 342.125 396.15C342.422 397.21 345.329 398.145 346.583 398.134C346.622 398.133 346.661 398.122 346.695 398.102C346.729 398.082 346.757 398.054 346.777 398.02ZM342.684 395.74C342.748 395.677 342.821 395.623 342.901 395.58C343.041 395.49 343.2 395.433 343.365 395.411C343.531 395.389 343.699 395.404 343.858 395.455C344.85 395.717 345.773 396.994 346.195 397.621C344.839 397.472 342.775 396.64 342.604 396.002C342.59 395.953 342.59 395.902 342.604 395.853C342.618 395.805 342.646 395.761 342.684 395.728V395.74Z" fill="#407BFF"/>
<path d="M359.328 105.256C358.188 110.956 355.726 123.28 359.681 127.064C359.681 127.064 358.131 132.764 347.609 132.764C336.026 132.764 342.08 127.064 342.08 127.064C348.395 125.56 348.236 120.863 347.13 116.462L359.328 105.256Z" fill="#7F3E3B"/>
<path d="M340.039 91.8954C340.103 91.9058 340.169 91.9058 340.233 91.8954C340.287 91.8688 340.335 91.8316 340.375 91.7861C340.415 91.7407 340.445 91.6877 340.464 91.6305C340.483 91.5732 340.491 91.5127 340.486 91.4525C340.482 91.3923 340.466 91.3336 340.438 91.2798C340.132 90.6295 339.673 90.0623 339.102 89.6259C338.531 89.1895 337.863 88.8966 337.155 88.7718C337.036 88.7619 336.918 88.7976 336.825 88.8718C336.732 88.9459 336.67 89.0529 336.653 89.1708C336.641 89.2901 336.675 89.4096 336.75 89.5035C336.825 89.5974 336.933 89.6581 337.052 89.6724V89.6724C337.611 89.7797 338.137 90.0187 338.585 90.3697C339.033 90.7206 339.391 91.1733 339.629 91.6902C339.673 91.7576 339.734 91.8121 339.806 91.8482C339.878 91.8842 339.959 91.9005 340.039 91.8954Z" fill="#263238"/>
<path d="M336.585 96.9C335.688 98.5641 334.568 100.098 333.256 101.46C333.611 101.785 334.033 102.029 334.491 102.174C334.95 102.32 335.435 102.364 335.912 102.304L336.585 96.9Z" fill="#630F0F"/>
<path d="M337.44 95.6118C337.349 96.3756 336.859 96.9456 336.368 96.8886C335.878 96.8316 335.536 96.159 335.627 95.3952C335.719 94.6314 336.209 94.0614 336.767 94.1184C337.326 94.1754 337.52 94.848 337.44 95.6118Z" fill="#263238"/>
<path d="M336.916 94.1868L335.16 93.48C335.16 93.48 335.901 94.9848 336.916 94.1868Z" fill="#263238"/>
<path d="M356.843 395.854L347.54 398.02L341.886 376.633L351.188 374.467L356.843 395.854Z" fill="#7F3E3B"/>
<path d="M371.116 402.101H361.574L362.315 379.996H371.868L371.116 402.101Z" fill="#7F3E3B"/>
<path d="M360.81 400.995H371.537C371.723 400.993 371.904 401.06 372.044 401.181C372.185 401.303 372.276 401.472 372.301 401.656L373.521 410.138C373.545 410.352 373.524 410.569 373.458 410.775C373.392 410.981 373.283 411.17 373.139 411.33C372.994 411.491 372.818 411.619 372.62 411.706C372.423 411.793 372.209 411.838 371.993 411.836C368.254 411.779 366.453 411.551 361.733 411.551C358.826 411.551 354.586 411.859 350.584 411.859C346.583 411.859 346.355 407.892 348.031 407.539C355.509 405.92 356.695 403.708 359.214 401.588C359.659 401.208 360.225 400.998 360.81 400.995Z" fill="#263238"/>
<path d="M346.72 396.595L356.467 392.114C356.632 392.035 356.821 392.02 356.997 392.07C357.173 392.121 357.325 392.234 357.424 392.388L362.087 399.593C362.196 399.778 362.264 399.984 362.289 400.198C362.313 400.412 362.292 400.628 362.228 400.833C362.163 401.038 362.057 401.228 361.915 401.389C361.773 401.551 361.598 401.68 361.403 401.77C357.983 403.275 356.25 403.834 351.964 405.806C349.33 407.014 343.984 409.796 340.358 411.506C336.733 413.216 334.864 409.67 336.232 408.644C342.353 404.084 344.109 400.813 345.511 397.837C345.748 397.289 346.178 396.847 346.72 396.595V396.595Z" fill="#263238"/>
<path opacity="0.2" d="M341.886 376.633L344.918 388.102L354.107 385.491L351.2 374.467L341.886 376.633Z" fill="black"/>
<path opacity="0.2" d="M371.868 379.996H362.315L361.939 391.396H371.492L371.868 379.996Z" fill="black"/>
<path d="M376.2 129.23C380.167 130.108 384.408 144.37 384.408 144.37L373.19 156.305C373.19 156.305 363.877 142.899 365.78 137.974C367.707 132.833 371.469 128.204 376.2 129.23Z" fill="#263238"/>
<path opacity="0.4" d="M369.862 138.316C367.855 136.481 366.499 137.028 365.575 138.487C364.663 142.728 370.067 151.609 372.244 154.972C373.247 150.959 374.399 142.5 369.862 138.316Z" fill="black"/>
<path d="M325.937 129.515C325.937 129.515 321.377 131.111 330.497 187.142H369.257C368.608 171.365 368.585 161.629 376.097 129.23C370.666 128.11 365.161 127.386 359.624 127.064C353.765 126.642 347.882 126.642 342.023 127.064C334.51 127.76 325.937 129.515 325.937 129.515Z" fill="#263238"/>
<path opacity="0.4" d="M325.584 151.016C325.835 153.74 326.165 156.807 326.599 160.273C329.779 157.411 332.378 149.272 331.421 144.529C329.149 146.373 327.179 148.562 325.584 151.016Z" fill="black"/>
<path d="M329.734 142.5C327.642 147.764 325.287 152.92 322.677 157.947C320.097 163.156 317.044 168.117 313.557 172.767L312.827 173.668L312.463 174.112C312.337 174.26 312.235 174.397 312.041 174.602C311.355 175.351 310.59 176.024 309.761 176.609C308.294 177.624 306.69 178.422 304.996 178.98C302.041 179.924 298.974 180.468 295.876 180.599C290.073 180.83 284.264 180.312 278.593 179.06L279.22 174.272C281.842 174.272 284.59 174.272 287.2 174.055C289.822 173.926 292.434 173.637 295.021 173.189C297.423 172.814 299.773 172.156 302.02 171.228C302.928 170.84 303.776 170.326 304.54 169.7C304.831 169.456 305.095 169.181 305.326 168.88C305.326 168.88 305.463 168.697 305.554 168.572L305.816 168.196L306.352 167.443C309.213 163.025 311.761 158.412 313.979 153.638C316.259 148.793 318.539 143.765 320.625 138.818L329.734 142.5Z" fill="#803E3C"/>
<path d="M325.937 129.515C321.184 130.655 315.347 143.697 315.347 143.697L325.196 158.175C325.196 158.175 338.318 141.656 336.756 136.618C335.16 131.362 331.74 128.102 325.937 129.515Z" fill="#263238"/>
<path d="M281.956 175.001L273.737 171.205L272.916 179.379C272.916 179.379 279.756 181.397 283.176 179.379L281.956 175.001Z" fill="#7F3E3B"/>
<path d="M268.823 170.384L268.037 176.609L272.916 179.379L273.737 171.205L268.823 170.384Z" fill="#7F3E3B"/>
<path d="M363.455 96.1704C361.711 105.484 361.175 109.474 355.84 113.704C347.86 120.065 336.745 115.892 335.673 106.248C334.693 97.5612 337.702 83.79 347.358 81.168C349.485 80.5812 351.727 80.549 353.87 81.0746C356.013 81.6002 357.985 82.666 359.599 84.1704C361.213 85.6747 362.415 87.5675 363.09 89.6682C363.765 91.7689 363.891 94.0074 363.455 96.1704V96.1704Z" fill="#7F3E3B"/>
<path d="M342.992 98.1312C342.456 102.885 342.251 115.231 352.693 115.619C365.473 116.086 369.303 105.165 368.163 100.799C374.821 95.3838 375.778 86.07 368.3 78.945C360.821 71.82 344.36 75.7986 339.8 82.7412C334.02 91.3482 342.992 98.1312 342.992 98.1312Z" fill="#263238"/>
<path d="M355.794 81.7152C355.178 76.6992 355.657 73.245 360.354 73.245C365.051 73.245 371.458 74.9436 373.806 79.743C376.154 84.5424 376.348 92.055 369.793 91.2912C363.238 90.5274 356.535 87.7116 355.794 81.7152Z" fill="#407BFF"/>
<path d="M363.067 80.5068C361.927 74.5332 367.274 57.7068 380.258 56.5668C386.278 56.0538 389.059 62.529 385.958 63.6006C391.658 63.5322 395.306 71.0676 389.994 72.1962C394.189 74.8866 393.152 80.4042 387.167 83.1174C382.709 85.1694 364.606 88.7832 363.067 80.5068Z" fill="#263238"/>
<path d="M376.941 86.925C372.757 86.925 368.391 86.3094 365.678 84.4968C364.919 84.0395 364.28 83.408 363.815 82.6547C363.349 81.9013 363.069 81.0478 362.999 80.1648C362.995 80.0899 363.021 80.0164 363.069 79.9593C363.118 79.9022 363.186 79.8656 363.261 79.857C363.299 79.8523 363.337 79.8554 363.374 79.8663C363.41 79.8772 363.444 79.8955 363.473 79.9202C363.502 79.9449 363.525 79.9753 363.542 80.0096C363.558 80.0439 363.568 80.0812 363.569 80.1192C363.637 80.9161 363.893 81.6854 364.315 82.3649C364.737 83.0443 365.313 83.6146 365.997 84.0294C371.161 87.4494 383.097 86.3094 386.813 85.1694C390.028 84.1206 392.206 82.08 392.639 79.7316C392.774 78.8699 392.667 77.9875 392.331 77.1826C391.995 76.3776 391.443 75.6816 390.735 75.1716C390.708 75.1461 390.686 75.1151 390.671 75.0808C390.656 75.0465 390.649 75.0095 390.649 74.9721C390.649 74.9348 390.656 74.8978 390.671 74.8634C390.686 74.8291 390.708 74.7982 390.735 74.7726C390.788 74.7204 390.86 74.6912 390.934 74.6912C391.009 74.6912 391.081 74.7204 391.134 74.7726C391.93 75.3533 392.548 76.1437 392.921 77.0557C393.293 77.9676 393.405 78.9652 393.243 79.9368C392.776 82.5018 390.461 84.6906 387.041 85.8078C383.741 86.6397 380.343 87.0156 376.941 86.925V86.925Z" fill="#263238"/>
<path d="M340.085 96.9C339.023 98.3891 338.585 100.234 338.865 102.041C339.241 104.435 341.567 104.595 343.254 103.067C344.941 101.54 346.412 98.781 345.169 96.7974C344.893 96.3689 344.512 96.0183 344.062 95.7788C343.612 95.5393 343.108 95.419 342.598 95.4292C342.089 95.4395 341.59 95.5801 341.15 95.8375C340.71 96.095 340.343 96.4607 340.085 96.9Z" fill="#7F3E3B"/>
<path d="M340.735 187.142C340.735 187.142 346.275 252.681 352.032 289.617C356.672 319.451 360.343 389.185 360.343 389.185H373.361C373.361 389.185 377.99 321.537 375.641 292.034C369.679 217.364 382.983 211.276 369.292 187.154L340.735 187.142Z" fill="#407BFF"/>
<path opacity="0.4" d="M357.128 211.915C351.968 217.33 347.804 223.612 344.827 230.474C346.343 245.203 348.145 261.55 350.06 275.869C357.918 255.523 360.354 233.485 357.128 211.915V211.915Z" fill="black"/>
<path d="M331.626 186.732C331.626 186.732 319.599 258.313 317.707 290.575C322.426 320.408 341.738 383.473 341.738 383.473L353.582 379.175C353.582 379.175 347.027 310.411 339.902 291.589C355.942 237.587 367.73 223.93 364.298 187.142C356.079 187.142 331.626 186.732 331.626 186.732Z" fill="#407BFF"/>
<path d="M340.153 386.62L356.159 382.276L355.247 375.892L338.113 380.532L340.153 386.62Z" fill="#263238"/>
<path d="M358.553 389.447H375.14L376.006 383.633L358.462 383.04L358.553 389.447Z" fill="#263238"/>
<path d="M369.862 184.862L371.606 188.339C371.743 188.613 371.423 188.887 370.979 188.887H330.304C329.962 188.887 329.665 188.716 329.642 188.488L329.289 185.068C329.289 184.828 329.574 184.623 329.95 184.623H369.223C369.341 184.607 369.461 184.62 369.573 184.662C369.684 184.704 369.783 184.773 369.862 184.862V184.862Z" fill="#407BFF"/>
<path opacity="0.5" d="M369.862 184.862L371.606 188.339C371.743 188.613 371.423 188.887 370.979 188.887H330.304C329.962 188.887 329.665 188.716 329.642 188.488L329.289 185.068C329.289 184.828 329.574 184.623 329.95 184.623H369.223C369.341 184.607 369.461 184.62 369.573 184.662C369.684 184.704 369.783 184.773 369.862 184.862V184.862Z" fill="black"/>
<path d="M364.583 189.24H365.632C365.849 189.24 366.008 189.126 365.997 189.001L365.495 184.441C365.495 184.304 365.302 184.201 365.096 184.201H364.036C363.831 184.201 363.671 184.304 363.683 184.441L364.173 189.001C364.196 189.149 364.378 189.24 364.583 189.24Z" fill="#407BFF"/>
<path d="M350.47 156.043C350.344 156.041 350.222 155.999 350.122 155.924C350.022 155.848 349.948 155.742 349.912 155.621C346.195 141.873 338.512 130.541 334.784 128.831C334.494 128.654 334.146 128.596 333.815 128.672C333.746 128.708 333.67 128.73 333.593 128.736C333.515 128.742 333.437 128.732 333.364 128.707C333.29 128.681 333.222 128.641 333.165 128.589C333.108 128.536 333.061 128.473 333.029 128.402C332.997 128.331 332.98 128.254 332.979 128.176C332.978 128.098 332.993 128.021 333.022 127.949C333.052 127.877 333.096 127.812 333.152 127.758C333.208 127.704 333.275 127.662 333.347 127.634C333.659 127.52 333.992 127.475 334.323 127.503C334.653 127.53 334.974 127.63 335.263 127.794C339.207 129.664 347.005 140.836 350.903 154.892C353.696 154.892 358.006 154.516 359.054 154.424C360.354 152.874 369.907 140.927 366.339 127.851C366.318 127.779 366.312 127.704 366.321 127.63C366.33 127.555 366.354 127.484 366.391 127.419C366.429 127.354 366.478 127.297 366.538 127.252C366.598 127.207 366.666 127.174 366.738 127.156C366.883 127.117 367.038 127.137 367.168 127.212C367.298 127.287 367.393 127.41 367.433 127.555C371.412 142.101 359.875 155.222 359.75 155.348C359.705 155.403 359.65 155.449 359.587 155.482C359.525 155.515 359.456 155.536 359.385 155.542C359.328 155.542 353.639 156.043 350.47 156.043Z" fill="#407BFF"/>
<path d="M369.36 164.092C363.147 152.452 360.605 151.631 359.499 147.892C360.337 145.801 361.533 143.872 363.033 142.192C362.281 141.976 360.662 141.656 359.613 141.463C359.727 140.95 359.852 140.448 359.966 139.958C358.825 139.83 357.671 139.884 356.546 140.117V138.977C355.098 138.662 353.611 138.566 352.135 138.692C352.264 139.232 352.389 139.779 352.511 140.334C351.371 140.551 349.638 140.904 348.806 141.143C350.423 142.975 351.611 145.144 352.283 147.493C348.931 153.25 335.912 190.255 357.094 193.093C378.275 195.932 375.562 175.742 369.36 164.092Z" fill="#407BFF"/>
<path opacity="0.4" d="M369.36 164.092C363.147 152.452 360.605 151.631 359.499 147.892C360.337 145.801 361.533 143.872 363.033 142.192C362.281 141.976 360.662 141.656 359.613 141.463C359.727 140.95 359.852 140.448 359.966 139.958C358.825 139.83 357.671 139.884 356.546 140.117V138.977C355.098 138.662 353.611 138.566 352.135 138.692C352.264 139.232 352.389 139.779 352.511 140.334C351.371 140.551 349.638 140.904 348.806 141.143C350.423 142.975 351.611 145.144 352.283 147.493C348.931 153.25 335.912 190.255 357.094 193.093C378.275 195.932 375.562 175.742 369.36 164.092Z" fill="white"/>
<path d="M351.416 146.387C351.285 146.974 351.227 147.576 351.245 148.177C351.245 148.599 352.385 148.884 353.651 149.009C354.916 149.135 360.229 149.34 360.058 148.747C359.887 148.154 360.32 147.345 360.343 146.843C360.365 146.342 358.234 146.319 356.444 146.387C354.654 146.456 351.77 145.749 351.416 146.387Z" fill="#407BFF"/>
<path d="M339.093 189.24H340.142C340.347 189.24 340.507 189.126 340.495 189.001L340.005 184.441C340.005 184.304 339.811 184.201 339.595 184.201H338.58C338.375 184.201 338.215 184.304 338.227 184.441L338.717 189.001C338.694 189.149 338.876 189.24 339.093 189.24Z" fill="#407BFF"/>
</svg>
