<svg width="100%" height="100%" viewBox="0 0 570 425" fill="none" xmlns="http://www.w3.org/2000/svg">
<path d="M570 373.237H0V373.522H570V373.237Z" fill="#EBEBEB"/>
<path d="M359.864 381.001H330.839V381.286H359.864V381.001Z" fill="#EBEBEB"/>
<path d="M519.202 387.168H450.425V387.453H519.202V387.168Z" fill="#EBEBEB"/>
<path d="M324.661 381.138H253.604V381.423H324.661V381.138Z" fill="#EBEBEB"/>
<path d="M207.526 389.665H192.66V389.95H207.526V389.665Z" fill="#EBEBEB"/>
<path d="M289.663 389.665H221.969V389.95H289.663V389.665Z" fill="#EBEBEB"/>
<path d="M103.637 384.854H59.8044V385.139H103.637V384.854Z" fill="#EBEBEB"/>
<path d="M270.18 322.393H50.0574C48.333 322.39 46.6802 321.703 45.4619 320.483C44.2436 319.262 43.5594 317.608 43.5594 315.884V6.45242C43.5744 4.73789 44.2653 3.09851 45.4819 1.89038C46.6986 0.682245 48.3428 0.00293709 50.0574 0H270.18C271.906 0 273.562 0.685813 274.783 1.90657C276.004 3.12732 276.689 4.78302 276.689 6.50942V315.884C276.689 317.61 276.004 319.266 274.783 320.487C273.562 321.707 271.906 322.393 270.18 322.393V322.393ZM50.0574 0.228002C48.4086 0.231022 46.8283 0.888138 45.6634 2.05512C44.4986 3.2221 43.8444 4.80358 43.8444 6.45242V315.884C43.8444 317.533 44.4986 319.114 45.6634 320.281C46.8283 321.448 48.4086 322.105 50.0574 322.108H270.18C271.83 322.105 273.411 321.448 274.578 320.282C275.745 319.115 276.401 317.534 276.404 315.884V6.45242C276.401 4.80253 275.745 3.22107 274.578 2.05442C273.411 0.887767 271.83 0.231015 270.18 0.228002H50.0574Z" fill="#EBEBEB"/>
<path d="M516.773 322.393H296.639C294.914 322.39 293.26 321.703 292.04 320.483C290.82 319.263 290.133 317.609 290.13 315.884V6.45242C290.148 4.73685 290.841 3.09748 292.06 1.88966C293.278 0.681846 294.924 0.00290506 296.639 0H516.773C518.486 0.00593315 520.127 0.686567 521.342 1.89438C522.556 3.10219 523.245 4.73986 523.26 6.45242V315.884C523.26 317.606 522.577 319.259 521.362 320.479C520.146 321.699 518.496 322.387 516.773 322.393V322.393ZM296.639 0.228002C294.99 0.231015 293.408 0.887767 292.241 2.05442C291.075 3.22107 290.418 4.80253 290.415 6.45242V315.884C290.418 317.534 291.075 319.115 292.241 320.282C293.408 321.448 294.99 322.105 296.639 322.108H516.773C518.423 322.105 520.005 321.448 521.171 320.282C522.338 319.115 522.995 317.534 522.998 315.884V6.45242C522.995 4.80253 522.338 3.22107 521.171 2.05442C520.005 0.887767 518.423 0.231015 516.773 0.228002H296.639Z" fill="#EBEBEB"/>
<path d="M223.394 274.365H147.698L143.104 221.355H218.8L223.394 274.365Z" fill="#E6E6E6"/>
<path d="M227.316 274.365H151.62L147.026 221.355H222.722L227.316 274.365Z" fill="#F0F0F0"/>
<path d="M161.971 262.976L159.44 232.732H212.371L214.901 262.976H161.971Z" fill="white"/>
<path d="M240.415 274.365H231.534V373.237H240.415V274.365Z" fill="#E6E6E6"/>
<path d="M243.219 274.365H237.052V373.237H243.219V274.365Z" fill="#F0F0F0"/>
<path d="M157.252 285.275H243.219V274.365H157.252V285.275Z" fill="#F0F0F0"/>
<path d="M160.284 285.275H151.403V373.237H160.284V285.275Z" fill="#E6E6E6"/>
<path d="M163.088 285.275H156.921V373.237H163.088V285.275Z" fill="#F0F0F0"/>
<path d="M97.071 285.275H88.1904V373.237H97.071V285.275Z" fill="#E6E6E6"/>
<path d="M99.8754 285.275H93.708V373.237H99.8754V285.275Z" fill="#F0F0F0"/>
<path d="M184.213 285.275H175.332V373.237H184.213V285.275Z" fill="#E6E6E6"/>
<path d="M187.006 285.275H180.838V373.237H187.006V285.275Z" fill="#F0F0F0"/>
<path d="M157.252 274.365H88.1904V285.275H157.252V274.365Z" fill="#E6E6E6"/>
<path d="M414.778 27.8275H147.641V176.552H414.778V27.8275Z" fill="#E0E0E0"/>
<path d="M429.449 27.8275H148.987V176.552H429.449V27.8275Z" fill="#F5F5F5"/>
<path d="M424.867 171.97V32.4103L153.569 32.4103V171.97L424.867 171.97Z" fill="white"/>
<path d="M263.42 171.97L314.64 32.4103H230.109L178.889 171.97H263.42Z" fill="#F5F5F5"/>
<path d="M344.782 171.97L396.002 32.4103H332.23L281.01 171.97H344.782Z" fill="#F5F5F5"/>
<path d="M499.445 231.193H476.737V373.237H499.445V231.193Z" fill="#E6E6E6"/>
<path d="M493.472 373.237H499.445V362.305H487.213L493.472 373.237Z" fill="#FAFAFA"/>
<path d="M290.073 231.193H267.364V373.237H290.073V231.193Z" fill="#E6E6E6"/>
<path d="M499.445 231.193H284.863V370.285H499.445V231.193Z" fill="#FAFAFA"/>
<path d="M495.387 276.075H288.933V236.79H495.387V276.075ZM290.073 274.935H494.247V237.93H290.073V274.935Z" fill="#E6E6E6"/>
<path d="M459.044 255.863H329.278C323.258 255.863 317.456 251.006 313.318 242.524L312.93 241.715H475.38L474.992 242.524C470.82 251.006 465.12 255.863 459.044 255.863ZM314.8 242.821C318.653 250.379 323.92 254.688 329.278 254.688H459.044C464.425 254.688 469.669 250.379 473.522 242.821H314.8Z" fill="#E6E6E6"/>
<path d="M290.837 373.237H284.863V362.305H297.095L290.837 373.237Z" fill="#FAFAFA"/>
<path d="M495.387 320.341H288.933V281.102H495.387V320.341ZM290.073 319.201H494.247V282.242H290.073V319.201Z" fill="#E6E6E6"/>
<path d="M459.044 300.175H329.278C323.258 300.175 317.456 295.307 313.318 286.837L312.93 286.016H475.38L474.992 286.837C470.82 295.261 465.12 300.175 459.044 300.175ZM314.8 287.156C318.653 294.714 323.92 299.035 329.278 299.035H459.044C464.425 299.035 469.669 294.714 473.522 287.156H314.8Z" fill="#E6E6E6"/>
<path d="M495.387 364.687H288.933V325.403H495.387V364.687ZM290.073 363.547H494.247V326.543H290.073V363.547Z" fill="#E6E6E6"/>
<path d="M459.044 344.475H329.278C323.258 344.475 317.456 339.619 313.318 331.148L312.93 330.328H475.38L474.992 331.148C470.82 339.619 465.12 344.475 459.044 344.475ZM314.8 331.468C318.653 339.026 323.92 343.335 329.278 343.335H459.044C464.425 343.335 469.669 339.026 473.522 331.468H314.8Z" fill="#E6E6E6"/>
<path d="M137.917 249.98V252.739H136.162L134.702 274.365H113.225L111.777 252.739H110.01V249.98H137.917Z" fill="#E6E6E6"/>
<path d="M130.849 196.32C129.094 183.438 111.709 179.767 89.6496 179.288C68.6622 178.844 61.9362 171.422 61.9362 171.422C61.9362 171.422 62.0046 201.484 92.2488 212.383C120.965 222.711 132.616 209.225 130.849 196.32Z" fill="#E6E6E6"/>
<path d="M120.133 225.516C120.498 220.226 128.957 210.49 149.306 214.914C164.012 218.117 169.484 210.49 169.484 210.49C169.484 210.49 168.116 232.014 146 238.478C124.99 244.622 119.483 234.841 120.133 225.516Z" fill="#E6E6E6"/>
<path d="M124.773 258.097C124.888 258.098 125.001 258.074 125.105 258.027C125.21 257.98 125.303 257.91 125.377 257.823C126.848 256.079 125.639 251.907 123.975 246.127C121.832 238.717 119.164 229.483 121.421 222.791C122.673 219.256 124.134 215.8 125.799 212.44C128.991 205.691 131.75 199.9 129.447 193.767C129.411 193.669 129.356 193.579 129.285 193.503C129.215 193.427 129.13 193.366 129.035 193.322C128.94 193.279 128.838 193.255 128.734 193.252C128.63 193.249 128.527 193.266 128.43 193.303C128.332 193.34 128.243 193.396 128.168 193.467C128.092 193.539 128.032 193.624 127.99 193.72C127.948 193.815 127.925 193.917 127.922 194.021C127.92 194.125 127.939 194.228 127.976 194.325C130.04 199.786 127.543 205.075 124.374 211.779C122.688 215.192 121.204 218.702 119.928 222.289C117.523 229.449 120.259 238.945 122.459 246.56C123.758 251.12 125.104 255.68 124.18 256.82C124.107 256.899 124.051 256.992 124.015 257.094C123.98 257.195 123.966 257.303 123.975 257.41C123.983 257.517 124.014 257.622 124.065 257.716C124.116 257.811 124.187 257.894 124.271 257.96C124.417 258.064 124.595 258.112 124.773 258.097V258.097Z" fill="#E6E6E6"/>
<path d="M285 424.72C407.074 424.72 506.035 418.942 506.035 411.815C506.035 404.688 407.074 398.91 285 398.91C162.926 398.91 63.9654 404.688 63.9654 411.815C63.9654 418.942 162.926 424.72 285 424.72Z" fill="#F5F5F5"/>
<path d="M284.954 348.898H123.074L114.217 88.5555H276.097L284.954 348.898Z" fill="#0366D6"/>
<path d="M293.037 340.816H131.157L122.288 80.4729H284.168L293.037 340.816Z" fill="#0366D6"/>
<path opacity="0.3" d="M293.037 340.816H131.157L122.288 80.4729H284.168L293.037 340.816Z" fill="white"/>
<path d="M238.799 187.604C256.132 169.972 255.394 141.141 237.152 123.208C218.909 105.274 190.07 105.03 172.737 122.662C155.404 140.294 156.142 169.125 174.384 187.058C192.627 204.991 221.466 205.235 238.799 187.604Z" fill="#0366D6"/>
<path d="M243.356 155.143C243.589 161.347 242.235 167.507 239.423 173.041C236.387 179.005 231.75 184.006 226.031 187.481C220.313 190.957 213.739 192.77 207.047 192.718C200.198 192.681 193.479 190.843 187.564 187.39C181.649 183.936 176.747 178.988 173.348 173.041C170.18 167.592 168.409 161.443 168.196 155.143C167.985 150.258 168.77 145.382 170.503 140.81C172.236 136.238 174.88 132.066 178.275 128.547C181.67 125.028 185.744 122.237 190.251 120.342C194.759 118.447 199.604 117.488 204.493 117.523C214.565 117.594 224.223 121.543 231.46 128.549C238.697 135.554 242.957 145.079 243.356 155.143V155.143Z" fill="white"/>
<path opacity="0.6" d="M239.4 173.041C236.365 179.005 231.727 184.006 226.009 187.481C220.29 190.957 213.716 192.77 207.024 192.718C200.175 192.681 193.456 190.843 187.541 187.39C181.627 183.936 176.724 178.988 173.326 173.041C182.967 166.468 194.375 162.974 206.044 163.021C217.9 163.046 229.492 166.529 239.4 173.041Z" fill="#0366D6"/>
<path opacity="0.6" d="M217.48 154.206C223.853 147.722 223.582 137.121 216.874 130.527C210.166 123.933 199.562 123.843 193.189 130.326C186.815 136.81 187.086 147.411 193.794 154.005C200.502 160.599 211.107 160.689 217.48 154.206Z" fill="#0366D6"/>
<path d="M260.513 246.537H157.252L156.556 226.017H259.817L260.513 246.537Z" fill="white"/>
<path d="M261.767 283.211H158.494L157.799 262.691H261.071L261.767 283.211Z" fill="white"/>
<path d="M221.912 265.518L197.026 268.938C196.789 268.966 196.559 269.041 196.353 269.161C196.146 269.281 195.966 269.443 195.825 269.635C195.684 269.828 195.584 270.048 195.532 270.281C195.479 270.514 195.476 270.756 195.521 270.99L198.793 287.669C198.9 288.158 199.187 288.59 199.596 288.879C200.005 289.168 200.508 289.293 201.005 289.231L225.891 285.81C226.128 285.781 226.356 285.702 226.562 285.581C226.767 285.459 226.945 285.296 227.085 285.103C227.225 284.909 227.324 284.689 227.376 284.456C227.427 284.223 227.43 283.981 227.384 283.747L224.124 267.069C224.017 266.58 223.73 266.15 223.32 265.862C222.911 265.575 222.408 265.453 221.912 265.518V265.518ZM214.765 282.413L210.205 283.018L209.76 277.637C209.29 277.434 208.876 277.12 208.553 276.723C208.229 276.327 208.006 275.858 207.902 275.357C207.818 274.968 207.817 274.567 207.898 274.178C207.979 273.789 208.141 273.422 208.373 273.099C208.605 272.777 208.902 272.507 209.245 272.307C209.588 272.106 209.969 271.98 210.364 271.937C211.174 271.832 211.993 272.036 212.66 272.507C213.327 272.977 213.793 273.681 213.967 274.479C214.065 274.961 214.035 275.46 213.879 275.927C213.723 276.393 213.446 276.81 213.077 277.135L214.765 282.413Z" fill="#0366D6"/>
<path d="M219.45 264.618C219.01 264.674 218.565 264.563 218.202 264.308C217.84 264.053 217.585 263.671 217.489 263.238L217.17 261.608C216.714 259.383 215.468 257.4 213.66 256.024C211.853 254.649 209.609 253.976 207.343 254.13C206.2 254.195 205.084 254.505 204.071 255.04C203.059 255.575 202.173 256.321 201.474 257.228C200.776 258.136 200.281 259.183 200.023 260.299C199.765 261.414 199.75 262.572 199.979 263.694L200.344 265.575C200.386 265.784 200.385 265.999 200.339 266.207C200.294 266.414 200.205 266.61 200.08 266.782C199.954 266.954 199.794 267.097 199.61 267.204C199.426 267.31 199.221 267.377 199.01 267.399V267.399C198.569 267.461 198.121 267.353 197.757 267.096C197.393 266.84 197.14 266.456 197.049 266.02L196.741 264.435C196.428 262.954 196.418 261.425 196.711 259.94C197.004 258.455 197.594 257.045 198.446 255.794C199.298 254.542 200.394 253.476 201.668 252.659C202.942 251.843 204.369 251.292 205.861 251.04C209.098 250.497 212.419 251.22 215.136 253.061C217.853 254.901 219.757 257.717 220.453 260.924L220.818 262.794C220.861 263.005 220.858 263.222 220.811 263.432C220.763 263.642 220.672 263.84 220.543 264.012C220.414 264.184 220.249 264.327 220.061 264.432C219.873 264.536 219.665 264.6 219.45 264.618V264.618Z" fill="#0366D6"/>
<path d="M244.724 311.951H177.498L177.053 298.59H244.268L244.724 311.951Z" fill="#0366D6"/>
<path d="M212.291 236.277C212.311 236.765 212.232 237.251 212.058 237.707C211.885 238.163 211.621 238.579 211.282 238.929C210.943 239.28 210.536 239.558 210.086 239.747C209.637 239.936 209.153 240.031 208.666 240.028C207.66 240.02 206.697 239.627 205.973 238.929C205.25 238.231 204.822 237.282 204.778 236.277C204.758 235.79 204.837 235.304 205.011 234.848C205.184 234.392 205.448 233.976 205.787 233.625C206.126 233.275 206.533 232.996 206.983 232.808C207.432 232.619 207.916 232.523 208.403 232.527C209.409 232.532 210.375 232.924 211.099 233.623C211.823 234.321 212.25 235.272 212.291 236.277V236.277Z" fill="#263238"/>
<path d="M196.08 236.277C196.102 236.765 196.024 237.252 195.851 237.709C195.678 238.165 195.414 238.582 195.075 238.933C194.735 239.284 194.328 239.562 193.877 239.75C193.427 239.939 192.943 240.033 192.455 240.028C191.451 240.02 190.488 239.626 189.767 238.928C189.045 238.23 188.62 237.281 188.579 236.277C188.559 235.79 188.638 235.304 188.811 234.848C188.985 234.392 189.249 233.976 189.588 233.625C189.927 233.275 190.333 232.996 190.783 232.808C191.233 232.619 191.716 232.523 192.204 232.527C193.209 232.532 194.173 232.925 194.895 233.624C195.617 234.322 196.042 235.273 196.08 236.277V236.277Z" fill="#263238"/>
<path d="M179.972 236.277C179.992 236.765 179.913 237.251 179.739 237.707C179.566 238.163 179.302 238.579 178.963 238.929C178.624 239.28 178.217 239.558 177.767 239.747C177.318 239.936 176.834 240.031 176.347 240.028C175.342 240.023 174.378 239.63 173.655 238.931C172.933 238.232 172.509 237.282 172.471 236.277C172.451 235.79 172.53 235.304 172.703 234.848C172.877 234.392 173.141 233.976 173.48 233.625C173.819 233.275 174.225 232.996 174.675 232.808C175.125 232.619 175.608 232.523 176.096 232.527C177.101 232.532 178.065 232.925 178.787 233.624C179.509 234.322 179.934 235.273 179.972 236.277V236.277Z" fill="#263238"/>
<path d="M228.445 236.277C228.465 236.765 228.386 237.251 228.212 237.707C228.039 238.163 227.774 238.579 227.435 238.929C227.096 239.28 226.69 239.558 226.24 239.747C225.79 239.936 225.307 240.031 224.819 240.028C223.814 240.023 222.85 239.63 222.128 238.931C221.406 238.232 220.982 237.281 220.943 236.277C220.926 235.791 221.008 235.307 221.184 234.854C221.36 234.4 221.625 233.988 221.966 233.64C222.306 233.293 222.713 233.018 223.162 232.832C223.611 232.647 224.094 232.554 224.58 232.561C225.577 232.569 226.534 232.958 227.252 233.649C227.971 234.341 228.398 235.281 228.445 236.277V236.277Z" fill="#263238"/>
<path d="M244.598 236.277C244.62 236.765 244.542 237.252 244.369 237.709C244.196 238.165 243.932 238.582 243.593 238.933C243.254 239.284 242.846 239.562 242.396 239.75C241.945 239.939 241.461 240.033 240.973 240.028C239.969 240.02 239.007 239.626 238.285 238.928C237.563 238.23 237.138 237.281 237.097 236.277C237.077 235.79 237.156 235.304 237.33 234.848C237.503 234.392 237.767 233.976 238.106 233.625C238.445 233.275 238.852 232.996 239.302 232.808C239.751 232.619 240.235 232.523 240.722 232.527C241.727 232.532 242.691 232.925 243.414 233.624C244.136 234.322 244.56 235.273 244.598 236.277V236.277Z" fill="#263238"/>
<path d="M380.657 135.98C382.174 138.419 383.439 140.745 384.739 143.173C386.038 145.601 387.212 148.041 388.364 150.538C390.713 155.593 392.657 160.827 394.178 166.19C394.383 166.862 394.531 167.581 394.702 168.276L394.953 169.336L395.078 169.861L395.227 170.727C395.484 172.693 395.364 174.689 394.873 176.609C394.086 179.591 392.889 182.45 391.316 185.103C388.503 189.923 385.103 194.377 381.193 198.361L376.394 194.736C378.803 190.307 380.946 185.739 382.812 181.056C383.643 178.992 384.229 176.838 384.556 174.637C384.661 173.965 384.63 173.279 384.465 172.619L384.009 171.229C383.827 170.659 383.656 170.089 383.439 169.507C381.705 164.804 379.699 160.206 377.431 155.736C375.151 151.176 372.7 146.616 370.249 142.261L380.657 135.98Z" fill="#FF8B7B"/>
<path d="M377.614 193.151L372.37 195.921L378.389 202.966C378.389 202.966 382.151 200.424 382.322 196.548L377.614 193.151Z" fill="#FF8B7B"/>
<path d="M365.336 200.265L371.777 205.383L378.389 202.966L372.37 195.921L365.336 200.265Z" fill="#FF8B7B"/>
<path d="M343.311 98.6787C343.186 99.3171 342.741 99.7618 342.331 99.682C341.92 99.6022 341.681 99.0094 341.806 98.3824C341.932 97.7553 342.376 97.2423 342.798 97.3791C343.22 97.5159 343.436 98.0403 343.311 98.6787Z" fill="#263238"/>
<path d="M342.798 99.7732C341.65 101.559 340.261 103.178 338.671 104.584C339.047 104.973 339.502 105.277 340.006 105.473C340.509 105.67 341.05 105.756 341.59 105.724L342.798 99.7732Z" fill="#FF5652"/>
<path d="M340.746 122.14V114.662L350.641 115.802C350.641 115.802 350.482 122.231 344.941 124.124L340.746 122.14Z" fill="#FF8B7B"/>
<path d="M343.596 109.281L350.561 111.287L350.687 115.859L340.792 114.662L343.596 109.281Z" fill="#FF8B7B"/>
<path opacity="0.2" d="M350.561 111.287L343.596 109.281L342.239 111.88C342.313 113.928 342.953 115.916 344.088 117.622C345.223 119.328 346.809 120.687 348.669 121.547C349.866 119.876 350.565 117.9 350.687 115.847L350.561 111.287Z" fill="black"/>
<path d="M346.343 95.6349C346.417 95.633 346.488 95.6104 346.548 95.5698C346.609 95.5292 346.657 95.4722 346.687 95.4055C346.717 95.3387 346.727 95.2649 346.717 95.1926C346.706 95.1202 346.676 95.0522 346.628 94.9965C346.228 94.5443 345.725 94.1945 345.162 93.9764C344.599 93.7582 343.991 93.678 343.391 93.7425C343.293 93.7593 343.205 93.8143 343.147 93.8955C343.09 93.9767 343.067 94.0775 343.083 94.1757C343.1 94.2747 343.154 94.3632 343.235 94.4228C343.316 94.4823 343.417 94.5082 343.516 94.4949C343.992 94.4482 344.472 94.516 344.916 94.6925C345.36 94.869 345.756 95.1491 346.07 95.5095C346.105 95.5476 346.147 95.5783 346.194 95.5999C346.241 95.6214 346.292 95.6333 346.343 95.6349Z" fill="#263238"/>
<path d="M360.913 110.216C359.773 116.087 359.066 124.215 363.193 128.125C363.193 128.125 361.597 134.076 350.653 134.076C338.671 134.076 344.896 128.855 344.896 128.855C349.877 127.304 349.832 121.638 348.692 117.078L360.913 110.216Z" fill="#FF8B7B"/>
<path d="M365.416 132.047C366.487 130.542 366.442 125.765 365.302 124.922C363.466 123.565 355.589 123.246 344.998 125.685C346.138 130.314 343.687 132.731 343.687 132.731L365.416 132.047Z" fill="#0366D6"/>
<path d="M401.052 402.695C400.727 402.81 400.382 402.858 400.037 402.839C399.693 402.819 399.356 402.732 399.046 402.581C398.928 402.472 398.847 402.329 398.815 402.171C398.782 402.014 398.799 401.85 398.863 401.703C398.899 401.58 398.962 401.466 399.046 401.37C399.131 401.273 399.236 401.196 399.353 401.145C400.436 400.62 402.922 401.635 403.036 401.681C403.07 401.694 403.099 401.718 403.119 401.748C403.139 401.779 403.15 401.815 403.15 401.852C403.149 401.888 403.14 401.924 403.122 401.956C403.104 401.988 403.078 402.015 403.047 402.034C402.404 402.316 401.736 402.538 401.052 402.695V402.695ZM399.741 401.407C399.666 401.425 399.593 401.451 399.524 401.487C399.453 401.513 399.389 401.555 399.338 401.611C399.286 401.666 399.249 401.733 399.228 401.806C399.125 402.148 399.228 402.262 399.296 402.296C399.73 402.661 401.326 402.296 402.454 401.874C401.596 401.519 400.669 401.359 399.741 401.407V401.407Z" fill="#0366D6"/>
<path d="M403.001 402.045H402.91C401.998 401.783 400.06 400.404 400.037 399.503C400.037 399.36 400.085 399.221 400.174 399.109C400.263 398.997 400.388 398.919 400.528 398.887C400.663 398.837 400.807 398.817 400.951 398.829C401.095 398.84 401.235 398.884 401.36 398.956C402.431 399.503 403.115 401.715 403.138 401.817C403.154 401.845 403.163 401.876 403.163 401.908C403.163 401.94 403.154 401.972 403.138 402C403.121 402.017 403.099 402.031 403.075 402.039C403.051 402.047 403.026 402.049 403.001 402.045V402.045ZM400.721 399.207H400.63C400.402 399.286 400.402 399.4 400.402 399.457C400.402 399.993 401.702 401.076 402.682 401.509C402.443 400.871 401.918 399.606 401.223 399.229C401.069 399.159 400.893 399.151 400.733 399.207H400.721Z" fill="#0366D6"/>
<path d="M341.84 404.04C340.814 404.04 339.823 403.892 339.492 403.436C339.406 403.315 339.359 403.169 339.359 403.02C339.359 402.871 339.406 402.725 339.492 402.604C339.557 402.492 339.644 402.396 339.748 402.319C339.852 402.243 339.97 402.188 340.096 402.159C341.43 401.794 344.234 403.39 344.348 403.459C344.383 403.476 344.411 403.504 344.428 403.54C344.445 403.575 344.449 403.615 344.44 403.653C344.435 403.692 344.419 403.728 344.392 403.757C344.365 403.786 344.33 403.805 344.291 403.812C343.483 403.961 342.662 404.037 341.84 404.04ZM340.575 402.478C340.454 402.459 340.331 402.459 340.21 402.478C340.133 402.494 340.06 402.526 339.995 402.571C339.93 402.616 339.876 402.674 339.834 402.741C339.697 402.98 339.754 403.094 339.834 403.162C340.21 403.687 342.228 403.698 343.721 403.482C342.746 402.949 341.678 402.608 340.575 402.478V402.478Z" fill="#0366D6"/>
<path d="M344.28 403.812H344.2C343.231 403.379 341.316 401.646 341.464 400.734C341.464 400.518 341.647 400.255 342.171 400.21C342.358 400.188 342.548 400.205 342.729 400.26C342.909 400.315 343.076 400.406 343.22 400.529C343.95 401.403 344.389 402.483 344.474 403.618C344.473 403.651 344.466 403.683 344.452 403.713C344.439 403.742 344.419 403.768 344.394 403.79C344.359 403.807 344.319 403.815 344.28 403.812ZM342.319 400.563H342.205C341.863 400.563 341.84 400.723 341.84 400.768C341.749 401.316 343.049 402.684 344.041 403.276C343.953 402.362 343.583 401.497 342.98 400.803C342.793 400.643 342.554 400.558 342.308 400.563H342.319Z" fill="#0366D6"/>
<path d="M353.081 403.63H345.067L344.269 385.059H352.283L353.081 403.63Z" fill="#FF8B7B"/>
<path d="M411.939 399.913L404.107 401.612L396.23 384.318L404.073 382.62L411.939 399.913Z" fill="#FF8B7B"/>
<path d="M403.343 400.826L412.156 398.922C412.31 398.889 412.47 398.91 412.611 398.98C412.752 399.05 412.865 399.166 412.931 399.309L415.986 405.944C416.067 406.105 416.109 406.282 416.109 406.462C416.108 406.643 416.065 406.82 415.983 406.98C415.901 407.14 415.781 407.279 415.635 407.384C415.489 407.489 415.32 407.558 415.142 407.586C412.064 408.19 410.525 408.338 406.661 409.17C404.278 409.695 398.897 411.006 395.603 411.713C392.308 412.419 391.18 409.262 392.468 408.68C398.225 406.047 400.619 403.733 402.181 401.578C402.463 401.193 402.877 400.926 403.343 400.826V400.826Z" fill="#263238"/>
<path d="M345.124 402.695H353.879C354.038 402.696 354.192 402.751 354.316 402.85C354.44 402.949 354.527 403.088 354.563 403.242L356.147 410.367C356.194 410.54 356.199 410.72 356.163 410.895C356.127 411.07 356.051 411.233 355.94 411.373C355.829 411.513 355.687 411.625 355.525 411.699C355.363 411.774 355.186 411.81 355.007 411.804C351.85 411.747 347.29 411.564 343.322 411.564C338.671 411.564 334.67 411.815 329.221 411.815C325.926 411.815 325.014 408.486 326.393 408.179C332.663 406.811 337.793 406.662 343.208 403.322C343.777 402.941 344.44 402.724 345.124 402.695V402.695Z" fill="#263238"/>
<path d="M377.534 129.96C385.046 131.682 391.214 150.868 391.214 150.868L376.2 162.348C372.303 158.181 369.553 153.075 368.22 147.528C365.564 137.473 369.85 128.182 377.534 129.96Z" fill="#0366D6"/>
<path opacity="0.4" d="M377.534 129.96C385.046 131.682 391.214 150.868 391.214 150.868L376.2 162.348C372.303 158.181 369.553 153.075 368.22 147.528C365.564 137.473 369.85 128.182 377.534 129.96Z" fill="black"/>
<path d="M338.01 152.84C336.14 154.858 334.271 156.659 332.31 158.54C331.341 159.452 330.361 160.364 329.357 161.242L327.841 162.576L327.465 162.907L326.815 163.431C326.146 163.965 325.406 164.403 324.615 164.731C323.735 165.104 322.789 165.298 321.833 165.301C321.017 165.304 320.206 165.161 319.439 164.879C318.589 164.555 317.814 164.063 317.159 163.431C316.324 162.615 315.712 161.598 315.381 160.478C315.208 159.926 315.097 159.357 315.05 158.78C314.991 158.105 314.991 157.426 315.05 156.751C315.107 156.203 315.176 155.725 315.267 155.28C315.579 153.726 316.021 152.2 316.589 150.72C317.102 149.313 317.692 147.935 318.356 146.593C319.086 145.145 319.781 144.085 320.477 142.877C323.301 138.25 326.525 133.878 330.11 129.812C333.659 125.77 337.57 122.061 341.795 118.731L345.99 123.052C343.049 126.996 340.153 131.226 337.474 135.387C334.808 139.524 332.372 143.806 330.178 148.212C329.688 149.284 329.038 150.492 328.73 151.358C328.323 152.365 327.969 153.392 327.67 154.436C327.383 155.377 327.166 156.337 327.02 157.309C327.013 157.461 327.013 157.613 327.02 157.765C327.02 157.856 327.02 157.902 327.02 157.663C327.002 157.407 326.952 157.154 326.872 156.91C326.626 156.102 326.174 155.371 325.561 154.79C325.016 154.289 324.377 153.901 323.68 153.65C323.068 153.418 322.419 153.298 321.765 153.296C321.136 153.289 320.511 153.409 319.93 153.65C319.733 153.73 319.542 153.825 319.36 153.935L319.793 153.536L321.172 152.282L323.897 149.728C325.698 148.03 327.511 146.217 329.221 144.53L338.01 152.84Z" fill="#FF8B7B"/>
<path opacity="0.2" d="M371.093 144.051C375.174 148.087 376.508 155.451 376.793 161.835L376.132 162.348C372.235 158.181 369.485 153.075 368.152 147.528C368.003 146.935 367.867 146.388 367.764 145.738L371.093 144.051Z" fill="black"/>
<path d="M330.041 137.941C328.4 146.605 327.374 164.4 332.128 199.626H375.06C375.356 193.048 371.218 160.923 377.568 129.903C372.824 128.992 368.026 128.387 363.204 128.091C357.129 127.742 351.039 127.742 344.964 128.091C342.958 128.273 340.974 128.57 339.264 128.877C336.99 129.276 334.89 130.357 333.243 131.975C331.597 133.593 330.48 135.674 330.041 137.941Z" fill="#0366D6"/>
<path opacity="0.4" d="M330.041 137.941C328.4 146.605 327.374 164.4 332.128 199.626H375.06C375.356 193.048 371.218 160.923 377.568 129.903C372.824 128.992 368.026 128.387 363.204 128.091C357.129 127.742 351.039 127.742 344.964 128.091C342.958 128.273 340.974 128.57 339.264 128.877C336.99 129.276 334.89 130.357 333.243 131.975C331.597 133.593 330.48 135.674 330.041 137.941Z" fill="black"/>
<path opacity="0.2" d="M336.608 150.788L328.856 148.93C328.616 153.627 328.594 159.441 328.936 166.634C332.504 162.576 337.064 156.238 336.608 150.788Z" fill="black"/>
<path opacity="0.2" d="M344.269 385.059L344.679 394.635H352.705L352.294 385.059H344.269Z" fill="black"/>
<path opacity="0.2" d="M404.073 382.62L396.23 384.318L400.288 393.233L408.131 391.534L404.073 382.62Z" fill="black"/>
<path d="M364.72 101.643C362.668 109.326 361.847 113.932 357.105 117.124C349.98 121.98 341.088 116.417 340.86 108.3C340.609 100.97 344.018 89.6271 352.26 88.0767C354.071 87.7368 355.939 87.8637 357.688 88.4455C359.437 89.0272 361.008 90.0447 362.255 91.4019C363.501 92.7592 364.382 94.4115 364.813 96.2032C365.245 97.9949 365.213 99.8669 364.72 101.643V101.643Z" fill="#FF8B7B"/>
<path d="M346.731 101.928C346.343 100.902 344.576 92.9559 346.241 90.8925C347.905 88.8291 366.886 90.3225 369.691 93.0813C374.353 97.6413 371.116 101.745 366.02 107.024C362.189 110.991 362.041 115.46 360.103 116.144C356.683 117.284 351.462 116.212 350.413 112.598C349.364 108.984 346.731 101.928 346.731 101.928Z" fill="#263238"/>
<path d="M367.388 84.0411C360.685 81.1911 348.11 84.3489 341.316 82.7073C341.229 85.2338 342.06 87.7061 343.655 89.6676C345.25 91.629 347.5 92.9469 349.991 93.3778C355.628 94.4519 361.354 94.9825 367.091 94.9624C374.547 94.6204 373.088 86.4693 367.388 84.0411Z" fill="#263238"/>
<path d="M368.437 93.3207C370.885 93.5617 373.351 93.0906 375.539 91.9641C376.793 94.9965 369.896 95.8287 368.437 93.3207Z" fill="#263238"/>
<path d="M350.379 102.247C350.225 104.224 349.424 106.095 348.099 107.571C346.343 109.497 344.519 108.289 344.212 105.952C343.938 103.832 344.508 100.252 346.651 99.226C348.794 98.2 350.527 99.8644 350.379 102.247Z" fill="#FF8B7B"/>
<path d="M347.347 199.66C347.347 199.66 356.467 260.936 361.448 283.895C366.909 309.032 396.253 392.196 396.253 392.196L410.605 389.083C410.605 389.083 390.085 321.299 385.525 286.152C381.991 259.157 375.049 199.638 375.049 199.638L347.347 199.66Z" fill="#0366D6"/>
<path d="M392.81 387.419C392.753 387.419 395.489 392.617 395.489 392.617L411.631 389.118L410.275 384.261L392.81 387.419Z" fill="#263238"/>
<path opacity="0.3" d="M353.104 221.491C363.626 223.555 362.509 262.794 361.243 282.983C358.211 268.71 353.765 241.259 350.732 221.776C351.467 221.414 352.304 221.313 353.104 221.491V221.491Z" fill="black"/>
<path d="M332.128 199.66C332.128 199.66 330.988 259.613 331.9 284.021C332.812 309.454 341.692 392.731 341.692 392.731H355.281C355.281 392.731 355.771 310.936 356.421 285.959C357.082 258.735 360.365 199.615 360.365 199.615L332.128 199.66Z" fill="#0366D6"/>
<path d="M339.082 387.373C339.013 387.373 339.845 393.005 339.845 393.005H356.364L356.82 387.978L339.082 387.373Z" fill="#263238"/>
<path d="M346.845 140.608C350.687 150.971 328.103 163.18 328.103 163.18L318.322 150.64C318.322 150.64 324.9 137.621 332.88 131.762C342.741 124.534 343.915 132.719 346.845 140.608Z" fill="#0366D6"/>
<path opacity="0.4" d="M346.845 140.608C350.687 150.971 328.103 163.18 328.103 163.18L318.322 150.64C318.322 150.64 324.9 137.621 332.88 131.762C342.741 124.534 343.915 132.719 346.845 140.608Z" fill="black"/>
<path d="M435.332 61.9364C458.054 61.9364 476.474 50.1973 476.474 35.7163C476.474 21.2354 458.054 9.49622 435.332 9.49622C412.609 9.49622 394.189 21.2354 394.189 35.7163C394.189 50.1973 412.609 61.9364 435.332 61.9364Z" fill="#0366D6"/>
<path d="M420.489 48.9176C417.779 48.9088 415.158 47.9452 413.088 46.1959C411.017 44.4467 409.63 42.0238 409.169 39.3529C408.715 36.4599 409.368 33.5022 410.997 31.0686C412.625 28.635 415.111 26.904 417.958 26.2201V26.2201C420.295 25.6817 422.741 25.8892 424.954 26.8135C427.167 27.7378 429.034 29.3323 430.293 31.3729L456.707 25.9237C457.722 25.7014 458.783 25.8702 459.679 26.3964C460.576 26.9226 461.24 27.7675 461.54 28.7623C461.679 29.2853 461.709 29.831 461.629 30.3661C461.549 30.9011 461.361 31.4143 461.076 31.8742C460.791 32.334 460.415 32.731 459.972 33.0408C459.528 33.3505 459.026 33.5666 458.497 33.6757L457.813 33.8125C457.711 33.8308 457.615 33.8721 457.532 33.9334C457.449 33.9947 457.381 34.0742 457.334 34.1659C457.292 34.259 457.27 34.3601 457.27 34.4623C457.27 34.5646 457.292 34.6656 457.334 34.7587L457.801 35.9671C457.958 36.3588 457.973 36.7929 457.844 37.1945C457.715 37.5961 457.45 37.9401 457.094 38.1673C456.814 38.3405 456.577 38.5753 456.401 38.8538C456.225 39.1323 456.116 39.4473 456.08 39.7747C456.046 40.1505 455.895 40.5061 455.647 40.7907C455.399 41.0753 455.068 41.2743 454.7 41.3593L454.165 41.4733C453.793 41.542 453.41 41.4906 453.069 41.3266C452.729 41.1626 452.45 40.8946 452.272 40.5613C452.036 40.1637 451.681 39.8498 451.257 39.6635C450.834 39.4771 450.363 39.4275 449.91 39.5216C449.457 39.6158 449.044 39.8489 448.73 40.1885C448.416 40.5282 448.215 40.9574 448.157 41.4163C448.125 41.7898 447.975 42.1434 447.729 42.4262C447.484 42.709 447.154 42.9063 446.789 42.9896L446.253 43.1036C445.882 43.1704 445.499 43.1182 445.159 42.9544C444.819 42.7906 444.54 42.5236 444.361 42.1916C444.19 41.9088 443.96 41.6666 443.686 41.4815C443.412 41.2965 443.102 41.1731 442.776 41.1199C442.338 41.0672 441.934 40.8562 441.64 40.5267C441.346 40.1971 441.182 39.7717 441.18 39.3301V38.0305C441.175 37.9289 441.149 37.8294 441.102 37.7389C441.056 37.6485 440.99 37.5691 440.91 37.5063C440.83 37.4436 440.737 37.3988 440.638 37.3752C440.539 37.3515 440.436 37.3495 440.336 37.3693L431.912 39.1021C431.568 41.4361 430.514 43.6076 428.892 45.321C427.27 47.0345 425.16 48.2067 422.849 48.6782C422.072 48.837 421.282 48.9172 420.489 48.9176V48.9176ZM418.209 27.2575C415.623 27.8615 413.362 29.4227 411.882 31.6268C410.401 33.8309 409.811 36.5142 410.229 39.1363C410.677 41.5758 411.984 43.7743 413.912 45.334C415.841 46.8938 418.264 47.7118 420.743 47.6402C423.222 47.5686 425.594 46.612 427.429 44.9435C429.265 43.275 430.442 41.0048 430.749 38.5435V38.1331L440.04 36.2521C440.306 36.1877 440.584 36.1833 440.852 36.2395C441.121 36.2957 441.373 36.4109 441.592 36.5768C441.81 36.7427 441.989 36.9552 442.115 37.1987C442.241 37.4423 442.311 37.7109 442.32 37.9849V39.2845C442.322 39.4393 442.378 39.5884 442.478 39.7068C442.578 39.8251 442.715 39.9055 442.867 39.9343C443.366 40.0057 443.841 40.1896 444.258 40.4721C444.675 40.7545 445.022 41.1281 445.273 41.5645C445.333 41.6876 445.43 41.7888 445.551 41.8541C445.671 41.9195 445.809 41.9458 445.945 41.9293L446.47 41.8153C446.603 41.7811 446.721 41.705 446.807 41.5982C446.893 41.4914 446.943 41.3597 446.948 41.2225C447.02 40.5129 447.316 39.8444 447.793 39.3138C448.269 38.7832 448.902 38.4179 449.6 38.2707C450.298 38.1235 451.025 38.202 451.675 38.4949C452.326 38.7878 452.866 39.2799 453.218 39.9001C453.277 40.0223 453.372 40.123 453.491 40.1884C453.609 40.2538 453.745 40.2806 453.88 40.2649L454.427 40.1509C454.558 40.1147 454.673 40.0376 454.757 39.931C454.842 39.8244 454.889 39.6938 454.894 39.5581C454.951 39.0576 455.121 38.5766 455.391 38.1518C455.662 37.727 456.026 37.3697 456.456 37.1071C456.582 37.0165 456.673 36.8866 456.717 36.7379C456.76 36.5892 456.753 36.4303 456.695 36.2863L456.228 35.0779C456.131 34.8288 456.09 34.5616 456.108 34.2949C456.125 34.0283 456.2 33.7686 456.328 33.5341C456.456 33.2996 456.634 33.0959 456.849 32.9373C457.064 32.7786 457.311 32.6688 457.573 32.6155L458.269 32.4673C458.645 32.3871 459.001 32.2317 459.316 32.0106C459.631 31.7895 459.898 31.5071 460.101 31.1804C460.305 30.8536 460.44 30.4893 460.499 30.109C460.558 29.7288 460.54 29.3406 460.446 28.9675C460.223 28.2501 459.738 27.6433 459.087 27.2691C458.435 26.8948 457.667 26.7807 456.935 26.9497L429.78 32.5927L429.575 32.2393C428.484 30.2971 426.79 28.7627 424.75 27.868C422.71 26.9734 420.434 26.7671 418.266 27.2803L418.209 27.2575ZM420.489 44.6768C419.073 44.6925 417.683 44.2965 416.488 43.5368C415.074 42.6087 414.026 41.219 413.522 39.6047C413.019 37.9904 413.09 36.2513 413.725 34.684C414.36 33.1167 415.519 31.8182 417.005 31.0097C418.49 30.2013 420.21 29.9331 421.871 30.2508C423.532 30.5685 425.031 31.4524 426.113 32.7519C427.195 34.0514 427.793 35.686 427.805 37.377C427.817 39.0681 427.242 40.7109 426.178 42.0254C425.114 43.3399 423.627 44.2447 421.971 44.5856V44.5856C421.486 44.6734 420.993 44.7116 420.5 44.6996L420.489 44.6768ZM420.489 31.2133C420.064 31.2157 419.641 31.2577 419.224 31.3387C418.429 31.5079 417.676 31.8318 417.007 32.292C416.338 32.7523 415.766 33.3397 415.324 34.0209C414.883 34.7021 414.579 35.4637 414.431 36.2622C414.284 37.0607 414.295 37.8804 414.464 38.6746C414.633 39.4688 414.957 40.2219 415.417 40.8909C415.878 41.5599 416.465 42.1318 417.146 42.5737C417.827 43.0157 418.589 43.3191 419.388 43.4668C420.186 43.6144 421.006 43.6033 421.8 43.4342V43.4342C422.992 43.186 424.084 42.5903 424.939 41.7224C425.793 40.8545 426.371 39.753 426.6 38.557C426.829 37.3609 426.699 36.1238 426.227 35.0015C425.754 33.8793 424.959 32.9221 423.943 32.2507C422.934 31.5795 421.747 31.2261 420.535 31.2361L420.489 31.2133Z" fill="white"/>
<path opacity="0.6" d="M401.85 77.3151C409.317 77.3151 415.37 73.4565 415.37 68.6967C415.37 63.9369 409.317 60.0782 401.85 60.0782C394.383 60.0782 388.33 63.9369 388.33 68.6967C388.33 73.4565 394.383 77.3151 401.85 77.3151Z" fill="#0366D6"/>
<path opacity="0.3" d="M380.338 80.8491C383.404 80.8491 385.89 79.2669 385.89 77.3151C385.89 75.3633 383.404 73.7811 380.338 73.7811C377.272 73.7811 374.786 75.3633 374.786 77.3151C374.786 79.2669 377.272 80.8491 380.338 80.8491Z" fill="#0366D6"/>
</svg>
