<svg width="100%" height="100%" viewBox="0 0 570 425" fill="none" xmlns="http://www.w3.org/2000/svg">
<path d="M570 373.236H0V373.521H570V373.236Z" fill="#E6E6E6"/>
<path d="M142.295 390.484H104.538V390.769H142.295V390.484Z" fill="#E6E6E6"/>
<path d="M92.5908 390.484H70.7142V390.769H92.5908V390.484Z" fill="#E6E6E6"/>
<path d="M240.027 394.679H218.15V394.964H240.027V394.679Z" fill="#E6E6E6"/>
<path d="M354.095 401.041H304.859V401.326H354.095V401.041Z" fill="#E6E6E6"/>
<path d="M294.713 401.041H287.497V401.326H294.713V401.041Z" fill="#E6E6E6"/>
<path d="M516.819 394.679H410.024V394.964H516.819V394.679Z" fill="#E6E6E6"/>
<path d="M270.18 322.392H50.0574C48.333 322.389 46.6802 321.702 45.4619 320.481C44.2436 319.261 43.5594 317.607 43.5594 315.883V6.4524C43.5744 4.73787 44.2653 3.0985 45.4819 1.89037C46.6986 0.682242 48.3428 0.00293708 50.0574 0H270.18C271.906 0 273.562 0.68581 274.783 1.90656C276.004 3.12731 276.689 4.783 276.689 6.5094V315.883C276.689 317.609 276.004 319.265 274.783 320.485C273.562 321.706 271.906 322.392 270.18 322.392ZM50.0574 0.228001C48.4086 0.231021 46.8283 0.888134 45.6634 2.05511C44.4986 3.22208 43.8444 4.80356 43.8444 6.4524V315.883C43.8444 317.531 44.4986 319.113 45.6634 320.28C46.8283 321.447 48.4086 322.104 50.0574 322.107H270.18C271.83 322.104 273.411 321.447 274.578 320.281C275.745 319.114 276.401 317.532 276.404 315.883V6.4524C276.401 4.80251 275.745 3.22106 274.578 2.05441C273.411 0.887764 271.83 0.231014 270.18 0.228001H50.0574Z" fill="#E6E6E6"/>
<path d="M516.773 322.392H296.639C294.914 322.389 293.26 321.702 292.04 320.482C290.82 319.262 290.133 317.608 290.13 315.883V6.4524C290.148 4.73683 290.841 3.09747 292.06 1.88966C293.278 0.681844 294.924 0.00290505 296.639 0H516.773C518.486 0.00593313 520.127 0.686564 521.342 1.89437C522.556 3.10218 523.245 4.73984 523.26 6.4524V315.883C523.26 317.605 522.577 319.257 521.362 320.477C520.146 321.697 518.496 322.386 516.773 322.392ZM296.639 0.228001C294.99 0.231014 293.408 0.887764 292.241 2.05441C291.075 3.22106 290.418 4.80251 290.415 6.4524V315.883C290.418 317.532 291.075 319.114 292.241 320.281C293.408 321.447 294.99 322.104 296.639 322.107H516.773C518.423 322.104 520.005 321.447 521.171 320.281C522.338 319.114 522.995 317.532 522.998 315.883V6.4524C522.995 4.80251 522.338 3.22106 521.171 2.05441C520.005 0.887764 518.423 0.231014 516.773 0.228001H296.639Z" fill="#E6E6E6"/>
<path d="M304.836 275.857H279.767V375.299H304.836V275.857Z" fill="#E0E0E0"/>
<path d="M300.071 375.299H304.836V361.756H295.078L300.071 375.299Z" fill="#FAFAFA"/>
<path d="M194.986 275.857H169.917V375.299H194.986V275.857Z" fill="#E0E0E0"/>
<path d="M304.836 275.857H190.836V366.989H304.836V275.857Z" fill="#FAFAFA"/>
<path d="M300.698 280.337V304.448H194.94V280.337H300.664H300.698ZM301.108 279.893H194.53V304.882H301.142V279.893H301.108Z" fill="#E0E0E0"/>
<path d="M195.59 375.299H190.836V361.756H200.583L195.59 375.299Z" fill="#FAFAFA"/>
<path d="M245.317 292.387C245.317 292.886 245.464 293.373 245.741 293.787C246.018 294.201 246.412 294.524 246.872 294.715C247.332 294.906 247.839 294.955 248.328 294.858C248.816 294.761 249.265 294.521 249.618 294.169C249.97 293.816 250.21 293.367 250.307 292.879C250.404 292.39 250.354 291.883 250.164 291.423C249.973 290.963 249.65 290.569 249.236 290.292C248.821 290.016 248.334 289.868 247.836 289.868C247.168 289.868 246.527 290.133 246.055 290.606C245.582 291.078 245.317 291.719 245.317 292.387Z" fill="#E6E6E6"/>
<path d="M300.698 309.362V333.473H194.94V309.362H300.664H300.698ZM301.108 308.929H194.53V333.917H301.142V308.94L301.108 308.929Z" fill="#E0E0E0"/>
<path d="M245.317 321.48C245.317 321.978 245.464 322.465 245.741 322.88C246.018 323.294 246.412 323.617 246.872 323.808C247.332 323.998 247.839 324.048 248.328 323.951C248.816 323.854 249.265 323.614 249.618 323.262C249.97 322.909 250.21 322.46 250.307 321.972C250.404 321.483 250.354 320.976 250.164 320.516C249.973 320.056 249.65 319.662 249.236 319.385C248.821 319.108 248.334 318.961 247.836 318.961C247.168 318.961 246.527 319.226 246.055 319.699C245.582 320.171 245.317 320.812 245.317 321.48Z" fill="#E6E6E6"/>
<path d="M300.698 338.398V362.52H194.94V338.398H300.664H300.698ZM301.108 337.953H194.53V362.953H301.142V337.953H301.108Z" fill="#E0E0E0"/>
<path d="M245.317 350.459C245.319 350.957 245.469 351.443 245.747 351.855C246.025 352.268 246.419 352.589 246.88 352.778C247.34 352.967 247.847 353.015 248.334 352.917C248.822 352.818 249.27 352.578 249.621 352.225C249.973 351.872 250.212 351.423 250.308 350.935C250.404 350.446 250.354 349.94 250.163 349.481C249.972 349.021 249.649 348.628 249.235 348.352C248.82 348.075 248.334 347.928 247.836 347.928C247.504 347.928 247.176 347.993 246.869 348.121C246.563 348.248 246.285 348.435 246.05 348.67C245.816 348.905 245.631 349.184 245.505 349.491C245.379 349.798 245.315 350.127 245.317 350.459Z" fill="#E6E6E6"/>
<path d="M179.675 218.105H154.607V375.311H179.675V218.105Z" fill="#E0E0E0"/>
<path d="M174.91 375.299H179.675V361.756H169.928L174.91 375.299Z" fill="#FAFAFA"/>
<path d="M85.9902 218.105H60.9216V375.311H85.9902V218.105Z" fill="#E0E0E0"/>
<path d="M179.675 218.105H81.8292V367H179.675V218.105Z" fill="#FAFAFA"/>
<path d="M175.457 222.3V256.01H86.0472V222.3H175.457ZM175.982 221.787H85.5V256.5H175.959V221.798L175.982 221.787Z" fill="#E0E0E0"/>
<path d="M175.457 260.125V349.535H132.867V260.125H175.457ZM175.982 259.601H132.354V350.06H175.982V259.601Z" fill="#E0E0E0"/>
<path d="M128.638 260.125V349.535H86.0472V260.125H128.638ZM129.151 259.601H85.5V350.06H129.128V259.601H129.151Z" fill="#E0E0E0"/>
<path d="M86.5944 375.299H81.8292V361.756H91.5876L86.5944 375.299Z" fill="#FAFAFA"/>
<path d="M128.227 239.172C128.225 239.673 128.371 240.163 128.648 240.581C128.925 240.999 129.319 241.325 129.782 241.518C130.244 241.712 130.753 241.763 131.245 241.667C131.736 241.571 132.188 241.33 132.543 240.977C132.899 240.624 133.141 240.173 133.239 239.681C133.338 239.19 133.288 238.681 133.097 238.218C132.906 237.754 132.582 237.359 132.165 237.08C131.749 236.801 131.259 236.653 130.758 236.653C130.089 236.653 129.447 236.918 128.972 237.39C128.498 237.862 128.23 238.503 128.227 239.172Z" fill="#E6E6E6"/>
<path d="M137.256 302.704C137.256 303.205 137.405 303.695 137.683 304.111C137.962 304.528 138.358 304.852 138.821 305.043C139.284 305.235 139.794 305.284 140.285 305.185C140.776 305.087 141.227 304.845 141.58 304.49C141.934 304.135 142.174 303.683 142.27 303.191C142.367 302.699 142.315 302.19 142.122 301.728C141.928 301.266 141.602 300.871 141.185 300.594C140.767 300.318 140.276 300.171 139.775 300.173C139.444 300.173 139.115 300.239 138.809 300.366C138.502 300.494 138.224 300.68 137.99 300.915C137.756 301.15 137.57 301.43 137.444 301.737C137.319 302.044 137.255 302.372 137.256 302.704Z" fill="#E6E6E6"/>
<path d="M119.21 302.704C119.212 303.202 119.362 303.688 119.64 304.101C119.918 304.514 120.312 304.835 120.773 305.024C121.234 305.213 121.74 305.261 122.228 305.162C122.716 305.064 123.163 304.823 123.515 304.47C123.866 304.117 124.105 303.668 124.201 303.18C124.297 302.692 124.247 302.186 124.056 301.726C123.865 301.266 123.542 300.873 123.128 300.597C122.714 300.321 122.227 300.173 121.729 300.173C121.397 300.173 121.069 300.239 120.762 300.366C120.456 300.494 120.178 300.68 119.944 300.915C119.71 301.15 119.524 301.43 119.398 301.737C119.272 302.044 119.208 302.372 119.21 302.704Z" fill="#E6E6E6"/>
<path d="M116.36 174.272H105.792C106.766 179.398 107.379 184.586 107.627 189.799C107.627 195.499 99.579 218.105 111.047 218.105C122.516 218.105 114.467 195.556 114.467 189.799C114.734 184.585 115.367 179.397 116.36 174.272Z" fill="#E0E0E0"/>
<path d="M76.152 197.391V204.231C76.1641 207.898 77.626 211.411 80.2188 214.004C82.8117 216.597 86.3248 218.059 89.9916 218.071H96.8316C100.498 218.059 104.012 216.597 106.604 214.004C109.197 211.411 110.659 207.898 110.671 204.231V197.391H76.152Z" fill="#F5F5F5"/>
<path d="M223.064 261.356C223.064 269.336 231.99 275.857 242.9 275.857H252.749C263.659 275.857 272.585 269.336 272.585 261.356H223.064Z" fill="#E0E0E0"/>
<path d="M484.055 249.66C478.082 254.539 469.828 263.465 462.281 276.028C457.243 284.396 454.21 293.128 452.876 304.733C452.876 291.623 452.956 277.544 453.002 264.252C454.518 260.832 457.984 252.943 460.469 246.719C468.757 225.937 471.869 220.818 479.313 202.897C489.265 178.957 499.457 150.617 496.538 152.885C490.588 157.502 467.788 200.195 465.325 206.306C458.613 222.613 454.464 239.86 453.025 257.435C453.025 244.895 453.116 233.495 453.161 224.648C453.321 195.795 453.811 186.481 454.051 183.608C454.974 182.149 456.057 180.451 456.695 179.539C462.053 171.787 464.117 165.197 469.156 153.638C476.315 137.279 482.471 108.22 480.67 109.679C473.168 115.79 467.263 128.9 459.488 145.624C451.714 162.347 453.937 171.958 452.398 186.23C452.078 189.035 451.828 199.614 451.645 214.263C449.639 198.645 445.854 188.362 438.957 179.014C430.475 167.512 422.267 159.748 416.248 155.69C410.229 151.631 426.645 179.881 434.488 192.17C441.476 203.159 447.917 212.838 451.588 222.38C451.394 242.25 451.303 267.398 451.303 290.78C449.502 280.132 446.561 268.652 442.639 259.772C437.92 249.101 430.669 232.731 424.889 227.179C423.51 225.845 430.931 257.686 435.697 266.144C440.462 274.603 443.962 282.595 446.96 287.394C447.655 288.534 449.981 292.832 451.303 295.317C451.303 323.897 451.463 349.114 451.714 357.698H452.945C452.865 355.486 452.842 340.94 452.876 321.697C455.852 311.254 462.646 299.33 468.255 288.454C474.365 276.678 490.029 244.815 484.055 249.66Z" fill="#E0E0E0"/>
<path d="M470.182 375.299H434.454L431.752 340.279H472.883L470.182 375.299Z" fill="#F0F0F0"/>
<path d="M475.54 344.36H429.085L427.762 332.538H476.873L475.54 344.36Z" fill="#F5F5F5"/>
<path d="M141.656 23.37H77.7594V93.537H141.656V23.37Z" fill="#E0E0E0"/>
<path d="M148.576 23.37H82.5702V93.537H148.576V23.37Z" fill="#F5F5F5"/>
<path d="M143.047 88.008V28.899L88.0992 28.899V88.008H143.047Z" fill="white"/>
<path d="M129.721 73.6668V43.2174H101.414V73.6668H129.721Z" fill="#F5F5F5"/>
<path d="M467.457 31.5438H408.097V96.729H467.457V31.5438Z" fill="#E0E0E0"/>
<path d="M473.887 31.5438H412.577V96.729H473.887V31.5438Z" fill="#F5F5F5"/>
<path d="M468.757 91.5876V36.6852H417.719V91.5876H468.757Z" fill="white"/>
<path d="M443.232 80.0622C452.028 80.0622 459.158 72.932 459.158 64.1364C459.158 55.3408 452.028 48.2106 443.232 48.2106C434.436 48.2106 427.306 55.3408 427.306 64.1364C427.306 72.932 434.436 80.0622 443.232 80.0622Z" fill="#F5F5F5"/>
<path d="M208.039 65.208H160.637V117.26H208.039V65.208Z" fill="#E0E0E0"/>
<path d="M213.169 65.208H164.206V117.26H213.169V65.208Z" fill="#F5F5F5"/>
<path d="M209.065 113.156V69.312H168.31V113.156H209.065Z" fill="white"/>
<path d="M188.693 80.142L177.544 99.4536H199.842L188.693 80.142Z" fill="#F5F5F5"/>
<path d="M285 424.718C407.074 424.718 506.035 418.941 506.035 411.814C506.035 404.686 407.074 398.909 285 398.909C162.926 398.909 63.9654 404.686 63.9654 411.814C63.9654 418.941 162.926 424.718 285 424.718Z" fill="#F5F5F5"/>
<path d="M398.145 123.61L386.836 119.05C386.836 119.05 371.914 146.262 367.639 147.641C361.825 149.511 349.786 154.709 342.65 155.621C341.681 156.761 340.096 160.307 340.244 161.595C349.832 164.798 370.899 160.546 375.413 157.195C385.685 149.591 398.145 123.61 398.145 123.61Z" fill="#E58A7B"/>
<path d="M401.622 117.42C403.731 125.206 392.308 140.87 392.308 140.87L377.34 132.479C377.34 132.479 380.144 126.038 383.564 119.483C389.048 108.893 399.217 108.539 401.622 117.42Z" fill="#0366D6"/>
<path opacity="0.2" d="M401.622 117.42C403.731 125.206 392.308 140.87 392.308 140.87L377.34 132.479C377.34 132.479 380.144 126.038 383.564 119.483C389.048 108.893 399.217 108.539 401.622 117.42Z" fill="black"/>
<path opacity="0.2" d="M383.279 135.831L389.173 139.137L390.211 121.045C386.779 123.679 384.362 131.613 383.279 135.831Z" fill="black"/>
<path d="M391.772 111.56C391.772 111.56 380.122 137.484 386.916 185.752H432.824C433.553 178.706 431.137 144.324 439.88 111.127C434.844 110.143 429.749 109.492 424.627 109.178C418.131 108.801 411.618 108.801 405.122 109.178C400.618 109.635 396.156 110.432 391.772 111.56Z" fill="#0366D6"/>
<path opacity="0.2" d="M391.772 111.56C391.772 111.56 380.122 137.484 386.916 185.752H432.824C433.553 178.706 431.137 144.324 439.88 111.127C434.844 110.143 429.749 109.492 424.627 109.178C418.131 108.801 411.618 108.801 405.122 109.178C400.618 109.635 396.156 110.432 391.772 111.56Z" fill="black"/>
<g style="mix-blend-mode:multiply">
<path d="M381.125 412.84C381.056 414.071 398.464 415.063 419.999 415.063C441.533 415.063 459.067 414.071 459.135 412.84C459.203 411.608 441.807 410.628 420.261 410.628C398.715 410.628 381.205 411.62 381.125 412.84Z" fill="#E8ECF1"/>
</g>
<path d="M411.769 380.49L403.626 383.641L410.64 401.76L418.782 398.608L411.769 380.49Z" fill="#E58A7B"/>
<path d="M448.077 404.073H439.493L436.346 384.203H444.931L448.077 404.073Z" fill="#E58A7B"/>
<path d="M438.9 403.081H448.544C448.712 403.082 448.873 403.142 449.001 403.25C449.128 403.359 449.213 403.509 449.24 403.674L450.482 411.301C450.509 411.492 450.493 411.687 450.438 411.872C450.382 412.056 450.287 412.227 450.159 412.372C450.032 412.517 449.874 412.633 449.698 412.711C449.522 412.79 449.33 412.83 449.137 412.828C445.774 412.771 444.155 412.566 439.915 412.566C437.304 412.566 431.935 412.84 428.309 412.84C424.684 412.84 424.445 409.283 425.938 408.952C432.641 407.504 435.241 405.532 437.475 403.617C437.869 403.271 438.376 403.08 438.9 403.081Z" fill="#263238"/>
<path d="M410.4 400.14L419.52 397.472C419.683 397.426 419.856 397.438 420.012 397.504C420.167 397.57 420.296 397.688 420.375 397.837L423.795 404.677C423.874 404.851 423.915 405.039 423.914 405.23C423.913 405.421 423.87 405.61 423.789 405.782C423.707 405.955 423.589 406.107 423.443 406.23C423.296 406.352 423.124 406.441 422.94 406.49C419.623 407.402 417.4 407.96 413.25 409.169C410.389 410.001 407.47 411.358 404.643 412.258C402.682 412.885 398.077 412.908 395.694 412.908C392.171 412.908 391.385 409.192 392.901 409.021C396.72 408.599 397.233 408.793 399.342 407.732C402.793 406.224 405.92 404.064 408.553 401.371C409.05 400.805 409.687 400.381 410.4 400.14Z" fill="#263238"/>
<path d="M344.086 155.576L334.647 151.62L330.76 162.085C334.628 162.675 338.564 162.675 342.433 162.085L344.086 155.576Z" fill="#E58A7B"/>
<path d="M327.625 151.346L327.374 158.3L330.76 162.062L334.647 151.597L327.625 151.346Z" fill="#E58A7B"/>
<path d="M412.886 382.028L404.718 385.182L408.335 394.551L416.503 391.398L412.886 382.028Z" fill="#CF6F64"/>
<path d="M444.931 384.203H436.346L437.977 394.451H446.561L444.931 384.203Z" fill="#CF6F64"/>
<path opacity="0.2" d="M385.457 172.699C385.628 174.762 385.822 176.871 386.072 179.037L420.204 167.956C425.534 166.376 430.167 163.027 433.337 158.46C433.474 155.416 433.645 152.213 433.907 148.873C434.021 147.254 434.158 145.589 434.306 143.902C434.454 142.215 434.659 140.345 434.876 138.544L385.457 172.699Z" fill="black"/>
<path d="M396.606 135.307L395.466 135.17C396.139 129.47 400.391 124.978 404.871 125.092V126.232C400.949 126.152 397.21 130.199 396.606 135.307Z" fill="white"/>
<path d="M402.682 145.829H402.488V144.689C406.41 144.837 410.092 140.744 410.696 135.649L411.836 135.785C411.232 141.36 407.117 145.829 402.682 145.829Z" fill="white"/>
<path d="M423.989 87.21C422.381 93.4914 420.489 104.994 424.627 109.178C424.627 109.178 421.732 115.55 410.069 115.55C399.41 115.55 405.122 109.178 405.122 109.178C412.213 107.513 412.338 102.338 411.403 97.4358L423.989 87.21Z" fill="#E58A7B"/>
<path d="M418.859 91.3824L411.415 97.4358C411.645 98.5622 411.779 99.7065 411.814 100.856C413.991 103.022 418.357 97.5384 418.802 94.734C419.028 93.6299 419.047 92.4935 418.859 91.3824Z" fill="#CF6F64"/>
<path d="M398.612 87.1302C399.13 88.028 399.828 88.8093 400.662 89.4253C401.495 90.0412 402.447 90.4785 403.457 90.7099C406.193 91.3141 407.561 88.7946 406.809 86.2638C406.136 83.9838 403.891 80.9172 401.109 81.4416C400.513 81.5644 399.955 81.8281 399.482 82.2107C399.009 82.5933 398.635 83.0837 398.391 83.6408C398.146 84.1978 398.039 84.8053 398.077 85.4125C398.116 86.0196 398.299 86.6086 398.612 87.1302Z" fill="#CF6F64"/>
<path d="M403.138 67.032C398.875 68.9814 397.37 85.9218 402.728 88.4298C408.086 90.9378 411.209 63.327 403.138 67.032Z" fill="#263238"/>
<path d="M425.288 77.7594C424.262 86.2638 424.148 91.2684 419.588 95.6232C418.175 97.0683 416.39 98.0948 414.431 98.5894C412.471 99.084 410.413 99.0274 408.483 98.4259C406.554 97.8244 404.828 96.7014 403.496 95.1808C402.165 93.6602 401.28 91.8013 400.938 89.8092C399.559 82.1712 401.462 69.5514 409.99 66.1656C411.781 65.3753 413.752 65.0787 415.697 65.3063C417.641 65.534 419.49 66.2778 421.051 67.4605C422.611 68.6432 423.827 70.2218 424.572 72.0327C425.318 73.8436 425.565 75.8208 425.288 77.7594Z" fill="#E58A7B"/>
<path d="M411.278 71.4324C417.593 69.825 422.233 68.7306 420.569 73.986C418.369 81.0084 415.724 87.8028 419.269 88.1106C421.435 88.3044 431.011 84.246 429.791 80.1306C428.731 76.551 433.211 75.5706 434.009 73.758C436.962 67.1916 428.515 68.058 430.019 64.068C431.524 60.078 423.179 53.6484 418.619 56.8518C411.198 62.0274 398.464 61.9476 405.156 53.4318C409.955 47.3556 401.394 48.5982 401.394 48.5982C401.394 48.5982 406.57 51.6648 397.86 56.4072C388.649 61.4688 397.096 75.069 411.278 71.4324Z" fill="#263238"/>
<path d="M428.64 87.1302C427.393 88.9343 425.52 90.2103 423.385 90.7099C420.569 91.3141 419.486 88.7946 420.546 86.2638C421.492 83.9838 424.091 80.9172 426.782 81.4416C429.472 81.966 430.088 84.8958 428.64 87.1302Z" fill="#E58A7B"/>
<path d="M386.916 185.752C386.916 185.752 379.21 254.722 378.605 280.896C377.99 308.119 404.723 393.061 404.723 393.061L418.403 387.361C418.403 387.361 402.443 309.749 404.723 283.016C407.14 253.867 417.126 185.797 417.126 185.797L386.916 185.752Z" fill="#0366D6"/>
<path opacity="0.2" d="M406.068 204.687C399.923 217.432 404.062 242.638 407.39 257.572C408.656 247.027 410.161 235.581 411.586 224.99C411.449 208.711 410.183 196.137 406.068 204.687Z" fill="black"/>
<path d="M417.799 382.846C417.867 382.846 419.417 387.201 419.417 387.201L403.64 393.836L401.155 389.207L417.799 382.846Z" fill="#0366D6"/>
<path d="M403.207 185.752C403.207 185.752 409.1 251.347 412.999 275.914C417.286 302.83 434.089 392.468 434.089 392.468H449.81C449.81 392.468 440.393 305.007 438.615 278.354C436.677 249.443 432.824 185.752 432.824 185.752H403.207Z" fill="#0366D6"/>
<path d="M450.049 388.375C450.118 388.375 450.574 392.764 450.574 392.764H433.291L432.06 387.725L450.049 388.375Z" fill="#0366D6"/>
<path opacity="0.2" d="M444.03 383.177C443.994 383.177 443.96 383.165 443.933 383.142C443.905 383.119 443.887 383.087 443.882 383.051C443.791 382.253 435.298 303.251 433.702 279.311C431.969 253.342 428.48 195.738 428.446 195.157C428.445 195.138 428.447 195.119 428.453 195.101C428.459 195.083 428.469 195.066 428.482 195.052C428.495 195.038 428.51 195.027 428.528 195.02C428.545 195.012 428.564 195.008 428.583 195.008C428.62 195.008 428.656 195.022 428.684 195.048C428.711 195.073 428.728 195.108 428.731 195.145C428.731 195.727 432.254 253.285 433.987 279.3C435.583 303.24 444.076 382.185 444.155 383.04C444.159 383.059 444.158 383.078 444.153 383.097C444.148 383.115 444.14 383.133 444.128 383.148C444.116 383.163 444.101 383.175 444.085 383.184C444.068 383.193 444.049 383.198 444.03 383.2V383.177Z" fill="black"/>
<path d="M412.247 80.1306C412.247 80.826 411.814 81.3846 411.358 81.3846C410.902 81.3846 410.571 80.826 410.617 80.1306C410.662 79.4352 411.05 78.8766 411.506 78.8766C411.962 78.8766 412.292 79.4466 412.247 80.1306Z" fill="#263238"/>
<path d="M404.426 80.1306C404.426 80.826 403.982 81.3846 403.537 81.3846C403.093 81.3846 402.751 80.826 402.785 80.1306C402.819 79.4352 403.229 78.8766 403.685 78.8766C404.141 78.8766 404.472 79.4466 404.426 80.1306Z" fill="#263238"/>
<path d="M406.889 80.484C405.937 82.6075 404.711 84.5967 403.241 86.4006C404.381 87.5406 406.513 87.0162 406.513 87.0162L406.889 80.484Z" fill="#DF5753"/>
<path d="M407.094 89.9232C407.068 89.9233 407.041 89.9179 407.017 89.9075C406.993 89.897 406.971 89.8817 406.953 89.8625C406.935 89.8433 406.921 89.8205 406.912 89.7957C406.902 89.7709 406.899 89.7444 406.9 89.718C406.903 89.6626 406.927 89.6104 406.968 89.5722C407.008 89.534 407.061 89.5128 407.117 89.5128C407.989 89.5189 408.851 89.3295 409.64 88.9586C410.429 88.5877 411.125 88.0448 411.677 87.3696C411.716 87.3352 411.767 87.3162 411.819 87.3162C411.872 87.3162 411.922 87.3352 411.962 87.3696C411.999 87.4079 412.019 87.459 412.019 87.5121C412.019 87.5653 411.999 87.6164 411.962 87.6546C411.371 88.3722 410.627 88.9484 409.785 89.3409C408.943 89.7335 408.023 89.9325 407.094 89.9232Z" fill="#263238"/>
<path d="M413.638 78.033C413.583 78.061 413.522 78.0756 413.461 78.0756C413.399 78.0756 413.339 78.061 413.284 78.033C412.858 77.7573 412.372 77.5858 411.867 77.5323C411.362 77.4789 410.852 77.5449 410.377 77.7252C410.331 77.7483 410.28 77.762 410.229 77.7653C410.177 77.7686 410.125 77.7616 410.077 77.7446C410.028 77.7276 409.983 77.701 409.944 77.6663C409.906 77.6317 409.875 77.5897 409.853 77.5428C409.81 77.4413 409.809 77.3274 409.85 77.2252C409.89 77.123 409.969 77.0406 410.069 76.9956C410.665 76.7522 411.311 76.6562 411.952 76.7157C412.593 76.7752 413.211 76.9886 413.752 77.3376C413.795 77.3673 413.833 77.4054 413.861 77.4497C413.89 77.4939 413.91 77.5435 413.92 77.5954C413.929 77.6474 413.928 77.7008 413.917 77.7524C413.906 77.804 413.884 77.8529 413.854 77.8962C413.797 77.9616 413.721 78.009 413.638 78.033Z" fill="#263238"/>
<path d="M401.405 75.753C401.345 75.7383 401.289 75.7067 401.246 75.6618C401.208 75.6247 401.178 75.5803 401.157 75.5314C401.137 75.4825 401.126 75.4299 401.126 75.3768C401.126 75.3237 401.137 75.2712 401.157 75.2223C401.178 75.1733 401.208 75.129 401.246 75.0918C401.683 74.6018 402.227 74.2192 402.836 73.974C403.445 73.7288 404.102 73.6276 404.757 73.6782C404.809 73.6863 404.86 73.7051 404.905 73.7334C404.949 73.7617 404.988 73.7989 405.018 73.8427C405.048 73.8865 405.068 73.936 405.079 73.9881C405.089 74.0402 405.088 74.0938 405.076 74.1456C405.052 74.2512 404.99 74.3442 404.901 74.4072C404.813 74.4701 404.705 74.4987 404.597 74.4876C404.079 74.455 403.561 74.5407 403.081 74.7382C402.601 74.9357 402.172 75.2399 401.827 75.6276C401.775 75.6853 401.708 75.7276 401.634 75.7497C401.56 75.7718 401.48 75.773 401.405 75.753Z" fill="#263238"/>
<path d="M444.292 122.345L432.436 119.187C432.436 119.187 420.808 147.812 416.693 149.671C411.107 152.224 396.959 161.071 390.94 165.254C390.61 166.679 390.872 170.453 391.624 171.49C401.884 169.621 421.526 162.062 425.63 158.221C434.99 149.454 444.292 122.345 444.292 122.345Z" fill="#E58A7B"/>
<path d="M436.016 404.586C435.437 404.632 434.861 404.475 434.386 404.141C434.239 404.009 434.129 403.84 434.067 403.652C434.005 403.465 433.993 403.264 434.032 403.07C434.039 402.949 434.079 402.832 434.147 402.731C434.216 402.631 434.31 402.551 434.42 402.5C435.377 402.01 438.056 403.708 438.364 403.902C438.398 403.923 438.424 403.954 438.439 403.991C438.453 404.028 438.455 404.069 438.444 404.107C438.434 404.147 438.414 404.184 438.387 404.214C438.359 404.243 438.323 404.266 438.284 404.278C437.541 404.461 436.781 404.564 436.016 404.586ZM434.876 402.808C434.789 402.788 434.7 402.788 434.614 402.808C434.57 402.83 434.534 402.864 434.509 402.907C434.485 402.949 434.474 402.998 434.477 403.047C434.446 403.18 434.451 403.318 434.492 403.448C434.532 403.578 434.605 403.695 434.705 403.788C435.149 404.187 436.267 404.233 437.737 403.948C436.862 403.371 435.875 402.983 434.842 402.808H434.876Z" fill="#0366D6"/>
<path d="M438.227 404.278C438.198 404.288 438.166 404.288 438.136 404.278C437.281 403.799 435.674 401.918 435.913 400.961C435.949 400.809 436.035 400.674 436.157 400.576C436.279 400.479 436.43 400.426 436.586 400.425C436.739 400.405 436.894 400.417 437.042 400.463C437.19 400.508 437.326 400.584 437.441 400.687C438.387 401.497 438.444 403.982 438.444 404.107C438.45 404.145 438.442 404.183 438.424 404.216C438.405 404.249 438.376 404.275 438.341 404.29C438.303 404.297 438.263 404.293 438.227 404.278ZM436.7 400.801H436.62C436.358 400.801 436.324 400.949 436.312 401.006C436.175 401.565 437.19 402.99 438.034 403.663C438.03 402.7 437.731 401.761 437.179 400.972C437.046 400.857 436.875 400.796 436.7 400.801Z" fill="#0366D6"/>
<path d="M405.749 403.161C405.051 403.404 404.292 403.404 403.594 403.161C403.436 403.075 403.302 402.951 403.204 402.799C403.106 402.648 403.048 402.474 403.036 402.295C403.021 402.182 403.036 402.067 403.077 401.962C403.119 401.856 403.187 401.763 403.275 401.69C404.187 400.87 407.915 401.69 408.337 401.85C408.377 401.86 408.412 401.884 408.437 401.917C408.462 401.95 408.475 401.991 408.473 402.032C408.475 402.075 408.464 402.118 408.442 402.154C408.419 402.191 408.387 402.22 408.348 402.238C407.509 402.617 406.639 402.926 405.749 403.161ZM403.891 401.804C403.76 401.831 403.639 401.889 403.537 401.975C403.501 402.003 403.473 402.04 403.457 402.082C403.441 402.124 403.437 402.17 403.446 402.215C403.453 402.335 403.491 402.45 403.554 402.552C403.618 402.654 403.706 402.737 403.811 402.796C404.415 403.115 405.817 402.865 407.63 402.101C406.409 401.793 405.145 401.693 403.891 401.804Z" fill="#0366D6"/>
<path d="M408.314 402.238H408.223C407.083 402.032 404.803 400.721 404.734 399.741C404.734 399.513 404.837 399.194 405.384 399.011C405.569 398.946 405.765 398.918 405.961 398.929C406.157 398.941 406.348 398.992 406.524 399.08C407.755 399.684 408.405 401.873 408.439 401.975C408.447 402.01 408.446 402.046 408.436 402.08C408.426 402.114 408.408 402.145 408.382 402.169C408.365 402.197 408.342 402.221 408.314 402.238ZM405.612 399.353H405.498C405.145 399.479 405.145 399.627 405.145 399.673C405.145 400.265 406.798 401.348 407.949 401.713C407.684 400.798 407.123 399.996 406.353 399.433C406.124 399.317 405.86 399.288 405.612 399.353Z" fill="#0366D6"/>
<path d="M391.909 164.582L380.019 170.054L378.64 173.474L383.029 176.427C383.029 176.427 391.237 175.537 393.574 170.259L391.909 164.582Z" fill="#E58A7B"/>
<path d="M392.411 171.684C392.145 169.399 391.391 167.199 390.199 165.232L392.08 163.818C393.495 166.085 394.398 168.633 394.725 171.285L392.411 171.684Z" fill="#263238"/>
<path d="M394.44 166.201C394.691 166.596 394.815 167.059 394.794 167.527C394.772 167.995 394.608 168.445 394.321 168.816C394.035 169.187 393.642 169.461 393.195 169.601C392.747 169.74 392.268 169.738 391.822 169.596C391.375 169.453 390.984 169.176 390.701 168.803C390.417 168.43 390.255 167.979 390.238 167.511C390.22 167.043 390.347 166.58 390.601 166.187C390.855 165.793 391.224 165.488 391.658 165.311C392.146 165.063 392.711 165.017 393.232 165.184C393.753 165.35 394.187 165.716 394.44 166.201Z" fill="#263238"/>
<path d="M371.982 174.477L373.567 176.073L384.237 171.513L380.019 170.054L371.982 174.477Z" fill="#E58A7B"/>
<path opacity="0.2" d="M417.799 382.846C417.867 382.846 419.417 387.201 419.417 387.201L403.64 393.836L401.155 389.207L417.799 382.846Z" fill="black"/>
<path opacity="0.2" d="M450.049 388.375C450.118 388.375 450.574 392.764 450.574 392.764H433.291L432.06 387.725L450.049 388.375Z" fill="black"/>
<path d="M447.382 119.062C450.517 129.173 438.262 143.002 438.262 143.002L421.333 136.093C423.339 130.249 425.653 124.514 428.264 118.913C433.462 107.707 444.212 108.859 447.382 119.062Z" fill="#0366D6"/>
<path opacity="0.2" d="M447.382 119.062C450.517 129.173 438.262 143.002 438.262 143.002L421.333 136.093C423.339 130.249 425.653 124.514 428.264 118.913C433.462 107.707 444.212 108.859 447.382 119.062Z" fill="black"/>
<path d="M279.163 17.7498H271.879V18.924H279.163V17.7498Z" fill="#0366D6"/>
<path d="M373.462 64.2236L372.58 83.7889L373.753 83.8418L374.635 64.2765L373.462 64.2236Z" fill="#0366D6"/>
<path d="M371.195 23.0166H236.675L224.158 303.137H358.678L371.195 23.0166Z" fill="#0366D6"/>
<path opacity="0.56" d="M367.183 26.8698H232.663L220.145 306.991H354.665L367.183 26.8698Z" fill="#FAFAFA"/>
<path opacity="0.07" d="M363.17 30.7116H228.65L216.121 310.832H350.641L363.17 30.7116Z" fill="#0366D6"/>
<path d="M347.86 152.885H233.039L232.081 174.317H346.902L347.86 152.885Z" fill="white"/>
<path d="M296.183 137.245H233.734L233.312 146.832H295.762L296.183 137.245Z" fill="#0366D6"/>
<path d="M345.272 210.729H230.451L229.493 232.161H344.314L345.272 210.729Z" fill="white"/>
<path opacity="0.47" d="M324.216 261.106H247.004L245.852 286.79H323.065L324.216 261.106Z" fill="#0366D6"/>
<path d="M319.052 290.78H241.84C241.806 290.788 241.771 290.788 241.737 290.78C241.726 290.746 241.726 290.71 241.737 290.677L242.877 264.982C242.877 264.964 242.881 264.947 242.888 264.931C242.895 264.915 242.905 264.9 242.918 264.889C242.931 264.877 242.946 264.868 242.962 264.862C242.979 264.857 242.996 264.855 243.014 264.856H320.226C320.24 264.849 320.256 264.845 320.272 264.845C320.287 264.845 320.303 264.849 320.317 264.856C320.325 264.87 320.329 264.886 320.329 264.902C320.329 264.918 320.325 264.933 320.317 264.947L319.2 290.7C319.186 290.727 319.165 290.749 319.138 290.763C319.112 290.777 319.082 290.783 319.052 290.78ZM241.976 290.506H318.915L320.055 265.084H243.116L241.976 290.506Z" fill="white"/>
<path d="M282.697 195.088H231.146L230.725 204.687H282.264L282.697 195.088Z" fill="#0366D6"/>
<path d="M322.745 83.6532C322.451 89.8906 320.233 95.8838 316.396 100.81C313.555 104.531 309.9 107.552 305.711 109.641C301.521 111.73 296.909 112.831 292.228 112.86C288.445 112.889 284.696 112.143 281.212 110.668C277.729 109.193 274.584 107.021 271.971 104.285C269.359 101.548 267.335 98.3064 266.023 94.7582C264.711 91.2099 264.139 87.4307 264.343 83.6532C264.744 75.8146 268.124 68.4252 273.793 62.9962C279.461 57.5672 286.99 54.5088 294.838 54.4464C298.624 54.4111 302.377 55.1525 305.865 56.6247C309.353 58.097 312.502 60.2688 315.117 63.0061C317.732 65.7433 319.759 68.9878 321.071 72.5391C322.383 76.0904 322.953 79.873 322.745 83.6532Z" fill="white"/>
<path d="M325.493 60.5568C325.418 62.2153 324.829 63.8093 323.806 65.1168C323.049 66.1051 322.076 66.9075 320.962 67.4626C319.847 68.0178 318.621 68.3111 317.376 68.3202C316.17 68.3275 314.98 68.0394 313.911 67.4809C312.842 66.9225 311.926 66.1108 311.243 65.1168C310.338 63.7734 309.891 62.1745 309.966 60.5568C310.076 58.4756 310.976 56.5148 312.482 55.0743C313.988 53.6339 315.987 52.8222 318.071 52.8048C319.077 52.7956 320.073 52.9924 321 53.383C321.926 53.7736 322.763 54.3498 323.458 55.0761C324.154 55.8024 324.693 56.6633 325.043 57.6059C325.393 58.5485 325.546 59.5527 325.493 60.5568Z" fill="#0366D6"/>
<path d="M245.408 163.601C245.353 164.52 244.952 165.384 244.286 166.018C243.619 166.653 242.737 167.011 241.817 167.021C241.372 167.027 240.932 166.941 240.522 166.769C240.112 166.597 239.742 166.343 239.434 166.023C239.127 165.702 238.888 165.322 238.733 164.905C238.578 164.489 238.51 164.045 238.534 163.601C238.583 162.681 238.982 161.814 239.65 161.178C240.317 160.542 241.203 160.186 242.125 160.181C242.568 160.178 243.008 160.265 243.417 160.437C243.826 160.61 244.196 160.864 244.503 161.184C244.811 161.504 245.049 161.884 245.205 162.299C245.361 162.715 245.43 163.158 245.408 163.601Z" fill="#263238"/>
<path d="M260.775 163.601C260.723 164.521 260.323 165.386 259.656 166.021C258.989 166.657 258.105 167.014 257.184 167.021C256.741 167.025 256.301 166.938 255.893 166.766C255.484 166.593 255.116 166.339 254.809 166.018C254.503 165.698 254.265 165.318 254.111 164.903C253.956 164.487 253.889 164.044 253.912 163.601C253.962 162.683 254.359 161.818 255.024 161.182C255.69 160.547 256.572 160.189 257.492 160.181C257.936 160.176 258.377 160.262 258.787 160.434C259.196 160.606 259.567 160.86 259.874 161.18C260.182 161.501 260.421 161.881 260.576 162.297C260.731 162.714 260.798 163.158 260.775 163.601Z" fill="#263238"/>
<path d="M276.154 163.601C276.101 164.521 275.701 165.386 275.034 166.021C274.367 166.657 273.484 167.014 272.563 167.021C272.119 167.025 271.679 166.938 271.27 166.766C270.861 166.593 270.491 166.339 270.184 166.019C269.876 165.699 269.638 165.319 269.482 164.904C269.327 164.488 269.258 164.045 269.279 163.601C269.332 162.682 269.732 161.817 270.399 161.181C271.066 160.546 271.949 160.189 272.87 160.181C273.315 160.176 273.755 160.262 274.165 160.434C274.575 160.606 274.945 160.86 275.253 161.18C275.561 161.501 275.799 161.881 275.954 162.297C276.109 162.714 276.177 163.158 276.154 163.601Z" fill="#263238"/>
<path d="M242.82 221.445C242.765 222.364 242.364 223.227 241.698 223.862C241.031 224.497 240.149 224.855 239.229 224.865C238.785 224.869 238.345 224.782 237.936 224.609C237.527 224.437 237.158 224.183 236.85 223.863C236.543 223.542 236.304 223.163 236.149 222.747C235.993 222.331 235.924 221.888 235.946 221.445C235.998 220.525 236.398 219.66 237.065 219.025C237.732 218.39 238.616 218.032 239.537 218.025C239.981 218.021 240.421 218.108 240.83 218.281C241.239 218.453 241.608 218.707 241.916 219.027C242.223 219.348 242.462 219.727 242.617 220.143C242.773 220.559 242.842 221.002 242.82 221.445Z" fill="#263238"/>
<path d="M258.187 221.445C258.135 222.363 257.737 223.226 257.072 223.861C256.408 224.496 255.527 224.855 254.608 224.865C254.163 224.87 253.723 224.784 253.313 224.613C252.903 224.441 252.533 224.187 252.225 223.866C251.917 223.546 251.679 223.165 251.524 222.749C251.369 222.333 251.301 221.889 251.324 221.445C251.377 220.525 251.777 219.66 252.444 219.025C253.111 218.39 253.994 218.032 254.915 218.025C255.359 218.021 255.798 218.108 256.207 218.281C256.615 218.453 256.984 218.708 257.29 219.028C257.597 219.348 257.835 219.728 257.989 220.144C258.143 220.559 258.211 221.002 258.187 221.445Z" fill="#263238"/>
<path d="M273.6 221.445C273.548 222.365 273.148 223.23 272.481 223.865C271.814 224.5 270.93 224.858 270.009 224.865C269.566 224.867 269.126 224.779 268.718 224.606C268.31 224.433 267.941 224.179 267.634 223.859C267.327 223.539 267.088 223.16 266.932 222.745C266.776 222.33 266.706 221.888 266.726 221.445C266.781 220.526 267.182 219.663 267.848 219.028C268.514 218.393 269.397 218.035 270.317 218.025C270.761 218.02 271.202 218.106 271.612 218.277C272.021 218.449 272.392 218.703 272.699 219.024C273.007 219.344 273.246 219.725 273.401 220.141C273.556 220.557 273.623 221.001 273.6 221.445Z" fill="#263238"/>
<path d="M288.944 221.445C288.89 222.364 288.489 223.227 287.822 223.862C287.156 224.497 286.274 224.855 285.353 224.865C284.91 224.867 284.471 224.779 284.063 224.606C283.654 224.433 283.285 224.179 282.978 223.859C282.671 223.539 282.433 223.16 282.276 222.745C282.12 222.33 282.05 221.888 282.07 221.445C282.125 220.526 282.526 219.663 283.192 219.028C283.859 218.393 284.741 218.035 285.661 218.025C286.105 218.021 286.545 218.108 286.954 218.281C287.363 218.453 287.733 218.707 288.04 219.027C288.347 219.348 288.586 219.727 288.742 220.143C288.897 220.559 288.966 221.002 288.944 221.445Z" fill="#263238"/>
<path d="M304.38 221.445C304.325 222.364 303.924 223.227 303.258 223.862C302.591 224.497 301.709 224.855 300.789 224.865C300.345 224.87 299.904 224.784 299.494 224.613C299.084 224.441 298.714 224.187 298.406 223.866C298.099 223.546 297.86 223.165 297.705 222.749C297.55 222.333 297.482 221.889 297.506 221.445C297.558 220.525 297.958 219.66 298.625 219.025C299.292 218.39 300.176 218.032 301.097 218.025C301.541 218.021 301.981 218.108 302.39 218.281C302.799 218.453 303.168 218.707 303.476 219.027C303.783 219.348 304.022 219.727 304.177 220.143C304.333 220.559 304.402 221.002 304.38 221.445Z" fill="#263238"/>
<path d="M302.047 82.1321C306.818 77.466 307.072 69.9868 302.612 65.4269C298.153 60.8669 290.67 60.953 285.899 65.6191C281.127 70.2851 280.874 77.7643 285.333 82.3243C289.792 86.8842 297.275 86.7982 302.047 82.1321Z" fill="#0366D6"/>
<path d="M316.396 100.81C313.555 104.531 309.9 107.552 305.711 109.641C301.521 111.73 296.909 112.831 292.228 112.86C287.688 112.898 283.209 111.819 279.185 109.718C275.161 107.617 271.716 104.557 269.154 100.81C274.694 95.2926 283.461 91.6902 293.174 91.6902C302.887 91.6902 311.345 95.2926 316.396 100.81Z" fill="#0366D6"/>
<path opacity="0.1" d="M302.047 82.1321C306.818 77.466 307.072 69.9868 302.612 65.4269C298.153 60.8669 290.67 60.953 285.899 65.6191C281.127 70.2851 280.874 77.7643 285.333 82.3243C289.792 86.8842 297.275 86.7982 302.047 82.1321Z" fill="white"/>
<path opacity="0.1" d="M316.396 100.81C313.555 104.531 309.9 107.552 305.711 109.641C301.521 111.73 296.909 112.831 292.228 112.86C287.688 112.898 283.209 111.819 279.185 109.718C275.161 107.617 271.716 104.557 269.154 100.81C274.694 95.2926 283.461 91.6902 293.174 91.6902C302.887 91.6902 311.345 95.2926 316.396 100.81Z" fill="white"/>
<path d="M148.667 179.482C147.584 181.853 146.444 184.463 145.453 186.994C144.461 189.525 143.446 192.136 142.568 194.735C140.776 199.857 139.411 205.119 138.487 210.467L138.236 212.143C138.212 212.43 138.24 212.72 138.316 212.998C138.585 213.942 139.009 214.836 139.57 215.642C141.034 217.729 142.732 219.642 144.632 221.342C146.634 223.205 148.735 224.959 150.925 226.598C153.113 228.285 155.416 229.927 157.685 231.477L155.553 235.478C150.136 233.118 144.994 230.171 140.22 226.689C137.673 224.831 135.374 222.655 133.38 220.214C132.198 218.76 131.276 217.114 130.655 215.346C130.295 214.242 130.11 213.088 130.108 211.926C130.108 211.652 130.108 211.253 130.108 211.06V210.501L130.222 209.361C130.876 203.422 132.125 197.563 133.95 191.873C134.839 189.069 135.785 186.276 136.868 183.551C137.951 180.827 139.069 178.159 140.448 175.389L148.667 179.482Z" fill="#E58A7B"/>
<path d="M156.077 230.77L164.137 226.689L162.051 235.535C162.051 235.535 156.522 237.086 153.957 234.395L156.077 230.77Z" fill="#E58A7B"/>
<path d="M171.513 228.137L169.37 235.456L162.051 235.535L164.137 226.689L171.513 228.137Z" fill="#E58A7B"/>
<path d="M182.89 136.8C183.321 138.38 183.921 139.909 184.68 141.36C184.458 141.611 184.173 141.798 183.854 141.9C183.535 142.003 183.194 142.017 182.867 141.941L182.89 136.8Z" fill="#DF5753"/>
<path d="M182.651 136.868C183.123 136.868 183.506 136.281 183.506 135.557C183.506 134.833 183.123 134.246 182.651 134.246C182.179 134.246 181.796 134.833 181.796 135.557C181.796 136.281 182.179 136.868 182.651 136.868Z" fill="#263238"/>
<path d="M182.4 134.292L184.133 133.802C184.133 133.802 183.289 135.147 182.4 134.292Z" fill="#263238"/>
<path d="M160.626 145.168C161.663 150.469 162.701 160.193 158.984 163.738C158.984 163.738 160.444 169.119 170.305 169.119C181.146 169.119 175.48 163.738 175.48 163.738C169.564 162.325 169.712 157.936 170.749 153.809L160.626 145.168Z" fill="#E58A7B"/>
<path d="M157.742 133.084C158.289 141.941 158.335 145.703 162.803 150.252C169.541 157.092 180.302 154.493 182.411 145.692C184.315 137.712 183.107 124.579 174.431 121.057C172.527 120.272 170.454 119.986 168.409 120.226C166.363 120.467 164.413 121.224 162.742 122.429C161.071 123.633 159.735 125.243 158.86 127.108C157.985 128.972 157.6 131.029 157.742 133.084Z" fill="#E58A7B"/>
<path d="M158.62 123.12C154.174 124.739 148.246 123.53 150.571 137.245C153.034 151.768 149.249 156.545 149.249 156.545C149.249 156.545 166.109 160.136 183.323 156.328C183.323 156.328 178.068 147.14 179.539 140.368C181.42 131.818 179.938 128.66 179.938 128.66C179.938 128.66 164.867 120.84 158.62 123.12Z" fill="#263238"/>
<path d="M177.43 137.701C177.434 139.385 177.916 141.033 178.82 142.454C180.029 144.301 181.454 143.594 181.807 141.634C182.126 139.912 181.887 136.868 180.348 135.683C178.809 134.497 177.452 135.66 177.43 137.701Z" fill="#E58A7B"/>
<path d="M154.755 124.613C153.478 121.022 159.566 115.493 172.448 117.773C185.33 120.053 185.888 130.781 185.888 130.781L183.289 127.68L183.403 130.94L170.168 133.483L154.755 124.613Z" fill="#263238"/>
<path d="M155.849 164.342C155.773 163.822 155.904 163.292 156.212 162.866C156.521 162.44 156.984 162.152 157.502 162.062C161.515 161.401 170.635 160.056 175.218 160.694C178.638 161.173 179.527 163.157 179.675 164.787C179.699 165.072 179.66 165.36 179.563 165.629C179.466 165.898 179.313 166.144 179.113 166.349C178.913 166.554 178.672 166.714 178.405 166.819C178.138 166.923 177.852 166.969 177.566 166.953L157.753 166.064C157.286 166.04 156.841 165.856 156.495 165.542C156.148 165.229 155.92 164.805 155.849 164.342Z" fill="#0366D6"/>
<path opacity="0.6" d="M155.849 164.342C155.773 163.822 155.904 163.292 156.212 162.866C156.521 162.44 156.984 162.152 157.502 162.062C161.515 161.401 170.635 160.056 175.218 160.694C178.638 161.173 179.527 163.157 179.675 164.787C179.699 165.072 179.66 165.36 179.563 165.629C179.466 165.898 179.313 166.144 179.113 166.349C178.913 166.554 178.672 166.714 178.405 166.819C178.138 166.923 177.852 166.969 177.566 166.953L157.753 166.064C157.286 166.04 156.841 165.856 156.495 165.542C156.148 165.229 155.92 164.805 155.849 164.342Z" fill="black"/>
<path d="M167.306 363.5L174.659 368.608L186.96 351.929L179.607 346.834L167.306 363.5Z" fill="#E58A7B"/>
<path d="M150.161 363.17L157.924 367.593L168.811 349.957L161.048 345.534L150.161 363.17Z" fill="#E58A7B"/>
<path d="M186.949 351.929L180.61 360.525L173.257 355.429L179.596 346.834L186.949 351.929Z" fill="#CF6F64"/>
<path d="M161.036 345.534L168.811 349.969L163.202 359.054L155.428 354.62L161.036 345.534Z" fill="#CF6F64"/>
<path d="M173.508 220.02C173.508 220.02 202.213 256.192 196.821 290.791C192.478 318.733 167.284 356.569 167.284 356.569L155.439 350.687C163.788 333.958 170.912 316.645 176.757 298.885C178.559 293.371 179.085 287.52 178.295 281.773C177.505 276.027 175.42 270.534 172.197 265.711C157.651 244.473 134.349 257.116 150.024 220.02H173.508Z" fill="#0366D6"/>
<path opacity="0.6" d="M173.508 220.02C173.508 220.02 202.213 256.192 196.821 290.791C192.478 318.733 167.284 356.569 167.284 356.569L155.439 350.687C163.788 333.958 170.912 316.645 176.757 298.885C178.559 293.371 179.085 287.52 178.295 281.773C177.505 276.027 175.42 270.534 172.197 265.711C157.651 244.473 134.349 257.116 150.024 220.02H173.508Z" fill="black"/>
<path opacity="0.4" d="M187.587 243.253L183.415 239.104C183.415 239.434 191.497 289.332 193.766 303.354C195.105 299.258 196.13 295.066 196.832 290.814C199.5 273.839 193.925 256.5 187.587 243.253Z" fill="black"/>
<path d="M186.322 220.02C186.322 220.02 220.886 265.483 221.867 292.741C222.676 315.541 184.247 359.716 184.247 359.716L173.075 352.488C173.075 352.488 195.567 321.115 201.233 295.488C199.044 270.089 152.76 220.02 152.76 220.02H186.322Z" fill="#0366D6"/>
<path opacity="0.6" d="M186.322 220.02C186.322 220.02 220.886 265.483 221.867 292.741C222.676 315.541 184.247 359.716 184.247 359.716L173.075 352.488C173.075 352.488 195.567 321.115 201.233 295.488C199.044 270.089 152.76 220.02 152.76 220.02H186.322Z" fill="black"/>
<path d="M143.56 165.767C139.867 166.645 136.321 180.074 136.321 180.074L150.765 189.719C150.765 189.719 155.576 179.094 153.889 174.443C152.144 169.598 148.2 164.662 143.56 165.767Z" fill="#0366D6"/>
<path opacity="0.2" d="M146.387 174.42L145.384 186.128L150.754 189.73C152.236 186.392 153.334 182.897 154.025 179.311L146.387 174.42Z" fill="black"/>
<path d="M190.597 166.03C190.597 166.03 194.86 167.523 186.322 220.009H150.001C150.617 205.189 150.628 196.069 143.56 165.767C148.646 164.719 153.801 164.041 158.984 163.738C164.476 163.344 169.989 163.344 175.48 163.738C182.571 164.388 190.597 166.03 190.597 166.03Z" fill="#0366D6"/>
<path d="M194.29 174.42C195.111 176.7 195.977 179.151 196.889 181.511C197.801 183.871 198.668 186.299 199.591 188.693L202.384 195.852L203.091 197.642L203.456 198.531L203.627 198.976C203.627 199.055 203.627 199.055 203.627 199.044C203.419 198.75 203.145 198.508 202.829 198.337C202.378 198.072 201.869 197.919 201.347 197.893C200.913 197.879 200.481 197.961 200.081 198.132C199.557 198.371 199.557 198.474 199.568 198.463C199.663 198.387 199.748 198.298 199.819 198.2C200.45 197.372 200.996 196.482 201.449 195.544C201.985 194.495 202.498 193.378 203.011 192.25C204.014 189.97 204.938 187.61 205.861 185.227C206.785 182.845 207.662 180.439 208.517 178.011L211.117 170.738L215.506 171.878C214.639 177.076 213.522 182.138 212.177 187.291C211.527 189.856 210.763 192.398 209.897 194.963C209.464 196.251 208.985 197.528 208.438 198.839C207.867 200.262 207.165 201.628 206.34 202.92C206.037 203.355 205.701 203.766 205.337 204.151C204.755 204.78 204.048 205.281 203.262 205.622C202.564 205.921 201.809 206.061 201.05 206.032C200.201 206.001 199.373 205.753 198.645 205.314C197.786 204.778 197.073 204.038 196.57 203.159C196.399 202.863 196.251 202.567 196.148 202.35L195.932 201.917L195.499 201.028L194.632 199.261C193.492 196.889 192.352 194.495 191.36 192.09C190.369 189.685 189.32 187.245 188.339 184.794C187.359 182.343 186.481 179.892 185.649 177.247L194.29 174.42Z" fill="#E58A7B"/>
<path d="M190.597 166.03C194.963 167.067 199.876 179.972 199.876 179.972L186.892 191.018C186.892 191.018 178.49 176.951 180.188 172.311C181.955 167.477 184.897 164.673 190.597 166.03Z" fill="#0366D6"/>
<path d="M213.18 166.657L217.74 162.849L220.909 167.785L218.572 171.901C218.572 171.901 214.856 175.321 211.573 173.576C211.051 172.405 210.927 171.096 211.217 169.847C211.507 168.598 212.196 167.478 213.18 166.657Z" fill="#E58A7B"/>
<path d="M225.971 162.86L225.629 164.103L218.413 165.311L217.706 162.849L225.971 162.86Z" fill="#E58A7B"/>
<path d="M185.136 360.297L172.117 351.884L174.454 347.825L189.08 356.82L185.136 360.297Z" fill="#0366D6"/>
<path d="M163.02 367C161.878 366.861 160.78 366.471 159.805 365.86C159.765 365.846 159.73 365.82 159.705 365.785C159.681 365.751 159.667 365.709 159.667 365.666C159.667 365.624 159.681 365.582 159.705 365.548C159.73 365.513 159.765 365.487 159.805 365.473C160.159 365.359 163.225 364.412 164.114 365.142C164.214 365.225 164.29 365.333 164.334 365.456C164.378 365.578 164.389 365.71 164.365 365.837C164.349 366.043 164.281 366.24 164.168 366.412C164.054 366.584 163.898 366.723 163.715 366.818C163.502 366.934 163.263 366.997 163.02 367ZM160.455 365.746C161.88 366.476 163.02 366.738 163.567 366.464C163.686 366.398 163.787 366.303 163.858 366.187C163.93 366.072 163.971 365.939 163.978 365.803C163.978 365.621 163.978 365.541 163.875 365.495C163.396 365.108 161.686 365.404 160.432 365.746H160.455Z" fill="#263238"/>
<path d="M159.885 365.94C159.825 365.939 159.767 365.915 159.725 365.872C159.708 365.84 159.7 365.805 159.7 365.769C159.7 365.733 159.708 365.698 159.725 365.666C159.725 365.564 160.466 363.09 161.629 362.531C161.778 362.464 161.939 362.429 162.102 362.429C162.266 362.429 162.427 362.464 162.575 362.531C162.735 362.582 162.874 362.685 162.969 362.823C163.064 362.961 163.11 363.128 163.1 363.295C163.02 364.321 160.934 365.735 159.976 365.974L159.885 365.94ZM162.097 362.828C161.986 362.831 161.877 362.858 161.777 362.908C161.071 363.25 160.489 364.583 160.204 365.393C161.207 364.971 162.587 363.854 162.632 363.227C162.632 363.124 162.632 362.999 162.37 362.885C162.285 362.839 162.192 362.808 162.097 362.794V362.828Z" fill="#263238"/>
<path d="M179.288 371.925C178 371.925 176.21 370.272 175.229 369.257C175.204 369.223 175.191 369.181 175.191 369.138C175.191 369.095 175.204 369.053 175.229 369.018C175.252 368.981 175.284 368.951 175.322 368.931C175.36 368.911 175.403 368.902 175.446 368.904C175.902 368.904 179.858 369.497 180.416 370.614C180.476 370.714 180.507 370.828 180.507 370.945C180.507 371.061 180.476 371.175 180.416 371.275C180.333 371.449 180.206 371.599 180.049 371.711C179.891 371.822 179.708 371.892 179.516 371.914L179.288 371.925ZM175.982 369.417C177.418 370.808 178.684 371.583 179.402 371.492C179.528 371.475 179.647 371.428 179.751 371.355C179.854 371.281 179.938 371.183 179.995 371.07C180.02 371.031 180.034 370.985 180.034 370.939C180.034 370.892 180.02 370.847 179.995 370.808C179.698 370.192 177.589 369.668 175.982 369.417Z" fill="#263238"/>
<path d="M176.107 369.36C175.851 369.367 175.595 369.348 175.343 369.303C175.308 369.298 175.275 369.283 175.247 369.261C175.219 369.239 175.197 369.211 175.184 369.178C175.167 369.144 175.158 369.107 175.158 369.069C175.158 369.032 175.167 368.995 175.184 368.961C175.252 368.881 176.791 367.023 178.25 366.898C178.663 366.865 179.073 366.996 179.39 367.262C179.835 367.65 179.812 367.992 179.698 368.209C179.413 368.984 177.441 369.36 176.107 369.36ZM175.811 368.938C177.088 369.007 179.128 368.585 179.39 368.026C179.39 368.026 179.482 367.844 179.185 367.593C179.067 367.49 178.929 367.413 178.78 367.366C178.631 367.319 178.474 367.303 178.319 367.319C177.336 367.594 176.461 368.163 175.811 368.95V368.938Z" fill="#263238"/>
<path d="M160.193 364.709L150.526 361.973C150.359 361.922 150.18 361.935 150.022 362.009C149.864 362.082 149.739 362.212 149.671 362.372L146.41 369.702C146.334 369.89 146.298 370.092 146.305 370.294C146.312 370.497 146.362 370.696 146.451 370.878C146.54 371.06 146.667 371.221 146.823 371.35C146.979 371.479 147.161 371.574 147.356 371.629C150.776 372.518 152.418 372.769 156.67 373.988C159.292 374.718 163.031 376.075 166.645 377.101C170.259 378.127 171.467 374.604 170.065 373.852C163.727 370.5 163.225 368.152 161.492 365.644C161.182 365.189 160.722 364.859 160.193 364.709Z" fill="#0366D6"/>
<path d="M175.492 367.924L167.238 362.224C167.098 362.122 166.926 362.075 166.753 362.091C166.581 362.108 166.421 362.188 166.303 362.315L160.831 368.197C160.698 368.349 160.598 368.528 160.539 368.721C160.48 368.915 160.463 369.119 160.489 369.319C160.515 369.52 160.583 369.713 160.69 369.885C160.796 370.057 160.937 370.204 161.105 370.318C164.012 372.267 165.517 373.054 169.153 375.573C171.433 377.123 175.845 380.566 178.923 382.709C182.001 384.853 184.292 381.911 183.198 380.749C178.296 375.516 177.224 372.233 176.415 369.257C176.274 368.718 175.947 368.245 175.492 367.924Z" fill="#0366D6"/>
<path d="M168.8 357.322L153.923 349.923L155.462 345.887L171.353 353.685L168.8 357.322Z" fill="#0366D6"/>
<path d="M149.454 217.877L148.2 221.16C148.075 221.411 148.371 221.673 148.793 221.673H186.504C186.835 221.673 187.108 221.513 187.131 221.308L187.45 218.048C187.45 217.831 187.188 217.637 186.835 217.637H150.047C149.936 217.627 149.824 217.643 149.721 217.685C149.618 217.727 149.526 217.792 149.454 217.877Z" fill="#0366D6"/>
<path opacity="0.4" d="M149.454 217.877L148.2 221.16C148.075 221.411 148.371 221.673 148.793 221.673H186.504C186.835 221.673 187.108 221.513 187.131 221.308L187.45 218.048C187.45 217.831 187.188 217.637 186.835 217.637H150.047C149.936 217.627 149.824 217.643 149.721 217.685C149.618 217.727 149.526 217.792 149.454 217.877Z" fill="white"/>
<path d="M155.393 221.992H154.402C154.208 221.992 154.06 221.89 154.071 221.764L154.538 217.535C154.538 217.421 154.721 217.318 154.915 217.318H155.906C156.1 217.318 156.248 217.421 156.237 217.535L155.77 221.764C155.758 221.89 155.587 221.992 155.393 221.992Z" fill="#0366D6"/>
<path d="M178.649 221.992H177.669C177.475 221.992 177.327 221.89 177.338 221.764L177.794 217.535C177.794 217.421 177.988 217.318 178.182 217.318H179.162C179.356 217.318 179.516 217.421 179.493 217.535L179.037 221.764C178.98 221.89 178.855 221.992 178.649 221.992Z" fill="#0366D6"/>
<g style="mix-blend-mode:multiply">
<path d="M154.527 415.051C171.394 415.051 185.068 414.061 185.068 412.84C185.068 411.618 171.394 410.628 154.527 410.628C137.66 410.628 123.986 411.618 123.986 412.84C123.986 414.061 137.66 415.051 154.527 415.051Z" fill="#F5F5F5"/>
</g>
<path d="M173.132 409.716C167.728 408.143 161.732 406.125 158.107 404.016C158.004 403.948 157.89 403.913 157.787 403.856V379.392H168.72C169.55 379.343 170.33 378.979 170.9 378.374C171.47 377.769 171.788 376.969 171.788 376.137C171.788 375.306 171.47 374.506 170.9 373.901C170.33 373.296 169.55 372.932 168.72 372.883H157.844V261.368H151.278V372.883H140.414C139.97 372.856 139.526 372.921 139.108 373.073C138.69 373.224 138.308 373.46 137.985 373.765C137.661 374.07 137.404 374.437 137.228 374.845C137.052 375.253 136.961 375.693 136.961 376.137C136.961 376.582 137.052 377.021 137.228 377.429C137.404 377.837 137.661 378.205 137.985 378.51C138.308 378.815 138.69 379.05 139.108 379.202C139.526 379.354 139.97 379.418 140.414 379.392H151.278V403.822C151.175 403.822 151.073 403.913 150.97 403.982C147.288 406.125 141.337 408.143 135.934 409.682C135.569 409.792 135.255 410.03 135.05 410.351C134.845 410.673 134.762 411.057 134.815 411.434C134.869 411.812 135.056 412.158 135.343 412.409C135.63 412.661 135.997 412.801 136.378 412.805H172.687C173.052 412.781 173.396 412.632 173.664 412.383C173.932 412.135 174.106 411.802 174.158 411.44C174.21 411.079 174.137 410.71 173.95 410.397C173.763 410.083 173.474 409.843 173.132 409.716Z" fill="#E0E0E0"/>
<path d="M174.808 250.013H134.269C131.008 250.013 128.364 252.657 128.364 255.919V267.968C128.364 271.23 131.008 273.874 134.269 273.874H174.808C178.069 273.874 180.713 271.23 180.713 267.968V255.919C180.713 252.657 178.069 250.013 174.808 250.013Z" fill="#0366D6"/>
<path d="M133.893 273.885V275.96C133.893 277.67 135.751 279.061 138.031 279.061H171.091C173.371 279.061 175.229 277.67 175.229 275.96V273.885H133.893Z" fill="#0366D6"/>
<path opacity="0.3" d="M133.893 273.885V275.96C133.893 277.67 135.751 279.061 138.031 279.061H171.091C173.371 279.061 175.229 277.67 175.229 275.96V273.885H133.893Z" fill="white"/>
</svg>
