<svg width="100%" height="100%" viewBox="0 0 600 469" fill="none" xmlns="http://www.w3.org/2000/svg">
<path d="M600 414.216H0V414.516H600V414.216Z" fill="#EBEBEB"/>
<path d="M284.4 360.696H52.6921C50.8769 360.693 49.1371 359.97 47.8547 358.685C46.5723 357.4 45.852 355.659 45.8521 353.844V28.128C45.8679 26.3232 46.5951 24.5976 47.8758 23.3259C49.1565 22.0541 50.8872 21.3391 52.6921 21.336H284.4C286.217 21.336 287.96 22.0579 289.245 23.3429C290.53 24.6279 291.252 26.3707 291.252 28.188V353.844C291.252 355.661 290.53 357.404 289.245 358.689C287.96 359.974 286.217 360.696 284.4 360.696V360.696ZM52.6921 21.576C50.9564 21.5792 49.293 22.2709 48.0668 23.4993C46.8407 24.7277 46.152 26.3924 46.1521 28.128V353.844C46.152 355.58 46.8407 357.244 48.0668 358.473C49.293 359.701 50.9564 360.393 52.6921 360.396H284.4C286.137 360.393 287.801 359.702 289.03 358.473C290.258 357.245 290.949 355.581 290.952 353.844V28.128C290.949 26.3913 290.258 24.7266 289.03 23.4985C287.801 22.2705 286.137 21.5792 284.4 21.576H52.6921Z" fill="#EBEBEB"/>
<path d="M543.972 360.696H312.252C310.436 360.693 308.695 359.97 307.41 358.686C306.126 357.401 305.403 355.66 305.4 353.844V28.128C305.419 26.3221 306.149 24.5965 307.431 23.3251C308.714 22.0537 310.446 21.3391 312.252 21.336H543.972C545.775 21.3422 547.502 22.0587 548.781 23.3301C550.059 24.6014 550.784 26.3253 550.8 28.128V353.844C550.8 355.657 550.081 357.396 548.802 358.681C547.522 359.965 545.785 360.69 543.972 360.696V360.696ZM312.252 21.576C310.515 21.5792 308.851 22.2705 307.623 23.4985C306.395 24.7266 305.703 26.3913 305.7 28.128V353.844C305.703 355.581 306.395 357.245 307.623 358.473C308.851 359.702 310.515 360.393 312.252 360.396H543.972C545.709 360.393 547.373 359.702 548.601 358.473C549.83 357.245 550.521 355.581 550.524 353.844V28.128C550.521 26.3913 549.83 24.7266 548.601 23.4985C547.373 22.2705 545.709 21.5792 543.972 21.576H312.252Z" fill="#EBEBEB"/>
<path d="M539.88 425.64H501.996V425.94H539.88V425.64Z" fill="#EBEBEB"/>
<path d="M402.408 422.388H362.316V422.688H402.408V422.388Z" fill="#EBEBEB"/>
<path d="M550.824 436.788H475.908V437.088H550.824V436.788Z" fill="#EBEBEB"/>
<path d="M86.028 434.772H62.952V435.072H86.028V434.772Z" fill="#EBEBEB"/>
<path d="M133.068 434.772H96.72V435.072H133.068V434.772Z" fill="#EBEBEB"/>
<path d="M292.968 429.708H227.496V430.008H292.968V429.708Z" fill="#EBEBEB"/>
<path d="M326.712 97.092L258.336 165.48V393.228H498.324V97.092H326.712Z" fill="white"/>
<path d="M498.324 393.876H258.324C258.152 393.876 257.987 393.808 257.866 393.686C257.744 393.565 257.676 393.4 257.676 393.228V165.48C257.676 165.395 257.693 165.311 257.726 165.233C257.759 165.154 257.807 165.083 257.868 165.024L326.268 96.624C326.391 96.5053 326.553 96.4369 326.724 96.432H498.324C498.409 96.432 498.493 96.4488 498.572 96.4813C498.651 96.5139 498.722 96.5616 498.782 96.6218C498.842 96.682 498.89 96.7534 498.923 96.832C498.955 96.9106 498.972 96.9949 498.972 97.08V393.228C498.972 393.313 498.955 393.397 498.923 393.476C498.89 393.555 498.842 393.626 498.782 393.686C498.722 393.746 498.651 393.794 498.572 393.827C498.493 393.859 498.409 393.876 498.324 393.876V393.876ZM258.984 392.592H497.676V97.74H326.988L258.984 165.744V392.592Z" fill="#E0E0E0"/>
<path d="M258.336 165.48L330.084 174.732L326.712 97.092L258.336 165.48Z" fill="#E6E6E6"/>
<path d="M258.336 165.48H326.712V97.092L258.336 165.48Z" fill="white"/>
<path d="M326.712 166.116H258.312C258.184 166.117 258.059 166.079 257.952 166.009C257.845 165.938 257.762 165.838 257.712 165.72C257.662 165.603 257.65 165.474 257.675 165.35C257.701 165.225 257.764 165.112 257.856 165.024L326.256 96.624C326.348 96.5351 326.464 96.4743 326.589 96.4488C326.715 96.4233 326.845 96.4341 326.964 96.48C327.081 96.5311 327.181 96.6149 327.251 96.7214C327.321 96.8279 327.359 96.9524 327.36 97.08V165.48C327.357 165.65 327.287 165.812 327.166 165.931C327.045 166.049 326.882 166.116 326.712 166.116V166.116ZM259.896 164.832H326.076V98.652L259.896 164.832Z" fill="#E0E0E0"/>
<path d="M392.208 263.964L433.008 223.164C433.92 222.252 434.643 221.17 435.136 219.979C435.63 218.788 435.883 217.511 435.883 216.222C435.883 214.933 435.63 213.656 435.136 212.465C434.643 211.274 433.92 210.192 433.008 209.28C432.096 208.368 431.014 207.645 429.823 207.152C428.632 206.658 427.355 206.405 426.066 206.405C424.777 206.405 423.5 206.658 422.309 207.152C421.118 207.645 420.036 208.368 419.124 209.28L378.324 250.08L337.524 209.28C335.683 207.439 333.186 206.405 330.582 206.405C327.978 206.405 325.481 207.439 323.64 209.28C321.799 211.121 320.765 213.618 320.765 216.222C320.765 218.826 321.799 221.323 323.64 223.164L364.44 263.964L323.64 304.764C321.799 306.605 320.765 309.102 320.765 311.706C320.765 314.31 321.799 316.807 323.64 318.648C325.481 320.489 327.978 321.523 330.582 321.523C333.186 321.523 335.683 320.489 337.524 318.648L378.324 277.848L419.124 318.648C420.965 320.489 423.462 321.523 426.066 321.523C428.67 321.523 431.167 320.489 433.008 318.648C434.849 316.807 435.883 314.31 435.883 311.706C435.883 309.102 434.849 306.605 433.008 304.764L392.208 263.964Z" fill="#F0F0F0"/>
<path d="M267.6 230.136C265.298 232.436 262.178 233.727 258.924 233.727C255.67 233.727 252.55 232.436 250.248 230.136L210.876 190.752L228.228 173.4L267.6 212.832C269.885 215.132 271.167 218.242 271.167 221.484C271.167 224.726 269.885 227.836 267.6 230.136V230.136Z" fill="#F0F0F0"/>
<path d="M210.87 190.828L228.223 173.476L229.826 175.08C231.489 176.743 232.424 178.998 232.424 181.35C232.424 183.702 231.489 185.958 229.826 187.621L225.015 192.432C223.352 194.095 221.097 195.029 218.745 195.029C216.393 195.029 214.137 194.095 212.474 192.432L210.87 190.828V190.828Z" fill="#E0E0E0"/>
<path d="M101.652 64.188C89.7451 76.1068 81.6392 91.2882 78.3587 107.813C75.0783 124.338 76.7705 141.464 83.2217 157.027C89.6728 172.591 100.593 185.892 114.602 195.25C128.612 204.608 145.081 209.603 161.928 209.603C178.775 209.603 195.244 204.608 209.254 195.25C223.263 185.892 234.183 172.591 240.634 157.027C247.085 141.464 248.778 124.338 245.497 107.813C242.217 91.2882 234.111 76.1068 222.204 64.188C214.291 56.2673 204.895 49.9838 194.553 45.6967C184.21 41.4096 173.124 39.2029 161.928 39.2029C150.732 39.2029 139.646 41.4096 129.303 45.6967C118.961 49.9838 109.565 56.2673 101.652 64.188V64.188ZM217.284 179.82C206.337 190.767 192.389 198.222 177.205 201.242C162.021 204.262 146.283 202.712 131.98 196.787C117.677 190.863 105.452 180.83 96.8507 167.958C88.2497 155.085 83.659 139.951 83.659 124.47C83.659 108.989 88.2497 93.8547 96.8507 80.9823C105.452 68.1099 117.677 58.0771 131.98 52.1525C146.283 46.2279 162.021 44.6777 177.205 47.6979C192.389 50.7181 206.337 58.173 217.284 69.12C224.553 76.3886 230.319 85.0177 234.252 94.5147C238.186 104.012 240.211 114.19 240.211 124.47C240.211 134.749 238.186 144.928 234.252 154.425C230.319 163.922 224.553 172.551 217.284 179.82V179.82Z" fill="#E0E0E0"/>
<path d="M206.712 172.116C206.148 172.115 205.597 171.946 205.129 171.632C204.661 171.319 204.296 170.873 204.08 170.352C203.864 169.831 203.808 169.258 203.917 168.705C204.027 168.152 204.298 167.643 204.696 167.244C216.02 155.889 222.379 140.507 222.379 124.47C222.379 108.433 216.02 93.0513 204.696 81.696C204.405 81.4375 204.17 81.1222 204.005 80.7695C203.841 80.4169 203.75 80.0343 203.738 79.6452C203.727 79.2562 203.795 78.8689 203.939 78.5072C204.082 78.1455 204.298 77.8169 204.574 77.5417C204.849 77.2665 205.177 77.0504 205.539 76.9068C205.901 76.7632 206.288 76.695 206.677 76.7064C207.066 76.7179 207.449 76.8087 207.802 76.9734C208.154 77.1381 208.469 77.3731 208.728 77.664C221.121 90.0863 228.081 106.917 228.081 124.464C228.081 142.011 221.121 158.842 208.728 171.264C208.464 171.532 208.151 171.745 207.805 171.891C207.459 172.037 207.088 172.113 206.712 172.116V172.116Z" fill="#E0E0E0"/>
<path d="M100.296 141.972C99.6539 141.973 99.0305 141.756 98.5272 141.357C98.0239 140.958 97.6703 140.401 97.524 139.776C95.4484 130.986 95.1866 121.865 96.7547 112.97C98.3227 104.076 101.688 95.5943 106.644 88.044C107.061 87.4074 107.714 86.9626 108.459 86.8073C109.203 86.6521 109.98 86.799 110.616 87.216C111.253 87.6329 111.697 88.2856 111.853 89.0305C112.008 89.7754 111.861 90.5514 111.444 91.188C106.906 98.0851 103.821 105.834 102.377 113.963C100.933 122.092 101.16 130.43 103.044 138.468C103.133 138.832 103.149 139.21 103.091 139.581C103.033 139.951 102.902 140.306 102.705 140.625C102.509 140.944 102.251 141.222 101.946 141.44C101.642 141.659 101.297 141.815 100.932 141.9C100.723 141.945 100.51 141.97 100.296 141.972V141.972Z" fill="#E0E0E0"/>
<path d="M117.144 172.116C116.387 172.114 115.662 171.812 115.128 171.276C109.988 166.155 105.73 160.219 102.528 153.708C102.362 153.372 102.265 153.007 102.24 152.634C102.216 152.26 102.265 151.886 102.386 151.532C102.506 151.177 102.695 150.85 102.942 150.569C103.189 150.287 103.488 150.057 103.824 149.892C104.16 149.726 104.525 149.629 104.898 149.604C105.271 149.58 105.646 149.629 106 149.75C106.355 149.87 106.682 150.059 106.963 150.306C107.245 150.553 107.474 150.852 107.64 151.188C110.576 157.134 114.467 162.558 119.16 167.244C119.693 167.779 119.993 168.504 119.993 169.26C119.993 170.016 119.693 170.741 119.16 171.276C118.624 171.809 117.9 172.11 117.144 172.116V172.116Z" fill="#E0E0E0"/>
<path d="M253.239 339.822L264.457 351.04L238.407 377.09C237.075 378.422 235.268 379.17 233.384 379.17C231.5 379.17 229.693 378.422 228.36 377.09L227.181 375.91C225.849 374.578 225.1 372.771 225.1 370.887C225.1 369.003 225.849 367.196 227.181 365.864L253.231 339.814L253.239 339.822Z" fill="#F0F0F0"/>
<path d="M253.256 339.846L264.457 351.047L263.922 351.581C262.714 352.79 261.075 353.469 259.366 353.469C257.657 353.469 256.018 352.79 254.809 351.581L252.705 349.477C251.496 348.268 250.818 346.629 250.818 344.92C250.818 343.211 251.496 341.572 252.705 340.364L253.24 339.829L253.256 339.846Z" fill="#E0E0E0"/>
<path d="M341.22 278.976L314.94 305.244C312.023 308.37 310.435 312.507 310.51 316.782C310.585 321.057 312.318 325.135 315.342 328.157C318.367 331.179 322.448 332.908 326.723 332.978C330.998 333.049 335.133 331.456 338.256 328.536L348.888 317.916C351.126 304.436 348.402 290.601 341.22 278.976Z" fill="#F0F0F0"/>
<path d="M351.12 304.32C350.367 293.442 346.405 283.031 339.736 274.405C333.066 265.778 323.987 259.323 313.649 255.857C303.31 252.39 292.176 252.068 281.654 254.93C271.132 257.792 261.695 263.71 254.537 271.936C247.379 280.162 242.821 290.326 241.439 301.142C240.058 311.959 241.916 322.942 246.777 332.703C251.639 342.463 259.286 350.563 268.751 355.977C278.216 361.392 289.074 363.877 299.952 363.12C314.533 362.105 328.115 355.34 337.71 344.314C347.305 333.288 352.129 318.902 351.12 304.32ZM245.628 311.664C244.933 301.677 247.215 291.708 252.186 283.018C257.156 274.328 264.593 267.307 273.554 262.843C282.515 258.38 292.598 256.673 302.529 257.941C312.46 259.208 321.791 263.392 329.344 269.963C336.897 276.534 342.332 285.197 344.961 294.857C347.59 304.517 347.296 314.739 344.115 324.232C340.934 333.724 335.01 342.06 327.091 348.186C319.172 354.311 309.615 357.951 299.628 358.644C286.237 359.574 273.026 355.147 262.899 346.336C252.772 337.526 246.56 325.054 245.628 311.664Z" fill="#E0E0E0"/>
<path d="M268.056 340.428C263.809 336.747 260.331 332.263 257.82 327.234C255.31 322.206 253.818 316.731 253.428 311.124C253.4 310.876 253.423 310.625 253.495 310.387C253.567 310.148 253.686 309.926 253.846 309.735C254.006 309.543 254.203 309.386 254.425 309.273C254.647 309.16 254.89 309.092 255.139 309.075C255.387 309.058 255.637 309.092 255.872 309.174C256.108 309.256 256.324 309.385 256.509 309.553C256.693 309.72 256.842 309.924 256.945 310.151C257.049 310.377 257.106 310.623 257.112 310.872C257.847 321.206 262.647 330.827 270.46 337.631C278.273 344.434 288.463 347.865 298.8 347.172C299.287 347.139 299.767 347.3 300.135 347.621C300.503 347.941 300.729 348.395 300.762 348.882C300.795 349.369 300.634 349.849 300.313 350.217C299.993 350.585 299.539 350.811 299.052 350.844C293.454 351.233 287.835 350.513 282.516 348.726C277.197 346.938 272.283 344.118 268.056 340.428V340.428Z" fill="#E0E0E0"/>
<path d="M334.368 298.536C334.094 298.299 333.898 297.986 333.804 297.636C332.359 292.5 329.883 287.712 326.526 283.565C323.169 279.418 319.002 275.999 314.28 273.516C313.867 273.278 313.562 272.89 313.428 272.433C313.294 271.976 313.342 271.484 313.562 271.061C313.782 270.639 314.157 270.317 314.608 270.164C315.059 270.011 315.552 270.038 315.984 270.24C321.153 272.958 325.714 276.7 329.388 281.239C333.063 285.778 335.774 291.018 337.356 296.64C337.421 296.873 337.44 297.117 337.411 297.358C337.382 297.598 337.306 297.83 337.186 298.041C337.067 298.252 336.907 298.437 336.716 298.586C336.524 298.735 336.306 298.844 336.072 298.908C335.779 298.989 335.471 298.997 335.174 298.933C334.877 298.868 334.6 298.732 334.368 298.536V298.536Z" fill="#E0E0E0"/>
<path d="M292.068 268.692C291.701 268.366 291.477 267.909 291.444 267.42C291.411 266.934 291.571 266.454 291.891 266.085C292.21 265.716 292.662 265.489 293.148 265.452C297.828 265.127 302.53 265.569 307.068 266.76C307.304 266.822 307.526 266.93 307.721 267.078C307.915 267.226 308.079 267.411 308.202 267.622C308.325 267.834 308.405 268.067 308.438 268.309C308.471 268.551 308.456 268.798 308.394 269.034C308.332 269.27 308.223 269.492 308.076 269.687C307.928 269.881 307.743 270.045 307.532 270.168C307.32 270.291 307.087 270.371 306.845 270.404C306.603 270.437 306.356 270.422 306.12 270.36C301.979 269.264 297.685 268.859 293.412 269.16C292.92 269.184 292.438 269.017 292.068 268.692V268.692Z" fill="#E0E0E0"/>
<path d="M300 468.408C428.499 468.408 532.668 462.326 532.668 454.824C532.668 447.322 428.499 441.24 300 441.24C171.501 441.24 67.332 447.322 67.332 454.824C67.332 462.326 171.501 468.408 300 468.408Z" fill="#F5F5F5"/>
<path d="M165.384 130.392C155.712 140.124 172.152 155.232 161.292 162.168C170.16 166.62 201.24 172.272 209.292 154.764C203.424 150.204 207.504 138.996 202.092 128.232C193.992 112.272 155.712 119.34 165.384 130.392Z" fill="#263238"/>
<path d="M166.26 130.14C163.248 129.636 153.06 134.7 160.644 148.296C166.752 159.288 161.664 160.068 161.664 160.068C161.664 160.068 167.664 160.236 164.064 152.064C160.248 143.34 158.46 134.292 166.26 130.14Z" fill="#263238"/>
<path d="M237.6 216.468C237.229 215.789 236.606 215.283 235.865 215.058C235.125 214.834 234.326 214.909 233.64 215.268L232.932 215.64C232.704 215.76 232.272 216.048 231.924 216.252C231.576 216.456 231.168 216.684 230.784 216.876C230.027 217.257 229.245 217.586 228.444 217.86C226.961 218.397 225.401 218.693 223.824 218.736C222.375 218.753 220.935 218.522 219.564 218.052C218.693 217.729 217.854 217.327 217.056 216.852C216.024 214.572 215.04 212.268 214.2 209.892C213.18 207.12 212.28 204.288 211.488 201.42C210.696 198.552 210 195.648 209.424 192.732C209.124 191.28 208.86 189.816 208.62 188.364L208.296 186.192C208.188 185.496 208.092 184.704 208.032 184.152V183.912C207.873 182.321 207.088 180.858 205.85 179.845C204.613 178.832 203.023 178.353 201.432 178.512C199.841 178.671 198.378 179.456 197.365 180.694C196.352 181.931 195.873 183.521 196.032 185.112C196.116 186.132 196.188 186.912 196.296 187.764C196.404 188.616 196.524 189.432 196.644 190.26C196.908 191.916 197.208 193.548 197.544 195.18C198.211 198.423 199.052 201.628 200.064 204.78C200.532 206.364 201.108 207.924 201.648 209.496C202.188 211.068 202.848 212.604 203.532 214.128C204.842 217.207 206.328 220.208 207.984 223.116L208.128 223.38C208.559 224.161 209.204 224.802 209.988 225.228C212.256 226.464 214.707 227.331 217.248 227.796C219.858 228.257 222.532 228.2 225.12 227.628C228.772 226.781 232.127 224.96 234.828 222.36C235.272 221.952 235.692 221.532 236.028 221.088C236.364 220.644 236.772 220.224 237.228 219.6C237.58 219.167 237.802 218.642 237.867 218.088C237.933 217.533 237.841 216.972 237.6 216.468Z" fill="#FF8B7B"/>
<path d="M245.58 205.236H245.232C244.083 205.212 242.945 205.452 241.904 205.939C240.863 206.426 239.949 207.146 239.232 208.044L233.436 215.316V220.284C238.092 222.132 243.996 217.152 243.996 217.152L246.984 216.396C247.99 216.145 248.867 215.53 249.445 214.67C250.024 213.81 250.263 212.766 250.116 211.74L249.684 208.824C249.543 207.834 249.051 206.926 248.298 206.268C247.545 205.609 246.58 205.243 245.58 205.236V205.236Z" fill="#FF8B7B"/>
<path d="M207.876 177.192C211.752 181.176 211.992 193.068 211.992 193.068L196.488 205.548C196.488 205.548 190.116 187.908 193.644 181.68C196.632 176.4 202.932 172.116 207.876 177.192Z" fill="#0366D6"/>
<g opacity="0.2">
<path d="M207.876 177.192C211.752 181.176 211.992 193.068 211.992 193.068L196.488 205.548C196.488 205.548 190.116 187.908 193.644 181.68C196.632 176.4 202.932 172.116 207.876 177.192Z" fill="white"/>
</g>
<path d="M182.22 444.54L190.788 445.476L191.964 422.196L183.396 421.248L182.22 444.54Z" fill="#FF8B7B"/>
<path d="M192.192 439.884H182.124C181.921 439.877 181.724 439.95 181.574 440.087C181.423 440.224 181.332 440.413 181.32 440.616L180.648 450.132C180.648 450.63 180.842 451.108 181.19 451.465C181.537 451.821 182.01 452.028 182.508 452.04C186.756 452.04 186.804 452.04 192.108 452.04H206.4C210.792 452.04 210.804 447.588 208.908 447.18C200.376 445.38 197.052 442.884 194.04 440.508C193.511 440.1 192.86 439.88 192.192 439.884V439.884Z" fill="#263238"/>
<path opacity="0.2" d="M191.964 422.208L191.352 434.208H182.736L183.396 421.26L191.964 422.208Z" fill="black"/>
<path d="M196.584 236.46C196.584 236.46 204 298.536 204 326.136C198.156 364.536 193.2 431.928 193.2 431.928L181.344 431.616C181.344 431.616 175.956 358.224 180.948 326.532C174.552 298.14 166.656 232.62 166.656 232.62L196.584 236.46Z" fill="#263238"/>
<path opacity="0.2" d="M173.724 253.74C172.311 254.362 170.94 255.075 169.62 255.876C171.252 268.128 173.4 283.548 175.68 297.78C179.568 286.068 177.468 260.316 173.724 253.74Z" fill="black"/>
<path d="M89.436 422.928L96.504 427.86L108.696 407.988L101.628 403.056L89.436 422.928Z" fill="#FF8B7B"/>
<path d="M98.292 425.256L92.292 417.18C92.1778 417.015 92.0032 416.9 91.8057 416.862C91.6083 416.824 91.4037 416.865 91.236 416.976L83.196 422.136C82.795 422.431 82.5261 422.872 82.4475 423.364C82.3689 423.856 82.4869 424.359 82.776 424.764C85.284 428.184 85.332 428.208 88.488 432.456C90.444 435.06 94.344 440.304 97.032 443.916C99.72 447.528 103.236 444.792 102.42 443.016C98.82 435.108 98.82 431.016 98.892 427.128C98.9043 426.455 98.6933 425.797 98.292 425.256V425.256Z" fill="#263238"/>
<path opacity="0.2" d="M108.684 407.988L102.408 418.236L94.8361 414.108L101.628 403.056L108.684 407.988Z" fill="black"/>
<path d="M132.792 431.256C126.66 431.256 113.892 431.256 113.676 422.232C113.508 415.152 122.268 412.212 129.828 411.852C130.666 411.812 131.503 411.937 132.292 412.22C133.082 412.503 133.807 412.939 134.428 413.503C135.049 414.067 135.552 414.748 135.91 415.506C136.267 416.265 136.472 417.086 136.512 417.924V418.404C145.08 417.996 150.624 416.124 152.652 412.932C157.224 405.732 148.464 387.144 140.004 369.18C130.044 348.048 118.764 324.108 118.548 301.176C118.54 300.338 118.697 299.506 119.011 298.728C119.325 297.951 119.788 297.243 120.375 296.644C120.963 296.046 121.662 295.569 122.434 295.241C123.205 294.913 124.034 294.74 124.872 294.732V294.732C126.554 294.735 128.167 295.4 129.362 296.584C130.557 297.768 131.237 299.374 131.256 301.056C131.448 321.192 142.056 343.788 151.488 363.732C162.288 386.748 171.708 406.632 163.368 419.772C158.532 427.5 148.512 431.256 132.792 431.256Z" fill="#0366D6"/>
<path d="M187.092 235.236C187.092 235.236 166.62 306.18 156.624 331.908C137.256 365.58 105.12 417.108 105.12 417.108L94.8601 411.108C94.8601 411.108 118.86 351.588 135 323.868C139.332 295.068 155.712 231.156 155.712 231.156L187.092 235.236Z" fill="#263238"/>
<path d="M100.14 431.052C100.547 431.726 101.175 432.239 101.916 432.504C102.133 432.556 102.36 432.547 102.572 432.477C102.784 432.407 102.973 432.279 103.116 432.108C103.216 432.016 103.292 431.902 103.338 431.774C103.384 431.647 103.398 431.51 103.38 431.376C103.236 429.936 99.5161 428.064 98.7721 427.704C98.7287 427.686 98.6804 427.685 98.6362 427.701C98.592 427.716 98.555 427.747 98.5321 427.788C98.5032 427.833 98.4878 427.885 98.4878 427.938C98.4878 427.991 98.5032 428.043 98.5321 428.088C98.9728 429.125 99.5112 430.117 100.14 431.052V431.052ZM102.696 431.052C102.802 431.184 102.872 431.341 102.9 431.508C102.906 431.555 102.9 431.602 102.883 431.646C102.867 431.69 102.839 431.729 102.804 431.76C102.707 431.87 102.583 431.953 102.444 431.999C102.305 432.046 102.156 432.054 102.012 432.024C101.22 431.868 100.176 430.584 99.1681 428.556C100.475 429.165 101.668 429.993 102.696 431.004V431.052Z" fill="#0366D6"/>
<path d="M98.472 428.136L98.544 428.196C99.744 428.856 102.864 429.396 103.548 428.4C103.663 428.218 103.719 428.005 103.708 427.791C103.697 427.576 103.62 427.37 103.488 427.2C102.288 425.076 98.688 427.572 98.532 427.68C98.4963 427.709 98.4678 427.745 98.449 427.787C98.4302 427.829 98.4217 427.874 98.424 427.92C98.4192 427.995 98.4358 428.07 98.472 428.136ZM103.032 427.44C103.067 427.482 103.099 427.526 103.128 427.572C103.26 427.8 103.284 427.968 103.212 428.064C102.816 428.64 100.512 428.436 99.168 427.908C100.068 427.368 102.168 426.276 103.032 427.44Z" fill="#0366D6"/>
<path d="M198 441.864C198.787 441.936 199.574 441.737 200.232 441.3C200.399 441.154 200.522 440.964 200.588 440.753C200.653 440.541 200.659 440.315 200.604 440.1C200.587 439.964 200.539 439.834 200.464 439.72C200.389 439.606 200.29 439.51 200.172 439.44C198.972 438.708 195.216 440.568 194.484 440.952C194.443 440.975 194.411 441.011 194.393 441.055C194.376 441.099 194.374 441.147 194.388 441.192C194.406 441.242 194.437 441.287 194.477 441.323C194.516 441.358 194.564 441.383 194.616 441.396C195.725 441.667 196.859 441.824 198 441.864V441.864ZM199.488 439.788C199.659 439.777 199.829 439.814 199.98 439.896C200.04 439.896 200.1 439.98 200.124 440.124C200.156 440.267 200.148 440.417 200.101 440.556C200.055 440.696 199.971 440.82 199.86 440.916C199.272 441.456 197.616 441.528 195.384 441.132C196.645 440.456 198.013 440.001 199.428 439.788H199.488Z" fill="#0366D6"/>
<path d="M194.616 441.456H194.7C195.9 440.904 198.24 438.708 197.856 437.568C197.776 437.38 197.642 437.219 197.472 437.106C197.301 436.993 197.101 436.932 196.896 436.932C194.496 436.656 194.328 441 194.316 441.18C194.316 441.228 194.329 441.275 194.352 441.317C194.375 441.359 194.408 441.394 194.448 441.42C194.499 441.449 194.558 441.461 194.616 441.456V441.456ZM196.776 437.376H196.944C197.196 437.376 197.352 437.484 197.388 437.604C197.616 438.264 196.08 440.004 194.844 440.76C194.952 439.716 195.336 437.376 196.8 437.376H196.776Z" fill="#0366D6"/>
<path d="M155.712 231.216L196.584 236.448C205.8 205.416 208.836 190.428 209.652 183.216C209.868 181.403 209.444 179.572 208.454 178.038C207.464 176.505 205.969 175.365 204.228 174.816C201.828 174.048 198.732 173.136 195.66 172.416C194.616 172.14 193.548 171.888 192.504 171.648C186.385 170.407 180.185 169.605 173.952 169.248C173.028 169.164 172.116 169.116 171.192 169.068C169.38 168.972 167.592 168.948 165.96 168.948C164.735 168.947 163.523 169.2 162.402 169.693C161.28 170.186 160.274 170.906 159.446 171.81C158.619 172.713 157.989 173.778 157.596 174.938C157.203 176.099 157.056 177.328 157.164 178.548C157.488 182.148 157.74 185.496 157.932 188.568C158.388 195.768 158.532 201.528 158.424 206.568C158.179 214.843 157.272 223.085 155.712 231.216V231.216Z" fill="#0366D6"/>
<g opacity="0.3">
<path d="M155.712 231.216L196.584 236.448C205.8 205.416 208.836 190.428 209.652 183.216C209.868 181.403 209.444 179.572 208.454 178.038C207.464 176.505 205.969 175.365 204.228 174.816C201.828 174.048 198.732 173.136 195.66 172.416C194.616 172.14 193.548 171.888 192.504 171.648C186.385 170.407 180.185 169.605 173.952 169.248C173.028 169.164 172.116 169.116 171.192 169.068C169.38 168.972 167.592 168.948 165.96 168.948C164.735 168.947 163.523 169.2 162.402 169.693C161.28 170.186 160.274 170.906 159.446 171.81C158.619 172.713 157.989 173.778 157.596 174.938C157.203 176.099 157.056 177.328 157.164 178.548C157.488 182.148 157.74 185.496 157.932 188.568C158.388 195.768 158.532 201.528 158.424 206.568C158.179 214.843 157.272 223.085 155.712 231.216V231.216Z" fill="white"/>
</g>
<path opacity="0.3" d="M158.4 206.52C163.8 199.536 165.756 191.544 164.004 187.14L157.908 188.508C158.4 195.684 158.532 201.468 158.4 206.52Z" fill="#0366D6"/>
<path d="M195.66 172.344C194.604 172.068 193.548 171.816 192.504 171.576C186.38 170.34 180.177 169.538 173.94 169.176C173.016 169.104 172.104 169.056 171.192 169.008L169.596 168.936L170.796 171.036C170.964 171.324 175.044 177.996 185.196 185.172L187.368 186.684L189.456 185.088C191.467 183.646 193.11 181.75 194.252 179.555C195.395 177.36 196.004 174.926 196.032 172.452L195.66 172.344Z" fill="white"/>
<path d="M178.452 156.84C178.068 161.892 176.88 167.04 173.94 169.2C173.94 169.2 177.684 175.428 187.38 182.232C193.452 177.588 192.504 171.576 192.504 171.576C186.048 169.176 186.504 164.7 189.228 157.56L184.188 154.848C183.753 154.369 183.187 154.028 182.56 153.868C181.933 153.708 181.273 153.736 180.662 153.948C180.05 154.161 179.515 154.548 179.122 155.062C178.729 155.576 178.496 156.194 178.452 156.84V156.84Z" fill="#FF8B7B"/>
<path opacity="0.2" d="M184.188 154.848C183.78 154.397 183.255 154.067 182.671 153.896C182.087 153.725 181.467 153.718 180.88 153.877C180.292 154.036 179.76 154.354 179.342 154.797C178.925 155.239 178.637 155.789 178.512 156.384C180.427 160.244 183.514 163.399 187.332 165.396C187.469 162.69 188.108 160.033 189.216 157.56L184.188 154.848Z" fill="black"/>
<path d="M170.604 141C173.112 150.756 173.964 154.932 179.928 159C188.892 165.168 200.328 159.96 200.772 149.664C201.192 140.388 197.028 125.988 186.612 123.924C184.313 123.454 181.931 123.581 179.695 124.292C177.458 125.004 175.441 126.276 173.836 127.988C172.231 129.701 171.091 131.796 170.525 134.073C169.96 136.351 169.987 138.736 170.604 141V141Z" fill="#FF8B7B"/>
<path d="M195.432 125.94C189.556 131.163 182.586 135.005 175.032 137.184C175.032 137.184 182.484 153.036 168.54 149.04C164.496 135.54 168.54 128.532 172.14 125.232C183.228 121.632 191.028 120.432 195.432 125.94Z" fill="#263238"/>
<path d="M170.136 150.612C170.954 152.38 172.438 153.752 174.264 154.428C176.664 155.292 178.092 153.228 177.576 150.828C177.108 148.68 175.284 145.632 172.776 145.788C172.234 145.834 171.711 146.014 171.255 146.311C170.799 146.609 170.423 147.014 170.162 147.492C169.901 147.969 169.761 148.504 169.757 149.049C169.752 149.593 169.883 150.13 170.136 150.612V150.612Z" fill="#FF8B7B"/>
<path d="M155.412 228.744L153.096 232.164C152.916 232.428 153.216 232.764 153.684 232.824L196.548 238.32C196.92 238.32 197.244 238.224 197.304 237.996L198.144 234.396C198.144 234.144 197.904 233.892 197.508 233.832L156.108 228.528C155.983 228.499 155.853 228.503 155.731 228.541C155.608 228.579 155.498 228.649 155.412 228.744V228.744Z" fill="#0366D6"/>
<path d="M160.368 234.084L159.264 233.94C159.048 233.94 158.892 233.772 158.928 233.64L160.056 228.948C160.099 228.869 160.167 228.807 160.25 228.772C160.333 228.737 160.426 228.731 160.512 228.756L161.628 228.9C161.844 228.9 162 229.056 161.964 229.2L160.836 233.88C160.8 234.024 160.596 234.108 160.368 234.084Z" fill="#263238"/>
<path d="M193.38 238.308L192.276 238.176C192.06 238.176 191.904 238.008 191.94 237.864L193.068 233.184C193.068 233.052 193.308 232.956 193.524 232.98L194.64 233.124C194.856 233.124 195.012 233.292 194.976 233.424L193.848 238.116C193.812 238.248 193.608 238.344 193.38 238.308Z" fill="#263238"/>
<path d="M176.88 236.196L175.776 236.052C175.548 236.052 175.392 235.896 175.428 235.752L176.556 231.072C176.556 230.928 176.796 230.844 177.024 230.868L178.128 231.012C178.344 231.012 178.5 231.18 178.476 231.312L177.336 236.004C177.312 236.136 177.096 236.22 176.88 236.196Z" fill="#263238"/>
<path d="M187.32 140.58C187.464 141.384 188.016 141.96 188.52 141.852C189.024 141.744 189.348 141.024 189.192 140.22C189.036 139.416 188.484 138.84 187.992 138.948C187.5 139.056 187.2 139.776 187.32 140.58Z" fill="#263238"/>
<path d="M196.392 138.84C196.548 139.644 197.1 140.208 197.592 140.112C198.084 140.016 198.42 139.272 198.264 138.468C198.108 137.664 197.556 137.1 197.064 137.196C196.572 137.292 196.248 138.036 196.392 138.84Z" fill="#263238"/>
<path d="M196.8 137.292L198.624 136.356C198.624 136.356 198 138.06 196.8 137.292Z" fill="#263238"/>
<path d="M193.992 140.64C195.064 142.33 196.36 143.868 197.844 145.212C197.492 145.586 197.063 145.877 196.586 146.066C196.109 146.255 195.596 146.336 195.084 146.304L193.992 140.64Z" fill="#FF5652"/>
<path d="M188.328 149.544C188.292 149.586 188.271 149.639 188.27 149.694C188.268 149.75 188.286 149.804 188.32 149.848C188.354 149.892 188.402 149.922 188.456 149.935C188.51 149.947 188.566 149.94 188.616 149.916C189.523 149.453 190.526 149.212 191.544 149.212C192.562 149.212 193.565 149.453 194.472 149.916C194.526 149.947 194.591 149.955 194.651 149.94C194.712 149.924 194.764 149.885 194.796 149.832C194.829 149.777 194.84 149.712 194.826 149.65C194.813 149.587 194.776 149.532 194.724 149.496C193.745 148.995 192.662 148.733 191.562 148.733C190.462 148.733 189.379 148.995 188.4 149.496C188.4 149.496 188.4 149.52 188.328 149.544Z" fill="#263238"/>
<path d="M184.188 138.108C184.262 138.062 184.321 137.995 184.356 137.916C184.606 137.369 184.982 136.889 185.454 136.516C185.925 136.142 186.478 135.886 187.068 135.768C187.131 135.761 187.192 135.741 187.248 135.709C187.303 135.678 187.352 135.636 187.391 135.586C187.43 135.536 187.459 135.478 187.475 135.417C187.492 135.355 187.496 135.291 187.488 135.228C187.482 135.165 187.464 135.104 187.434 135.049C187.404 134.994 187.363 134.945 187.313 134.906C187.264 134.866 187.207 134.837 187.147 134.821C187.086 134.804 187.022 134.8 186.96 134.808C186.21 134.948 185.504 135.265 184.901 135.733C184.298 136.2 183.815 136.805 183.492 137.496C183.445 137.591 183.431 137.698 183.452 137.801C183.472 137.905 183.526 137.999 183.606 138.068C183.685 138.138 183.785 138.18 183.89 138.187C183.995 138.194 184.1 138.166 184.188 138.108V138.108Z" fill="#263238"/>
<path d="M199.092 132.024L199.152 131.964C199.189 131.912 199.215 131.853 199.228 131.792C199.242 131.73 199.243 131.665 199.232 131.603C199.221 131.54 199.198 131.481 199.163 131.427C199.129 131.374 199.084 131.328 199.032 131.292C198.412 130.846 197.694 130.555 196.938 130.442C196.183 130.329 195.411 130.399 194.688 130.644C194.572 130.694 194.481 130.787 194.431 130.903C194.382 131.019 194.38 131.15 194.424 131.268C194.472 131.386 194.564 131.479 194.681 131.529C194.798 131.578 194.93 131.579 195.048 131.532C195.623 131.344 196.234 131.296 196.831 131.392C197.428 131.488 197.993 131.725 198.48 132.084C198.572 132.15 198.685 132.18 198.797 132.169C198.91 132.158 199.014 132.106 199.092 132.024V132.024Z" fill="#263238"/>
<path d="M187.764 139.032L189.588 138.108C189.588 138.108 188.88 139.8 187.764 139.032Z" fill="#263238"/>
<path d="M124.932 307.5C123.249 307.5 121.634 306.836 120.439 305.651C119.243 304.467 118.564 302.859 118.548 301.176C118.38 284.136 124.056 269.748 134.964 259.572C148.392 247.044 169.332 241.224 193.956 243.168C211.224 244.536 222.3 240.336 235.116 235.452C237.228 234.66 239.352 233.844 241.536 233.052C243.127 232.473 244.884 232.549 246.418 233.265C247.953 233.981 249.141 235.277 249.72 236.868C250.299 238.459 250.223 240.216 249.507 241.75C248.791 243.285 247.495 244.473 245.904 245.052C243.78 245.82 241.716 246.612 239.664 247.392C226.596 252.36 213.096 257.484 192.948 255.9C171.948 254.232 154.452 258.852 143.676 268.908C135.276 276.684 131.184 287.496 131.316 301.056C131.324 301.894 131.167 302.726 130.853 303.504C130.54 304.281 130.076 304.989 129.489 305.588C128.901 306.186 128.202 306.663 127.431 306.991C126.659 307.319 125.83 307.492 124.992 307.5H124.932Z" fill="#0366D6"/>
<path d="M272.574 254.066L246.895 263.473C244.752 264.258 242.386 264.16 240.316 263.2C238.245 262.24 236.642 260.497 235.857 258.354L225.252 229.407C224.467 227.265 224.566 224.898 225.526 222.828C226.486 220.758 228.229 219.154 230.371 218.369L256.05 208.961L272.562 254.032L272.574 254.066Z" fill="#0366D6"/>
<path opacity="0.7" d="M272.574 254.066L246.895 263.473C244.752 264.258 242.386 264.16 240.316 263.2C238.245 262.24 236.642 260.497 235.857 258.354L225.252 229.407C224.467 227.265 224.566 224.898 225.526 222.828C226.486 220.758 228.229 219.154 230.371 218.369L256.05 208.961L272.562 254.032L272.574 254.066Z" fill="white"/>
<path opacity="0.2" d="M244.608 213.144L256.068 208.956L272.58 254.052L261.12 258.252C260.357 257.514 259.774 256.611 259.416 255.612L245.016 216.264C244.639 215.27 244.5 214.202 244.608 213.144V213.144Z" fill="#0366D6"/>
<path d="M281.803 220.189L280.676 220.601L283.426 228.106L284.552 227.693L281.803 220.189Z" fill="#0366D6"/>
<path d="M278.94 215.928L274.896 204.864C274.202 202.988 272.951 201.369 271.31 200.226C269.668 199.082 267.716 198.469 265.716 198.468C264.578 198.465 263.448 198.664 262.38 199.056L255.084 201.732L254.664 200.604L261.972 197.928C263.171 197.488 264.439 197.265 265.716 197.268C267.964 197.273 270.156 197.966 271.998 199.253C273.841 200.54 275.246 202.36 276.024 204.468L280.068 215.532L278.94 215.928Z" fill="#0366D6"/>
<path d="M272.774 257.298L283.49 253.422C286.991 252.155 288.802 248.291 287.536 244.789L272.991 204.576C271.724 201.075 267.86 199.263 264.358 200.53L253.642 204.406C250.141 205.672 248.33 209.537 249.596 213.038L264.141 253.251C265.408 256.752 269.272 258.564 272.774 257.298Z" fill="#0366D6"/>
<path d="M266.64 216.78C266.885 217.449 266.925 218.176 266.757 218.868C266.588 219.56 266.218 220.187 265.693 220.669C265.169 221.15 264.513 221.466 263.808 221.574C263.104 221.683 262.384 221.58 261.738 221.279C261.092 220.978 260.55 220.493 260.181 219.883C259.812 219.274 259.631 218.569 259.663 217.857C259.694 217.146 259.936 216.459 260.358 215.885C260.78 215.311 261.362 214.875 262.032 214.632C262.928 214.307 263.916 214.351 264.78 214.754C265.644 215.156 266.313 215.885 266.64 216.78Z" fill="#263238"/>
<path d="M275.604 241.248C275.848 241.917 275.888 242.643 275.719 243.334C275.55 244.026 275.18 244.652 274.656 245.133C274.131 245.614 273.476 245.929 272.773 246.038C272.069 246.147 271.349 246.045 270.704 245.745C270.059 245.445 269.517 244.96 269.146 244.352C268.776 243.744 268.595 243.04 268.625 242.329C268.655 241.618 268.895 240.932 269.315 240.357C269.735 239.782 270.316 239.345 270.984 239.1C271.428 238.937 271.901 238.864 272.373 238.884C272.846 238.904 273.31 239.017 273.739 239.216C274.169 239.416 274.554 239.698 274.874 240.046C275.194 240.395 275.442 240.803 275.604 241.248V241.248Z" fill="#263238"/>
<path d="M170.4 238.356L170.304 238.248C168.432 236.376 166.452 234.336 164.664 232.248C162.876 230.16 161.124 228.072 159.528 225.912C157.963 223.805 156.54 221.596 155.268 219.3C154.358 217.658 153.583 215.944 152.952 214.176C153.672 211.776 154.44 209.376 155.352 207.072C156.396 204.3 157.572 201.576 158.856 198.888C160.14 196.2 161.508 193.56 162.984 190.98C163.704 189.684 164.46 188.4 165.24 187.14L166.44 185.292C166.812 184.692 167.256 184.092 167.568 183.576L167.7 183.384C168.553 182.084 168.868 180.503 168.578 178.975C168.289 177.447 167.417 176.092 166.147 175.194C164.878 174.296 163.309 173.926 161.772 174.162C160.235 174.399 158.85 175.222 157.908 176.46C157.308 177.276 156.852 177.924 156.372 178.632C155.892 179.34 155.46 180.048 155.004 180.756C154.128 182.172 153.276 183.6 152.46 185.052C150.837 187.949 149.367 190.929 148.056 193.98C147.384 195.492 146.856 197.04 146.172 198.588C145.488 200.136 145.032 201.708 144.552 203.316C143.533 206.502 142.696 209.743 142.044 213.024V213.3C141.858 214.176 141.92 215.086 142.224 215.928C143.387 219.005 144.931 221.924 146.82 224.616C148.599 227.172 150.581 229.579 152.748 231.816C154.858 233.971 157.099 235.994 159.456 237.876C161.812 239.755 164.285 241.482 166.86 243.048C167.485 243.414 168.222 243.539 168.933 243.4C169.644 243.261 170.28 242.868 170.721 242.294C171.163 241.719 171.38 241.004 171.332 240.281C171.284 239.559 170.974 238.878 170.46 238.368L170.4 238.356Z" fill="#FF8B7B"/>
<path d="M184.344 244.32L184.188 244.008C183.69 242.968 182.957 242.058 182.047 241.35C181.137 240.642 180.074 240.155 178.944 239.928L169.836 238.08L165.384 240.3C165.864 245.292 172.992 248.28 172.992 248.28L175.02 250.596C175.704 251.373 176.65 251.869 177.678 251.991C178.705 252.113 179.742 251.851 180.588 251.256L182.988 249.54C183.795 248.971 184.373 248.134 184.622 247.178C184.87 246.223 184.772 245.21 184.344 244.32V244.32Z" fill="#FF8B7B"/>
<path d="M162.228 169.716C157.176 172.032 151.8 180.048 151.8 180.048L162.6 200.268C162.6 200.268 174.876 186.12 173.844 179.04C173.004 173.028 168.66 166.764 162.228 169.716Z" fill="#0366D6"/>
<g opacity="0.3">
<path d="M162.228 169.716C157.176 172.032 151.8 180.048 151.8 180.048L162.6 200.268C162.6 200.268 174.876 186.12 173.844 179.04C173.004 173.028 168.66 166.764 162.228 169.716Z" fill="white"/>
</g>
<path d="M507.948 434.652C497.376 434.652 486.984 432.48 481.944 425.904C458.088 394.704 458.304 331.944 458.508 271.212C458.628 238.512 461.208 207.612 457.572 183.612C455.436 169.464 447.972 159.756 440.436 154.74C429.252 147.348 413.892 151.32 407.328 153.012C406.51 153.24 405.655 153.304 404.813 153.198C403.971 153.092 403.158 152.819 402.422 152.395C401.687 151.971 401.043 151.404 400.529 150.729C400.015 150.053 399.641 149.282 399.429 148.46C399.217 147.638 399.17 146.782 399.293 145.942C399.416 145.102 399.704 144.294 400.143 143.567C400.581 142.84 401.16 142.208 401.846 141.707C402.531 141.207 403.31 140.848 404.136 140.652C412.332 138.528 431.556 133.572 447.468 144.084C458.208 151.176 467.496 163.836 470.196 181.704C473.976 206.664 471.396 238.02 471.276 271.212C471.072 329.808 470.868 390.396 492.084 418.104C493.8 420.336 500.484 422.34 511.584 421.764C512.568 421.764 513.528 421.656 514.476 421.572C514.046 420.703 513.825 419.746 513.828 418.776C513.828 417.083 514.501 415.459 515.698 414.262C516.895 413.065 518.519 412.392 520.212 412.392C534.168 412.392 541.512 413.592 542.928 419.976C543.336 421.812 543.552 426.42 536.808 429.576C531.768 431.94 519.744 434.652 507.948 434.652Z" fill="#0366D6"/>
<path d="M368.244 440.16L355.224 435.036L362.088 412.464L375.12 417.576L368.244 440.16Z" fill="#FFC3BD"/>
<path d="M354.912 433.656L369.6 439.416C369.786 439.492 369.941 439.627 370.041 439.801C370.141 439.975 370.18 440.177 370.152 440.376L368.712 449.52C368.675 449.741 368.588 449.951 368.459 450.134C368.329 450.317 368.161 450.469 367.965 450.578C367.769 450.688 367.552 450.752 367.328 450.766C367.104 450.78 366.88 450.744 366.672 450.66C362.988 449.136 357.216 446.616 352.548 444.78C349.68 443.652 344.22 441.852 340.248 440.292C336.276 438.732 337.308 434.604 339.048 434.892C346.956 436.164 349.98 434.808 353.136 433.632C353.709 433.413 354.345 433.421 354.912 433.656V433.656Z" fill="#263238"/>
<path opacity="0.2" d="M375.12 417.588L362.088 412.464L358.548 424.104L371.58 429.228L375.12 417.588Z" fill="black"/>
<path d="M391.404 242.868C391.404 242.868 379.62 301.116 375.12 329.844C370.056 362.04 356.676 420.852 356.676 420.852L373.992 427.656C373.992 427.656 398.724 367.44 402.168 338.28C412.548 314.58 433.188 244.836 433.188 244.836L391.404 242.868Z" fill="#0366D6"/>
<path d="M355.836 420.948L374.844 428.424L378.096 422.664L356.844 413.856L355.836 420.948Z" fill="#263238"/>
<path d="M351.18 433.908C350.517 433.701 349.943 433.279 349.548 432.708C349.439 432.497 349.381 432.262 349.381 432.024C349.381 431.786 349.439 431.551 349.548 431.34C349.597 431.21 349.681 431.096 349.791 431.011C349.902 430.926 350.034 430.874 350.172 430.86C351.432 430.728 353.772 433.8 354 434.16C354.026 434.199 354.04 434.245 354.04 434.292C354.04 434.339 354.026 434.385 354 434.424C353.975 434.463 353.939 434.495 353.896 434.514C353.853 434.533 353.806 434.539 353.76 434.532C352.88 434.418 352.015 434.209 351.18 433.908V433.908ZM350.544 431.4C350.447 431.352 350.339 431.332 350.232 431.34C350.16 431.34 350.076 431.34 349.992 431.544C349.912 431.687 349.87 431.848 349.87 432.012C349.87 432.176 349.912 432.337 349.992 432.48C350.34 433.116 351.54 433.68 353.28 433.968C352.549 432.937 351.619 432.064 350.544 431.4V431.4Z" fill="#0366D6"/>
<path d="M353.736 434.52C353.697 434.507 353.664 434.482 353.64 434.448C352.872 433.536 351.792 430.716 352.44 429.744C352.54 429.593 352.689 429.481 352.861 429.427C353.034 429.372 353.22 429.378 353.388 429.444C353.566 429.489 353.733 429.572 353.878 429.685C354.022 429.799 354.142 429.942 354.228 430.104C354.972 431.436 354.132 434.244 354.096 434.364C354.082 434.407 354.057 434.445 354.023 434.474C353.989 434.504 353.948 434.524 353.904 434.532C353.877 434.545 353.848 434.551 353.818 434.549C353.789 434.546 353.761 434.537 353.736 434.52V434.52ZM353.328 429.936H353.232C352.92 429.864 352.848 429.936 352.812 430.044C352.452 430.62 353.04 432.66 353.724 433.776C354.066 432.666 354.066 431.478 353.724 430.368C353.648 430.181 353.508 430.028 353.328 429.936V429.936Z" fill="#0366D6"/>
<path opacity="0.2" d="M416.808 278.136C410.28 286.224 407.7 306.84 407.724 324.024C412.128 311.892 417.18 296.484 421.62 282.492L416.808 278.136Z" fill="black"/>
<path d="M446.604 442.332H432.612L430.752 418.812H444.744L446.604 442.332Z" fill="#FFC3BD"/>
<path d="M431.82 441.156H447.6C447.802 441.154 447.999 441.223 448.156 441.35C448.314 441.477 448.422 441.654 448.464 441.852L450.468 450.876C450.515 451.096 450.512 451.324 450.458 451.543C450.405 451.762 450.303 451.966 450.16 452.14C450.017 452.314 449.837 452.454 449.633 452.549C449.428 452.644 449.205 452.691 448.98 452.688C444.996 452.616 438.72 452.376 433.704 452.376C430.608 452.376 424.872 452.7 420.612 452.7C416.352 452.7 415.812 448.488 417.528 448.104C425.364 446.388 427.692 444.036 430.188 441.78C430.638 441.38 431.218 441.158 431.82 441.156V441.156Z" fill="#263238"/>
<path opacity="0.2" d="M444.744 418.812H430.74L431.712 430.944H445.716L444.744 418.812Z" fill="black"/>
<path d="M408.348 243.6C408.348 243.6 416.1 308.508 417.732 331.872C420 364.392 428.772 428.592 428.772 428.592H447.372C447.372 428.592 449.364 363.024 446.004 333.852C450.636 308.4 449.172 245.556 449.172 245.556L408.348 243.6Z" fill="#0366D6"/>
<path d="M428.028 428.988H448.452L449.376 422.448L426.372 422.016L428.028 428.988Z" fill="#263238"/>
<path d="M428.4 442.752C427.709 442.804 427.02 442.622 426.444 442.236C426.265 442.079 426.126 441.882 426.038 441.661C425.951 441.44 425.917 441.201 425.94 440.964C425.94 440.822 425.979 440.683 426.053 440.563C426.128 440.442 426.234 440.344 426.36 440.28C427.488 439.704 430.764 441.72 431.16 441.948C431.202 441.971 431.235 442.007 431.257 442.05C431.278 442.092 431.286 442.141 431.28 442.188C431.269 442.236 431.245 442.28 431.212 442.316C431.178 442.352 431.135 442.378 431.088 442.392C430.208 442.613 429.307 442.734 428.4 442.752ZM426.888 440.652C426.781 440.645 426.673 440.666 426.576 440.712C426.516 440.712 426.444 440.808 426.432 440.988C426.407 441.149 426.424 441.315 426.48 441.468C426.537 441.621 426.632 441.758 426.756 441.864C427.308 442.332 428.64 442.392 430.356 442.044C429.312 441.364 428.147 440.891 426.924 440.652H426.888Z" fill="#0366D6"/>
<path d="M431.04 442.392H430.92C429.876 441.816 427.836 439.596 428.052 438.456C428.088 438.279 428.184 438.12 428.324 438.007C428.464 437.893 428.639 437.831 428.82 437.832C429.001 437.806 429.186 437.82 429.362 437.872C429.538 437.923 429.701 438.012 429.84 438.132C431.04 439.104 431.268 442.032 431.28 442.152C431.282 442.196 431.274 442.24 431.255 442.28C431.236 442.32 431.208 442.354 431.172 442.38C431.13 442.395 431.084 442.399 431.04 442.392V442.392ZM428.988 438.276H428.88C428.568 438.276 428.544 438.468 428.532 438.528C428.4 439.188 429.732 440.928 430.74 441.672C430.667 440.512 430.249 439.401 429.54 438.48C429.384 438.352 429.19 438.28 428.988 438.276V438.276Z" fill="#0366D6"/>
<path d="M414.768 154.092L403.56 153.948C399.792 153.948 396.048 153.828 392.34 153.768C391.212 153.768 390.108 153.696 388.992 153.648C389.064 153.648 389.112 153.516 389.172 153.456C389.964 152.616 390.756 151.752 391.572 150.924C391.98 150.492 392.38 150.072 392.772 149.664C393.144 149.256 393.624 148.8 393.876 148.464L394.896 147.168C395.7 146.142 396.161 144.89 396.213 143.588C396.264 142.285 395.905 141 395.185 139.914C394.465 138.827 393.422 137.995 392.202 137.535C390.983 137.076 389.65 137.011 388.392 137.352L386.172 137.952C385.488 138.156 384.804 138.384 384.12 138.612C382.776 139.08 381.456 139.596 380.148 140.16C377.512 141.324 374.965 142.679 372.528 144.216C370.003 145.83 367.615 147.648 365.388 149.652C363.03 151.795 360.896 154.171 359.016 156.744C358.541 157.386 358.139 158.078 357.816 158.808C356.701 161.362 356.647 164.254 357.664 166.849C358.681 169.443 360.687 171.528 363.24 172.644L364.332 173.124C366.798 174.185 369.351 175.028 371.964 175.644C374.244 176.232 376.404 176.616 378.528 176.976C380.652 177.336 382.728 177.624 384.792 177.876C386.856 178.128 388.896 178.32 390.936 178.488C395.004 178.848 399.036 179.028 403.056 179.148C407.076 179.268 411.012 179.268 415.188 179.076C418.444 178.937 421.518 177.532 423.753 175.161C425.989 172.789 427.21 169.638 427.157 166.379C427.104 163.12 425.78 160.011 423.468 157.714C421.157 155.417 418.039 154.113 414.78 154.08L414.768 154.092Z" fill="#FFC3BD"/>
<path d="M421.296 175.992C411.612 187.032 388.308 182.904 388.308 182.904L389.592 155.4C397.58 153.642 405.726 152.697 413.904 152.58C427.584 152.556 429.048 167.136 421.296 175.992Z" fill="#263238"/>
<path d="M395.448 167.532C394.872 171.972 394.248 177.948 393.876 185.988C388.824 211.548 386.94 229.656 391.404 242.868C394.932 247.224 440.904 246.384 449.172 245.544C453.972 233.664 454.476 199.56 455.04 170.892C455.111 166.942 453.764 163.097 451.243 160.054C448.722 157.012 445.195 154.973 441.3 154.308C430.955 152.474 420.401 152.119 409.956 153.252C406.29 153.669 402.869 155.302 400.24 157.89C397.61 160.479 395.923 163.873 395.448 167.532V167.532Z" fill="#263238"/>
<path opacity="0.2" d="M440.052 184.98C440.208 193.716 446.544 207.672 453.672 214.752C454.104 207.372 454.38 199.368 454.596 191.292L440.052 184.98Z" fill="black"/>
<path d="M480.108 201.96L479.7 201C478.023 196.997 476.062 193.119 473.832 189.396C471.696 185.796 469.392 182.4 467.004 179.124C464.616 175.848 462.084 172.716 459.492 169.668C458.172 168.156 456.864 166.644 455.484 165.18L453.408 162.996L451.2 160.764C448.887 158.48 445.776 157.187 442.526 157.158C439.275 157.129 436.142 158.367 433.789 160.609C431.435 162.852 430.048 165.922 429.92 169.17C429.792 172.418 430.934 175.588 433.104 178.008L433.464 178.404L440.508 186.24C442.908 188.904 445.2 191.616 447.48 194.316C448.584 195.672 449.724 197.028 450.756 198.408C451.788 199.788 452.88 201.12 453.912 202.488C455.4 204.564 456.84 206.628 458.124 208.656C457.927 209.68 457.679 210.693 457.38 211.692C456.518 214.599 455.504 217.459 454.344 220.26C453.144 223.224 451.872 226.26 450.552 229.248C449.232 232.236 447.816 235.356 446.556 238.356L446.436 238.62C445.883 239.946 445.799 241.421 446.198 242.801C446.597 244.182 447.455 245.384 448.63 246.211C449.805 247.038 451.227 247.439 452.661 247.348C454.095 247.258 455.455 246.68 456.516 245.712C459.163 243.258 461.675 240.662 464.04 237.936C466.44 235.24 468.692 232.4 470.796 229.416C471.864 227.916 472.884 226.356 473.892 224.736C474.939 223.089 475.896 221.386 476.76 219.636C477.732 217.727 478.574 215.754 479.28 213.732C480.201 211.142 480.719 208.427 480.816 205.68C480.847 204.404 480.605 203.136 480.108 201.96V201.96Z" fill="#FFC3BD"/>
<path d="M442.116 154.464C458.304 157.236 468.852 179.148 468.852 179.148L449.34 200.136C449.34 200.136 438.096 188.688 431.34 178.08C424.056 166.536 430.524 152.496 442.116 154.464Z" fill="#263238"/>
<path d="M412.548 119.916C409.836 115.368 408.948 109.116 413.916 102.744C412.948 102.865 411.966 102.703 411.088 102.277C410.211 101.851 409.475 101.18 408.972 100.344C414.412 95.8933 421.252 93.5127 428.28 93.624C442.8 93.624 443.88 99.228 443.388 103.056C453.324 103.692 460.572 129.528 435.384 134.1C420.972 118.92 412.548 119.916 412.548 119.916Z" fill="#263238"/>
<path d="M442.476 103.524C442.476 103.524 446.52 99.396 441.492 94.404C442.619 94.7131 443.647 95.3088 444.476 96.1332C445.304 96.9575 445.905 97.9824 446.22 99.108C446.928 102.012 444.972 104.34 442.476 103.524Z" fill="#263238"/>
<path d="M436.908 130.944C436.524 138.9 435.804 147.948 437.136 154.296C435.072 157.548 429.792 161.292 420.336 162.132C416.976 160.224 412.536 155.556 414.084 153.156C418.104 150.576 419.808 142.764 418.656 136.92L436.908 130.944Z" fill="#FFC3BD"/>
<path opacity="0.2" d="M432.3 132.444L418.632 136.92C419.097 139.409 419.117 141.96 418.692 144.456C422.772 144.324 428.424 141.252 430.548 138.372C431.24 137.562 431.753 136.616 432.055 135.595C432.357 134.573 432.441 133.5 432.3 132.444Z" fill="black"/>
<path d="M440.892 118.344C438.36 128.1 437.376 133.944 431.4 138.036C422.412 144.192 411.108 137.292 410.664 126.984C410.28 117.696 414.48 103.296 424.92 101.244C427.219 100.783 429.597 100.917 431.829 101.634C434.062 102.351 436.074 103.627 437.674 105.341C439.274 107.054 440.41 109.148 440.973 111.424C441.536 113.7 441.508 116.082 440.892 118.344V118.344Z" fill="#FFC3BD"/>
<path d="M438.876 104.376C434.592 107.424 429.276 120.336 440.076 125.52C449.772 117 447.264 104.376 438.876 104.376Z" fill="#263238"/>
<path d="M441.348 105.924C443.184 97.428 421.74 93.036 414.948 102.96C412.644 108.936 440.052 114.216 441.348 105.924Z" fill="#263238"/>
<path d="M425.352 128.7C423.124 127.693 420.735 127.087 418.296 126.912C418.262 126.912 418.228 126.919 418.197 126.932C418.165 126.946 418.137 126.965 418.113 126.99C418.09 127.015 418.072 127.044 418.06 127.076C418.048 127.108 418.042 127.142 418.044 127.176C418.057 127.254 418.097 127.324 418.156 127.377C418.215 127.429 418.289 127.46 418.368 127.464C420.706 127.633 422.997 128.21 425.136 129.168C425.203 129.198 425.279 129.2 425.348 129.176C425.417 129.151 425.474 129.101 425.508 129.036C425.521 129.004 425.528 128.969 425.527 128.934C425.526 128.9 425.518 128.865 425.504 128.834C425.489 128.802 425.468 128.774 425.442 128.751C425.416 128.728 425.385 128.711 425.352 128.7V128.7Z" fill="#263238"/>
<path d="M443.232 129.012C441.493 130.858 439.095 131.941 436.56 132.024C433.2 132.096 432.348 128.892 433.968 126.156C435.432 123.756 438.936 120.684 441.984 121.908C445.032 123.132 445.344 126.72 443.232 129.012Z" fill="#FFC3BD"/>
<path d="M425.376 118.176C425.22 118.98 424.668 119.556 424.176 119.448C423.684 119.34 423.36 118.608 423.516 117.804C423.672 117 424.224 116.436 424.716 116.604C425.208 116.772 425.532 117.336 425.376 118.176Z" fill="#263238"/>
<path d="M416.292 116.412C416.136 117.216 415.584 117.78 415.092 117.684C414.6 117.588 414.264 116.844 414.42 116.04C414.576 115.236 415.128 114.66 415.62 114.768C416.112 114.876 416.4 115.608 416.292 116.412Z" fill="#263238"/>
<path d="M419.1 117.336C417.66 119.607 415.916 121.67 413.916 123.468C415.116 125.064 417.768 124.752 417.768 124.752L419.1 117.336Z" fill="#ED847E"/>
<path d="M424.068 113.508C424.154 113.489 424.243 113.493 424.327 113.518C424.411 113.543 424.487 113.589 424.548 113.652C424.933 114.118 425.423 114.486 425.978 114.725C426.533 114.965 427.137 115.07 427.74 115.032C427.867 115.015 427.996 115.048 428.099 115.124C428.202 115.2 428.271 115.314 428.292 115.44C428.302 115.502 428.3 115.566 428.284 115.628C428.269 115.689 428.242 115.747 428.203 115.797C428.165 115.848 428.117 115.89 428.062 115.921C428.008 115.953 427.947 115.973 427.884 115.98C427.122 116.041 426.357 115.92 425.651 115.626C424.946 115.331 424.321 114.873 423.828 114.288C423.783 114.244 423.747 114.192 423.723 114.134C423.698 114.077 423.686 114.015 423.686 113.952C423.686 113.889 423.698 113.827 423.723 113.77C423.747 113.712 423.783 113.66 423.828 113.616C423.899 113.563 423.981 113.526 424.068 113.508V113.508Z" fill="#263238"/>
<path d="M413.484 110.844C413.384 110.823 413.295 110.768 413.232 110.688C413.192 110.638 413.162 110.58 413.144 110.519C413.126 110.457 413.121 110.392 413.129 110.328C413.137 110.264 413.158 110.203 413.19 110.147C413.222 110.091 413.265 110.043 413.316 110.004C413.905 109.521 414.601 109.185 415.346 109.025C416.091 108.864 416.864 108.883 417.6 109.08C417.721 109.121 417.822 109.208 417.88 109.323C417.939 109.437 417.95 109.569 417.912 109.692C417.864 109.808 417.775 109.902 417.663 109.957C417.55 110.013 417.421 110.025 417.3 109.992V109.992C416.713 109.842 416.1 109.834 415.51 109.968C414.919 110.101 414.369 110.373 413.904 110.76C413.848 110.81 413.779 110.845 413.705 110.86C413.632 110.874 413.555 110.869 413.484 110.844V110.844Z" fill="#263238"/>
<path d="M452.22 238.008L441.912 237.936L447.24 249.768C447.24 249.768 456.036 247.884 455.556 243.108L452.22 238.008Z" fill="#FFC3BD"/>
<path d="M436.668 246.06L438.36 249.396C438.815 250.284 439.585 250.971 440.519 251.321C441.453 251.672 442.485 251.662 443.412 251.292L447.24 249.768L441.912 237.936L437.82 241.056C437.071 241.622 436.545 242.433 436.334 243.348C436.123 244.263 436.242 245.223 436.668 246.06Z" fill="#FFC3BD"/>
<path d="M373.752 229.296C372.507 229.283 371.292 228.907 370.258 228.214C369.223 227.521 368.414 226.541 367.928 225.394C367.443 224.247 367.302 222.983 367.525 221.758C367.747 220.533 368.322 219.399 369.18 218.496C373.764 213.768 377.904 210.096 381.552 206.892C390.36 199.128 393.396 196.092 393.108 190.272C392.677 186.681 391.914 183.138 390.828 179.688C388.2 170.028 385.224 159.096 390.324 150.324C393.06 145.608 397.704 142.38 404.136 140.724C405.762 140.338 407.475 140.605 408.906 141.468C410.338 142.331 411.373 143.721 411.791 145.339C412.209 146.957 411.976 148.675 411.141 150.123C410.307 151.571 408.938 152.634 407.328 153.084C402.804 154.284 401.712 156.12 401.328 156.744C398.928 160.884 401.244 169.452 403.116 176.328C404.472 180.664 405.38 185.127 405.828 189.648C406.428 201.948 399.168 208.356 389.964 216.468C386.496 219.54 382.548 223.02 378.3 227.388C377.708 227.993 377 228.474 376.219 228.802C375.438 229.129 374.599 229.297 373.752 229.296V229.296Z" fill="#0366D6"/>
<path d="M387.756 137.616L397.74 135.06L395.412 147.828C395.412 147.828 386.424 148.104 385.752 143.364L387.756 137.616Z" fill="#FFC3BD"/>
<path d="M404.748 141.828L403.98 145.164C403.744 146.183 403.136 147.077 402.274 147.67C401.412 148.263 400.36 148.512 399.324 148.368L395.412 147.828L397.74 135.06L402.324 137.04C403.225 137.428 403.961 138.12 404.404 138.995C404.847 139.87 404.968 140.872 404.748 141.828Z" fill="#FFC3BD"/>
<path d="M370.183 208.299L369.911 208.028C368.697 206.814 366.729 206.815 365.516 208.029L330.13 243.427C328.916 244.641 328.917 246.609 330.131 247.822L330.402 248.094C331.616 249.307 333.584 249.307 334.797 248.093L370.183 212.695C371.397 211.481 371.397 209.513 370.183 208.299Z" fill="#263238"/>
<path d="M388.625 226.718L388.354 226.447C387.14 225.233 385.172 225.233 383.958 226.447L348.566 261.839C347.353 263.052 347.353 265.02 348.566 266.234L348.838 266.506C350.052 267.719 352.019 267.719 353.233 266.506L388.625 231.113C389.839 229.9 389.839 227.932 388.625 226.718Z" fill="#263238"/>
<path d="M341.295 221.476L366.233 196.537C367.032 195.738 367.98 195.105 369.024 194.672C370.068 194.24 371.187 194.017 372.317 194.017C373.447 194.017 374.566 194.24 375.609 194.672C376.653 195.105 377.602 195.739 378.401 196.537L400.2 218.336C400.998 219.135 401.632 220.084 402.065 221.127C402.497 222.171 402.72 223.29 402.72 224.42C402.72 225.55 402.497 226.669 402.065 227.713C401.632 228.757 400.998 229.705 400.2 230.504L375.261 255.442L341.295 221.476Z" fill="#0366D6"/>
<path opacity="0.7" d="M341.295 221.476L366.233 196.537C367.032 195.738 367.98 195.105 369.024 194.672C370.068 194.24 371.187 194.017 372.317 194.017C373.447 194.017 374.566 194.24 375.609 194.672C376.653 195.105 377.602 195.739 378.401 196.537L400.2 218.336C400.998 219.135 401.632 220.084 402.065 221.127C402.497 222.171 402.72 223.29 402.72 224.42C402.72 225.55 402.497 226.669 402.065 227.713C401.632 228.757 400.998 229.705 400.2 230.504L375.261 255.442L341.295 221.476Z" fill="white"/>
<path opacity="0.2" d="M349.896 212.808L341.256 221.436L375.228 255.408L383.856 246.768C383.513 245.763 382.942 244.852 382.188 244.104L352.56 214.536C351.819 213.76 350.906 213.169 349.896 212.808V212.808Z" fill="#0366D6"/>
<path d="M339.799 217.085L339.18 217.704C336.546 220.338 336.546 224.608 339.18 227.242L369.43 257.492C372.064 260.126 376.334 260.126 378.967 257.492L379.587 256.872C382.221 254.239 382.221 249.969 379.587 247.335L349.337 217.085C346.703 214.451 342.433 214.451 339.799 217.085Z" fill="#0366D6"/>
<path d="M433.824 0.888H166.176C160.596 0.888 156.072 5.41172 156.072 10.992V59.808C156.072 65.3883 160.596 69.912 166.176 69.912H433.824C439.404 69.912 443.928 65.3883 443.928 59.808V10.992C443.928 5.41172 439.404 0.888 433.824 0.888Z" fill="white"/>
<path d="M433.824 70.8H166.224C163.31 70.7968 160.516 69.6377 158.455 67.577C156.394 65.5163 155.235 62.7223 155.232 59.808V10.992C155.235 8.07772 156.394 5.2837 158.455 3.22299C160.516 1.16228 163.31 0.00317634 166.224 0H433.824C436.738 0.00317634 439.532 1.16228 441.593 3.22299C443.654 5.2837 444.813 8.07772 444.816 10.992V59.808C444.813 62.7223 443.654 65.5163 441.593 67.577C439.532 69.6377 436.738 70.7968 433.824 70.8ZM166.224 1.776C163.781 1.77917 161.438 2.75116 159.711 4.47881C157.983 6.20646 157.011 8.54874 157.008 10.992V59.808C157.011 62.2513 157.983 64.5935 159.711 66.3212C161.438 68.0488 163.781 69.0208 166.224 69.024H433.824C436.267 69.0208 438.609 68.0488 440.337 66.3212C442.065 64.5935 443.037 62.2513 443.04 59.808V10.992C443.037 8.54874 442.065 6.20646 440.337 4.47881C438.609 2.75116 436.267 1.77917 433.824 1.776H166.224Z" fill="#263238"/>
<g opacity="0.4">
<path d="M179.736 47.4V21.432H189.528C190.852 21.4071 192.176 21.4873 193.488 21.672C194.63 21.8367 195.723 22.2461 196.692 22.872C197.591 23.5129 198.306 24.3774 198.768 25.38C199.468 26.8678 199.717 28.5285 199.482 30.156C199.247 31.7836 198.54 33.3066 197.448 34.536C196.048 36.056 193.512 36.82 189.84 36.828H183.168V47.388L179.736 47.4ZM183.168 33.78H189.888C191.556 33.9505 193.231 33.5255 194.616 32.58C195.093 32.1396 195.466 31.5992 195.708 30.9975C195.951 30.3958 196.058 29.7477 196.02 29.1C196.048 28.1037 195.758 27.1244 195.192 26.304C194.67 25.554 193.901 25.0105 193.02 24.768C191.963 24.5799 190.889 24.5035 189.816 24.54H183.168V33.78Z" fill="#263238"/>
<path d="M215.808 45.084C214.796 45.9741 213.645 46.6916 212.4 47.208C211.274 47.6215 210.083 47.8288 208.884 47.82C207.15 47.9406 205.435 47.4004 204.084 46.308C203.544 45.8231 203.115 45.2262 202.829 44.5588C202.543 43.8914 202.406 43.1697 202.428 42.444C202.416 41.5605 202.631 40.6888 203.052 39.912C203.465 39.2006 204.036 38.5932 204.72 38.136C205.428 37.6689 206.206 37.3166 207.024 37.092C207.958 36.8772 208.903 36.7169 209.856 36.612C211.783 36.4365 213.689 36.0707 215.544 35.52C215.544 35.088 215.544 34.8 215.544 34.692C215.597 34.1963 215.545 33.6949 215.39 33.2212C215.234 32.7474 214.98 32.312 214.644 31.944C213.614 31.1606 212.335 30.7769 211.044 30.864C209.882 30.7798 208.723 31.0519 207.72 31.644C206.894 32.3724 206.336 33.3569 206.136 34.44L203.016 34.008C203.231 32.8388 203.711 31.7345 204.42 30.78C205.163 29.8954 206.14 29.2383 207.24 28.884C208.615 28.4181 210.06 28.1948 211.512 28.224C212.839 28.1785 214.164 28.3695 215.424 28.788C216.245 29.0212 216.983 29.4838 217.55 30.1214C218.118 30.7591 218.492 31.5453 218.628 32.388C218.761 33.362 218.813 34.3454 218.784 35.328V39.576C218.737 41.4544 218.805 43.3339 218.988 45.204C219.133 45.9943 219.404 46.7561 219.792 47.46H216.468C216.103 46.7156 215.879 45.91 215.808 45.084ZM215.544 37.956C213.861 38.5594 212.113 38.9622 210.336 39.156C209.385 39.258 208.45 39.4756 207.552 39.804C207.037 40.0127 206.598 40.3726 206.292 40.836C205.938 41.4011 205.797 42.0735 205.894 42.7331C205.991 43.3926 206.319 43.9962 206.82 44.436C207.622 45.0602 208.627 45.3639 209.64 45.288C210.783 45.3099 211.913 45.0328 212.916 44.484C213.833 43.9868 214.572 43.2146 215.028 42.276C215.42 41.2637 215.596 40.1804 215.544 39.096V37.956Z" fill="#263238"/>
<path d="M223.128 48.936L226.224 49.392C226.251 49.7955 226.361 50.189 226.547 50.5482C226.733 50.9073 226.991 51.2245 227.304 51.48C228.257 52.1233 229.396 52.4353 230.544 52.368C231.75 52.4468 232.949 52.1355 233.964 51.48C234.779 50.8706 235.356 49.9965 235.596 49.008C235.81 47.6553 235.887 46.2842 235.824 44.916C235.195 45.6847 234.399 46.3002 233.497 46.716C232.594 47.1318 231.609 47.337 230.616 47.316C229.464 47.373 228.315 47.1482 227.27 46.661C226.224 46.1738 225.313 45.4389 224.616 44.52C223.172 42.5821 222.42 40.2159 222.48 37.8C222.462 36.0938 222.797 34.4023 223.464 32.832C224.038 31.408 225.019 30.185 226.284 29.316C227.582 28.4855 229.1 28.0672 230.64 28.116C231.701 28.1019 232.75 28.338 233.703 28.805C234.656 29.272 235.485 29.9568 236.124 30.804V28.536H239.064V44.844C239.194 46.9588 238.892 49.0779 238.176 51.072C237.558 52.3161 236.563 53.3326 235.332 53.976C233.848 54.7309 232.196 55.0943 230.532 55.032C228.601 55.1238 226.692 54.5938 225.084 53.52C224.394 52.9863 223.852 52.2849 223.51 51.4825C223.167 50.6801 223.036 49.8035 223.128 48.936V48.936ZM225.756 37.632C225.592 39.5501 226.115 41.4642 227.232 43.032C227.678 43.5757 228.241 44.0115 228.879 44.3066C229.517 44.6017 230.213 44.7485 230.916 44.736C231.617 44.7456 232.312 44.5988 232.949 44.3061C233.586 44.0134 234.15 43.5822 234.6 43.044C235.72 41.5134 236.248 39.6296 236.088 37.74C236.231 35.8745 235.684 34.0215 234.552 32.532C234.109 31.9815 233.548 31.5381 232.91 31.2347C232.273 30.9313 231.574 30.7759 230.868 30.78C230.176 30.7778 229.493 30.9322 228.87 31.2314C228.247 31.5307 227.699 31.9671 227.268 32.508C226.158 33.9845 225.62 35.8136 225.756 37.656V37.632Z" fill="#263238"/>
<path d="M256.8 41.34L260.1 41.748C259.667 43.5263 258.649 45.1072 257.208 46.236C255.636 47.3434 253.741 47.9003 251.82 47.82C250.611 47.893 249.4 47.7094 248.266 47.2813C247.133 46.8532 246.103 46.1902 245.244 45.336C243.538 43.3632 242.676 40.7987 242.844 38.196C242.665 35.5226 243.525 32.8833 245.244 30.828C246.053 29.9655 247.036 29.2858 248.129 28.8346C249.222 28.3834 250.398 28.1711 251.58 28.212C252.732 28.172 253.879 28.3807 254.944 28.8238C256.008 29.267 256.965 29.9341 257.748 30.78C259.446 32.7807 260.306 35.3603 260.148 37.98C260.148 38.172 260.148 38.46 260.148 38.832H246.12C246.097 40.5924 246.721 42.3 247.872 43.632C248.376 44.1671 248.987 44.5901 249.665 44.8733C250.343 45.1566 251.073 45.2938 251.808 45.276C252.878 45.3029 253.928 44.9784 254.796 44.352C255.754 43.5749 256.454 42.5243 256.8 41.34V41.34ZM246.336 36.192H256.8C256.773 34.8983 256.354 33.6433 255.6 32.592C255.128 31.9983 254.525 31.5224 253.838 31.2017C253.15 30.881 252.398 30.7243 251.64 30.744C250.958 30.7272 250.28 30.8494 249.646 31.1031C249.013 31.3569 248.438 31.7369 247.956 32.22C246.907 33.2775 246.313 34.7027 246.3 36.192H246.336Z" fill="#263238"/>
<path d="M274.14 47.4V28.536H277.008V31.212C277.65 30.2168 278.543 29.4072 279.595 28.864C280.648 28.3208 281.825 28.0629 283.008 28.116C284.083 28.103 285.149 28.3113 286.14 28.728C286.985 29.0532 287.724 29.6055 288.276 30.324C288.771 31.0459 289.111 31.8634 289.272 32.724C289.409 33.75 289.466 34.7852 289.44 35.82V47.388H286.26V35.952C286.3 34.9661 286.174 33.9804 285.888 33.036C285.629 32.3924 285.165 31.8524 284.568 31.5C283.892 31.1054 283.119 30.906 282.336 30.924C281.043 30.9001 279.788 31.3627 278.82 32.22C277.836 33.084 277.344 34.716 277.344 37.128V47.4H274.14Z" fill="#263238"/>
<path d="M293.136 37.992C293.136 34.512 294.104 31.932 296.04 30.252C297.687 28.8495 299.794 28.1058 301.956 28.164C303.131 28.1208 304.303 28.325 305.394 28.7632C306.486 29.2014 307.473 29.864 308.292 30.708C309.157 31.6518 309.825 32.759 310.255 33.9646C310.686 35.1702 310.871 36.4498 310.8 37.728C310.889 39.6913 310.515 41.648 309.708 43.44C308.996 44.807 307.893 45.9308 306.54 46.668C305.153 47.4531 303.586 47.8665 301.992 47.868C300.804 47.9247 299.617 47.7282 298.51 47.2917C297.403 46.8552 296.402 46.1886 295.572 45.336C294.703 44.3319 294.041 43.1665 293.623 41.9064C293.205 40.6463 293.04 39.3161 293.136 37.992V37.992ZM296.412 37.992C296.267 39.9264 296.825 41.8482 297.984 43.404C298.47 43.981 299.079 44.442 299.766 44.7534C300.454 45.0649 301.202 45.2188 301.956 45.204C302.708 45.2189 303.454 45.0637 304.137 44.7499C304.821 44.4362 305.425 43.9719 305.904 43.392C307.081 41.8079 307.643 39.8511 307.488 37.884C307.628 35.9871 307.06 34.1056 305.892 32.604C305.399 32.0407 304.791 31.5893 304.109 31.2801C303.427 30.9708 302.687 30.8108 301.938 30.8108C301.189 30.8108 300.449 30.9708 299.767 31.2801C299.085 31.5893 298.477 32.0407 297.984 32.604C296.822 34.1492 296.259 36.0635 296.4 37.992H296.412Z" fill="#263238"/>
<path d="M321.456 44.544L321.924 47.364C321.136 47.5426 320.332 47.6391 319.524 47.652C318.596 47.6977 317.671 47.5078 316.836 47.1C316.243 46.7757 315.768 46.2715 315.48 45.66C315.149 44.433 315.02 43.1605 315.096 41.892V31.092H312.756V28.536H315.096V23.928L318.264 22.008V28.536H321.468V31.02H318.264V42.024C318.23 42.6132 318.286 43.2041 318.432 43.776C318.548 44.0323 318.741 44.2462 318.984 44.388C319.319 44.5664 319.697 44.6494 320.076 44.628C320.537 44.6308 320.998 44.6027 321.456 44.544Z" fill="#263238"/>
<path d="M335.424 47.4V31.068H332.604V28.536H335.424V26.58C335.377 25.6199 335.49 24.6586 335.76 23.736C336.063 22.9039 336.633 22.1952 337.38 21.72C338.366 21.1516 339.496 20.8846 340.632 20.952C341.631 20.9646 342.628 21.069 343.608 21.264L343.128 24.048C342.507 23.9315 341.876 23.8712 341.244 23.868C340.505 23.7989 339.768 24.023 339.192 24.492C338.718 25.1656 338.504 25.9888 338.592 26.808V28.536H342.264V31.02H338.592V47.4H335.424Z" fill="#263238"/>
<path d="M343.548 37.992C343.548 34.512 344.516 31.932 346.452 30.252C348.103 28.8497 350.214 28.1062 352.38 28.164C353.555 28.1208 354.727 28.325 355.818 28.7632C356.91 29.2014 357.897 29.864 358.716 30.708C359.577 31.6537 360.24 32.7618 360.666 33.9673C361.093 35.1728 361.274 36.4514 361.2 37.728C361.292 39.6903 360.922 41.6469 360.12 43.44C359.408 44.8104 358.3 45.9351 356.94 46.668C355.557 47.4531 353.994 47.8666 352.404 47.868C351.216 47.9201 350.031 47.7216 348.925 47.2853C347.818 46.8491 346.817 46.1849 345.984 45.336C345.115 44.3319 344.453 43.1665 344.035 41.9064C343.617 40.6463 343.452 39.3161 343.548 37.992V37.992ZM346.836 37.992C346.684 39.9271 347.243 41.8512 348.408 43.404C348.9 43.971 349.509 44.4257 350.192 44.7374C350.875 45.049 351.617 45.2103 352.368 45.2103C353.119 45.2103 353.861 45.049 354.544 44.7374C355.227 44.4257 355.836 43.971 356.328 43.404C357.495 41.8158 358.053 39.8611 357.9 37.896C358.038 36.0012 357.474 34.122 356.316 32.616C355.823 32.0527 355.215 31.6013 354.533 31.2921C353.851 30.9828 353.111 30.8228 352.362 30.8228C351.613 30.8228 350.873 30.9828 350.191 31.2921C349.509 31.6013 348.901 32.0527 348.408 32.616C347.235 34.1522 346.663 36.0639 346.8 37.992H346.836Z" fill="#263238"/>
<path d="M377.244 47.4V44.64C376.605 45.6441 375.716 46.465 374.664 47.0224C373.612 47.5798 372.434 47.8546 371.244 47.82C370.174 47.8332 369.114 47.6163 368.136 47.184C367.295 46.8508 366.558 46.3 366 45.588C365.504 44.8677 365.168 44.0492 365.016 43.188C364.86 42.2041 364.796 41.2078 364.824 40.212V28.536H368.016V38.976C367.977 40.0995 368.041 41.2243 368.208 42.336C368.379 43.1278 368.831 43.8309 369.48 44.316C370.18 44.811 371.023 45.0639 371.88 45.036C372.827 45.0364 373.756 44.7792 374.568 44.292C375.373 43.8449 376.003 43.1387 376.356 42.288C376.755 41.1067 376.93 39.8614 376.872 38.616V28.536H380.064V47.4H377.244Z" fill="#263238"/>
<path d="M385.092 47.4V28.536H387.96V31.212C388.602 30.2168 389.495 29.4072 390.547 28.864C391.6 28.3208 392.777 28.0629 393.96 28.116C395.035 28.103 396.101 28.3113 397.092 28.728C397.937 29.0532 398.677 29.6055 399.228 30.324C399.724 31.0459 400.063 31.8634 400.224 32.724C400.362 33.75 400.418 34.7852 400.392 35.82V47.388H397.2V35.952C397.24 34.9661 397.114 33.9804 396.828 33.036C396.57 32.3924 396.105 31.8524 395.508 31.5C394.832 31.1054 394.059 30.906 393.276 30.924C391.983 30.9025 390.729 31.3647 389.76 32.22C388.776 33.084 388.284 34.716 388.284 37.128V47.4H385.092Z" fill="#263238"/>
<path d="M417.48 47.4V45C416.934 45.8961 416.156 46.6286 415.229 47.1206C414.303 47.6126 413.26 47.8459 412.212 47.796C410.747 47.8167 409.309 47.3988 408.084 46.596C406.8 45.7397 405.785 44.5373 405.156 43.128C404.443 41.524 404.091 39.783 404.124 38.028C404.099 36.2792 404.417 34.5425 405.06 32.916C405.604 31.4749 406.591 30.2438 407.88 29.4C409.13 28.5928 410.592 28.1752 412.08 28.2C413.133 28.1816 414.173 28.4292 415.104 28.92C415.96 29.3621 416.7 29.9992 417.264 30.78V21.432H420.432V47.4H417.48ZM407.4 38.016C407.255 39.9395 407.795 41.8523 408.924 43.416C409.35 43.9666 409.895 44.4135 410.519 44.7232C411.142 45.0329 411.828 45.1973 412.524 45.204C413.215 45.2112 413.899 45.0603 414.523 44.7629C415.147 44.4655 415.694 44.0294 416.124 43.488C417.209 41.9783 417.723 40.1331 417.576 38.28C417.74 36.2738 417.215 34.2715 416.088 32.604C415.659 32.0405 415.106 31.5844 414.47 31.272C413.835 30.9596 413.136 30.7993 412.428 30.804C411.735 30.79 411.047 30.939 410.422 31.2391C409.797 31.5393 409.251 31.9821 408.828 32.532C407.742 34.1443 407.238 36.0788 407.4 38.016V38.016Z" fill="#263238"/>
</g>
<path d="M300 105.372C312.287 105.372 322.248 95.4112 322.248 83.124C322.248 70.8367 312.287 60.876 300 60.876C287.713 60.876 277.752 70.8367 277.752 83.124C277.752 95.4112 287.713 105.372 300 105.372Z" fill="#263238"/>
<path d="M300 102.06C310.458 102.06 318.936 93.5821 318.936 83.124C318.936 72.6659 310.458 64.188 300 64.188C289.542 64.188 281.064 72.6659 281.064 83.124C281.064 93.5821 289.542 102.06 300 102.06Z" fill="white"/>
<path d="M312.804 79.044H303.924L311.376 57L287.196 87.204H296.076L288.624 109.248L312.804 79.044Z" fill="#0366D6"/>
<path d="M313.564 99.3272L316.211 96.6797L286.436 66.9049L283.789 69.5523L313.564 99.3272Z" fill="#263238"/>
</svg>
